<?xml version="1.0" encoding="UTF-8" standalone="no"?>
<!-- Created with Inkscape (http://www.inkscape.org/) -->

<svg
   width="50.353905mm"
   height="58.331799mm"
   viewBox="0 0 50.353905 58.331799"
   version="1.1"
   id="svg1"
   xml:space="preserve"
   inkscape:version="1.3.2 (091e20e, 2023-11-25)"
   sodipodi:docname="HiDeNN.svg"
   xmlns:inkscape="http://www.inkscape.org/namespaces/inkscape"
   xmlns:sodipodi="http://sodipodi.sourceforge.net/DTD/sodipodi-0.dtd"
   xmlns="http://www.w3.org/2000/svg"
   xmlns:svg="http://www.w3.org/2000/svg"><sodipodi:namedview
     id="namedview1"
     pagecolor="#ffffff"
     bordercolor="#000000"
     borderopacity="0.25"
     inkscape:showpageshadow="2"
     inkscape:pageopacity="0.0"
     inkscape:pagecheckerboard="0"
     inkscape:deskcolor="#d1d1d1"
     inkscape:document-units="mm"
     inkscape:zoom="2.86107"
     inkscape:cx="539.83299"
     inkscape:cy="371.18979"
     inkscape:window-width="3008"
     inkscape:window-height="1639"
     inkscape:window-x="0"
     inkscape:window-y="25"
     inkscape:window-maximized="1"
     inkscape:current-layer="g1" /><defs
     id="defs1" /><g
     id="g1"
     inkscape:groupmode="layer"
     inkscape:label="1"
     transform="matrix(0.26458333,0,0,0.26458333,202.99885,-62.540933)"><path
       id="path321"
       d="m -661.17897,262.84358 52.70882,73.92225"
       style="fill:none;stroke:#01426a;stroke-width:1.06268;stroke-linecap:butt;stroke-linejoin:miter;stroke-miterlimit:10;stroke-dasharray:none;stroke-opacity:1"
       sodipodi:nodetypes="cc" /><path
       id="path323"
       d="m -658.25307,297.93585 42.03779,44.25177"
       style="fill:none;stroke:#01426a;stroke-width:1.06268;stroke-linecap:butt;stroke-linejoin:miter;stroke-miterlimit:10;stroke-dasharray:none;stroke-opacity:1"
       sodipodi:nodetypes="cc" /><path
       id="path325"
       d="m -659.42353,335.80426 40.52463,11.42072"
       style="fill:none;stroke:#01426a;stroke-width:1.06268;stroke-linecap:butt;stroke-linejoin:miter;stroke-miterlimit:10;stroke-dasharray:none;stroke-opacity:1"
       sodipodi:nodetypes="cc" /><path
       id="path327"
       d="m -657.40816,379.87794 35.19238,-14.66141"
       style="fill:none;stroke:#01426a;stroke-width:1.06268;stroke-linecap:butt;stroke-linejoin:miter;stroke-miterlimit:10;stroke-dasharray:none;stroke-opacity:1"
       sodipodi:nodetypes="cc" /><path
       id="path334"
       d="m -659.56062,433.42743 51.09175,-55.27442"
       style="fill:none;stroke:#01426a;stroke-width:1.06268;stroke-linecap:butt;stroke-linejoin:miter;stroke-miterlimit:10;stroke-dasharray:none;stroke-opacity:1"
       sodipodi:nodetypes="cc" /><path
       id="path8"
       d="m -736.47185,365.21654 c 0,-8.34972 -6.76859,-15.11829 -15.11828,-15.11829 -8.34969,0 -15.11828,6.76857 -15.11828,15.11829 0,8.34968 6.76859,15.11828 15.11828,15.11828 8.34969,0 15.11828,-6.7686 15.11828,-15.11828 z"
       style="fill:#c0d0da;fill-opacity:1;fill-rule:nonzero;stroke:#00677f;stroke-width:1.06268;stroke-linecap:butt;stroke-linejoin:miter;stroke-miterlimit:10;stroke-dasharray:none;stroke-opacity:1" /><path
       id="path9"
       d="m -750.94717,364.05841 c 0.0781,-0.34375 0.39062,-1.5625 1.3125,-1.5625 0.0625,0 0.39062,0 0.67187,0.17188 -0.375,0.0625 -0.64062,0.40625 -0.64062,0.71875 0,0.21875 0.14062,0.46875 0.5,0.46875 0.29687,0 0.71875,-0.25 0.71875,-0.78125 0,-0.6875 -0.78125,-0.875 -1.23438,-0.875 -0.76562,0 -1.23437,0.70312 -1.39062,1.01562 -0.34375,-0.875 -1.04688,-1.01562 -1.4375,-1.01562 -1.39063,0 -2.14063,1.71875 -2.14063,2.04687 0,0.14063 0.14063,0.14063 0.15625,0.14063 0.10938,0 0.15625,-0.0312 0.17188,-0.15625 0.45312,-1.40625 1.32812,-1.73438 1.78125,-1.73438 0.25,0 0.71875,0.125 0.71875,0.89063 0,0.40625 -0.21875,1.29687 -0.71875,3.15625 -0.20313,0.82812 -0.67188,1.39062 -1.26563,1.39062 -0.0781,0 -0.375,0 -0.65625,-0.17187 0.32813,-0.0781 0.625,-0.35938 0.625,-0.71875 0,-0.35938 -0.29687,-0.46875 -0.5,-0.46875 -0.39062,0 -0.71875,0.34375 -0.71875,0.76562 0,0.60938 0.65625,0.875 1.25,0.875 0.875,0 1.34375,-0.92187 1.39063,-1 0.15625,0.48438 0.64062,1 1.4375,1 1.35937,0 2.125,-1.70312 2.125,-2.04687 0,-0.125 -0.125,-0.125 -0.17188,-0.125 -0.10937,0 -0.14062,0.0469 -0.17187,0.14062 -0.4375,1.42188 -1.32813,1.75 -1.76563,1.75 -0.51562,0 -0.71875,-0.4375 -0.71875,-0.875 0,-0.29687 0.0781,-0.59375 0.21875,-1.17187 z m 0,0"
       style="fill:#000000;fill-opacity:1;fill-rule:nonzero;stroke:none;stroke-width:1.33333"
       aria-label="x" /><path
       id="path35"
       d="m -657.29608,255.60911 c 0,-10.32927 -8.37332,-18.70259 -18.70256,-18.70259 -10.32926,0 -18.70257,8.37332 -18.70257,18.70259 0,10.32924 8.37331,18.70255 18.70257,18.70255 10.32924,0 18.70256,-8.37331 18.70256,-18.70255 z"
       style="fill:#c0d0da;fill-opacity:1;fill-rule:nonzero;stroke:#00677f;stroke-width:1.06268;stroke-linecap:butt;stroke-linejoin:miter;stroke-miterlimit:10;stroke-dasharray:none;stroke-opacity:1" /><g
       id="g35"
       aria-label="N&#10;Ω&#10;1"
       transform="matrix(1.3333333,0,0,1.3333333,-686.18346,259.5469)"><path
         id="path36"
         d="M 7.5365938,-5.7540547 C 7.6303438,-6.1524922 7.806125,-6.4688984 8.603,-6.4923359 c 0.058594,0 0.1757813,-0.011719 0.1757813,-0.1992188 0,-0.011719 0,-0.1171875 -0.1289063,-0.1171875 -0.328125,0 -0.6796875,0.035156 -1.0078125,0.035156 -0.3398437,0 -0.6914062,-0.035156 -1.0195312,-0.035156 -0.058594,0 -0.1757813,0 -0.1757813,0.1992188 0,0.1171875 0.09375,0.1171875 0.1757813,0.1171875 0.5742187,0.011719 0.6796875,0.2109375 0.6796875,0.4335937 0,0.035156 -0.023437,0.1757813 -0.023437,0.2109375 l -1.125,4.4296875 -2.203125,-5.1914062 C 3.8803438,-6.7970234 3.868625,-6.8087422 3.63425,-6.8087422 H 2.2983125 c -0.1992187,0 -0.28125,0 -0.28125,0.1992188 0,0.1171875 0.082031,0.1171875 0.28125,0.1171875 0.046875,0 0.6679688,0 0.6679688,0.082031 l -1.3359375,5.3554688 c -0.09375,0.39843746 -0.2695313,0.71484371 -1.0664063,0.74999996 -0.0585938,0 -0.17578125,0 -0.17578125,0.19921875 0,0.0703125 0.046875,0.1054687525 0.12890625,0.1054687525 0.31640625,0 0.6679688,-0.0351562525 0.9960938,-0.0351562525 0.3398437,0 0.703125,0.0351562525 1.03125,0.0351562525 0.046875,0 0.1757812,0 0.1757812,-0.1992187525 0,-0.10546875 -0.09375,-0.10546875 -0.1992187,-0.10546875 -0.5742188,-0.0234375 -0.65625,-0.24609375 -0.65625,-0.4453125 0,-0.0703125 0.011719,-0.1171875 0.035156,-0.22265625 l 1.324219,-5.26171851 c 0.035156,0.058594 0.035156,0.082031 0.082031,0.1757812 L 5.7905,-0.18764844 c 0.070312,0.1640625 0.09375,0.1875000025 0.1875,0.1875000025 0.1054688,0 0.1054688,-0.0351562525 0.1640625,-0.2109375025 z m 0,0"
         style="fill:#000000;fill-opacity:1;fill-rule:nonzero;stroke:none" /><path
         id="path37"
         d="M 14.365695,-4.7872578 H 14.13132 c 0,0.023437 -0.07031,0.3515625 -0.128906,0.5039062 -0.03516,0.1171875 -0.05859,0.1757813 -0.492187,0.1757813 h -0.585938 c 0.117188,-0.3984375 0.316406,-0.6679688 0.703125,-1.1835938 0.351563,-0.46875 0.65625,-0.9257812 0.65625,-1.4882812 0,-0.9375 -1.019531,-1.734375 -2.355469,-1.734375 -1.335937,0 -2.3437497,0.796875 -2.3437497,1.734375 0,0.609375 0.328125,1.0664062 0.8203127,1.7226562 0.199219,0.2578125 0.421875,0.5742188 0.539062,0.9492188 h -0.597656 c -0.4218749,0 -0.4453124,-0.058594 -0.4804687,-0.140625 -0.058594,-0.1289063 -0.140625,-0.5273438 -0.140625,-0.5390625 h -0.234375 l 0.2460938,1.171875 h 1.2539059 c 0.152344,0 0.199219,0 0.199219,-0.1523438 0,-0.5039062 -0.257812,-1.1015625 -0.398437,-1.4414062 -0.269532,-0.609375 -0.46875,-1.0664063 -0.46875,-1.5820313 0,-0.984375 0.796875,-1.5351562 1.605468,-1.5351562 0.820313,0 1.605469,0.5507812 1.605469,1.5351562 0,0.5273438 -0.210937,1.0078125 -0.445312,1.546875 -0.152344,0.3515625 -0.421875,0.9609375 -0.421875,1.4648438 0,0.1640625 0.04687,0.1640625 0.199218,0.1640625 h 1.253907 z m -4.02832,2.8300781 c 0,-0.1875 -0.01172,-0.1992187 -0.210937,-0.1992187 -0.445313,0.4335937 -1.0781255,0.4453125 -1.3593755,0.4453125 v 0.2460937 c 0.1640625,0 0.6210938,0 1.0078125,-0.1875 v 3.5507813 c 0,0.234375 0,0.328125 -0.6914062,0.328125 H 8.8139375 v 0.2460937 c 0.1289063,-0.011719 0.984375,-0.023437 1.2421875,-0.023437 0.210938,0 1.089844,0.011719 1.242188,0.023437 V 2.2264141 H 11.0405 c -0.703125,0 -0.703125,-0.09375 -0.703125,-0.328125 z m 0,0"
         style="fill:#000000;fill-opacity:1;fill-rule:nonzero;stroke:none" /></g><path
       id="path44"
       d="m -657.29608,297.18464 c 0,-10.32926 -8.37332,-18.70257 -18.70256,-18.70257 -10.32926,0 -18.70257,8.37331 -18.70257,18.70257 0,10.32927 8.37331,18.70258 18.70257,18.70258 10.32924,0 18.70256,-8.37331 18.70256,-18.70258 z"
       style="fill:#c0d0da;fill-opacity:1;fill-rule:nonzero;stroke:#00677f;stroke-width:1.06268;stroke-linecap:butt;stroke-linejoin:miter;stroke-miterlimit:10;stroke-dasharray:none;stroke-opacity:1" /><g
       id="g44"
       aria-label="N&#10;Ω&#10;2"
       transform="matrix(1.3333333,0,0,1.3333333,-686.18346,301.12157)"><path
         id="path45"
         d="M 7.5365938,-5.7543906 C 7.6303438,-6.1528281 7.806125,-6.4692344 8.603,-6.4926719 c 0.058594,0 0.1757813,-0.011719 0.1757813,-0.1992187 0,-0.011719 0,-0.1171875 -0.1289063,-0.1171875 -0.328125,0 -0.6796875,0.035156 -1.0078125,0.035156 -0.3398437,0 -0.6914062,-0.035156 -1.0195312,-0.035156 -0.058594,0 -0.1757813,0 -0.1757813,0.1992187 0,0.1171875 0.09375,0.1171875 0.1757813,0.1171875 0.5742187,0.011719 0.6796875,0.2109375 0.6796875,0.4335938 0,0.035156 -0.023437,0.1757812 -0.023437,0.2109375 l -1.125,4.4296875 -2.203125,-5.1914063 C 3.8803438,-6.7973594 3.868625,-6.8090781 3.63425,-6.8090781 H 2.2983125 c -0.1992187,0 -0.28125,0 -0.28125,0.1992187 0,0.1171875 0.082031,0.1171875 0.28125,0.1171875 0.046875,0 0.6679688,0 0.6679688,0.082031 l -1.3359375,5.3554687 c -0.09375,0.39843752 -0.2695313,0.71484377 -1.0664063,0.75000002 -0.0585938,0 -0.17578125,0 -0.17578125,0.19921875 0,0.0703125 0.046875,0.105468755 0.12890625,0.105468755 0.31640625,0 0.6679688,-0.035156255 0.9960938,-0.035156255 0.3398437,0 0.703125,0.035156255 1.03125,0.035156255 0.046875,0 0.1757812,0 0.1757812,-0.199218755 0,-0.10546875 -0.09375,-0.10546875 -0.1992187,-0.10546875 -0.5742188,-0.0234375 -0.65625,-0.24609375 -0.65625,-0.4453125 0,-0.0703125 0.011719,-0.1171875 0.035156,-0.22265625 l 1.324219,-5.26171847 c 0.035156,0.058594 0.035156,0.082031 0.082031,0.1757813 L 5.7905,-0.18798438 c 0.070312,0.1640625 0.09375,0.187500005 0.1875,0.187500005 0.1054688,0 0.1054688,-0.035156255 0.1640625,-0.210937505 z m 0,0"
         style="fill:#000000;fill-opacity:1;fill-rule:nonzero;stroke:none" /><path
         id="path46"
         d="M 14.365695,-4.7875938 H 14.13132 c 0,0.023437 -0.07031,0.3515625 -0.128906,0.5039063 -0.03516,0.1171875 -0.05859,0.1757812 -0.492187,0.1757812 h -0.585938 c 0.117188,-0.3984375 0.316406,-0.6679687 0.703125,-1.1835937 0.351563,-0.46875 0.65625,-0.9257813 0.65625,-1.4882813 0,-0.9375 -1.019531,-1.734375 -2.355469,-1.734375 -1.335937,0 -2.3437497,0.796875 -2.3437497,1.734375 0,0.609375 0.328125,1.0664063 0.8203127,1.7226563 0.199219,0.2578125 0.421875,0.5742187 0.539062,0.9492187 h -0.597656 c -0.4218749,0 -0.4453124,-0.058594 -0.4804687,-0.140625 -0.058594,-0.1289062 -0.140625,-0.5273437 -0.140625,-0.5390625 h -0.234375 l 0.2460938,1.171875 h 1.2539059 c 0.152344,0 0.199219,0 0.199219,-0.1523437 0,-0.5039063 -0.257812,-1.1015625 -0.398437,-1.4414063 -0.269532,-0.609375 -0.46875,-1.0664062 -0.46875,-1.5820312 0,-0.984375 0.796875,-1.5351563 1.605468,-1.5351563 0.820313,0 1.605469,0.5507813 1.605469,1.5351563 0,0.5273437 -0.210937,1.0078125 -0.445312,1.546875 -0.152344,0.3515625 -0.421875,0.9609375 -0.421875,1.4648437 0,0.1640625 0.04687,0.1640625 0.199218,0.1640625 h 1.253907 z m -2.844726,5.9941407 h -0.234375 c -0.02344,0.1523437 -0.08203,0.5625 -0.175781,0.6328125 -0.05859,0.035156 -0.597657,0.035156 -0.691407,0.035156 H 9.1303438 c 0.7382812,-0.6445312 0.9843752,-0.84375 1.3945312,-1.17187498 0.515625,-0.41015625 0.996094,-0.84375 0.996094,-1.5 0,-0.84375002 -0.738281,-1.35937502 -1.6289065,-1.35937502 -0.8671875,0 -1.453125,0.609375 -1.453125,1.24218752 0,0.36328125 0.3046875,0.3984375 0.375,0.3984375 0.1640625,0 0.375,-0.1171875 0.375,-0.375 0,-0.12890622 -0.058594,-0.36328122 -0.421875,-0.36328122 0.2226563,-0.5039063 0.6914063,-0.65625 1.0195313,-0.65625 0.7031252,0 1.0664062,0.5507812 1.0664062,1.11328122 0,0.609375 -0.433594,1.08984375 -0.65625,1.3359375 L 8.50925,2.2026406 C 8.438938,2.2612346 8.438938,2.2729526 8.438938,2.4721719 h 2.882812 z m 0,0"
         style="fill:#000000;fill-opacity:1;fill-rule:nonzero;stroke:none" /></g><path
       id="path53"
       d="m -657.29608,338.76019 c 0,-10.32926 -8.37332,-18.70256 -18.70256,-18.70256 -10.32926,0 -18.70257,8.3733 -18.70257,18.70256 0,10.32926 8.37331,18.70257 18.70257,18.70257 10.32924,0 18.70256,-8.37331 18.70256,-18.70257 z"
       style="fill:#c0d0da;fill-opacity:1;fill-rule:nonzero;stroke:#00677f;stroke-width:1.06268;stroke-linecap:butt;stroke-linejoin:miter;stroke-miterlimit:10;stroke-dasharray:none;stroke-opacity:1" /><g
       id="g53"
       aria-label="N&#10;Ω&#10;3"
       transform="matrix(1.3333333,0,0,1.3333333,-686.18346,342.69756)"><path
         id="path54"
         d="M 7.5365938,-5.7527969 C 7.6303438,-6.1512344 7.806125,-6.4676406 8.603,-6.4910781 c 0.058594,0 0.1757813,-0.011719 0.1757813,-0.1992188 0,-0.011719 0,-0.1171875 -0.1289063,-0.1171875 -0.328125,0 -0.6796875,0.035156 -1.0078125,0.035156 -0.3398437,0 -0.6914062,-0.035156 -1.0195312,-0.035156 -0.058594,0 -0.1757813,0 -0.1757813,0.1992188 0,0.1171875 0.09375,0.1171875 0.1757813,0.1171875 0.5742187,0.011719 0.6796875,0.2109375 0.6796875,0.4335937 0,0.035156 -0.023437,0.1757813 -0.023437,0.2109375 l -1.125,4.4296875 -2.203125,-5.1914062 C 3.8803438,-6.7957656 3.868625,-6.8074844 3.63425,-6.8074844 H 2.2983125 c -0.1992187,0 -0.28125,0 -0.28125,0.1992188 0,0.1171875 0.082031,0.1171875 0.28125,0.1171875 0.046875,0 0.6679688,0 0.6679688,0.082031 l -1.3359375,5.3554688 c -0.09375,0.39843747 -0.2695313,0.71484372 -1.0664063,0.74999997 -0.0585938,0 -0.17578125,0 -0.17578125,0.19921875 0,0.0703125 0.046875,0.10546875 0.12890625,0.10546875 0.31640625,0 0.6679688,-0.03515625 0.9960938,-0.03515625 0.3398437,0 0.703125,0.03515625 1.03125,0.03515625 0.046875,0 0.1757812,0 0.1757812,-0.19921875 0,-0.10546875 -0.09375,-0.10546875 -0.1992187,-0.10546875 -0.5742188,-0.0234375 -0.65625,-0.24609375 -0.65625,-0.4453125 0,-0.0703125 0.011719,-0.1171875 0.035156,-0.22265625 l 1.324219,-5.26171852 c 0.035156,0.058594 0.035156,0.082031 0.082031,0.1757812 L 5.7905,-0.18639063 c 0.070312,0.1640625 0.09375,0.1875 0.1875,0.1875 0.1054688,0 0.1054688,-0.03515625 0.1640625,-0.2109375 z m 0,0"
         style="fill:#000000;fill-opacity:1;fill-rule:nonzero;stroke:none" /><path
         id="path55"
         d="M 14.365695,-4.7889297 H 14.13132 c 0,0.023437 -0.07031,0.3515625 -0.128906,0.5039063 -0.03516,0.1171875 -0.05859,0.1757812 -0.492187,0.1757812 h -0.585938 c 0.117188,-0.3984375 0.316406,-0.6679687 0.703125,-1.1835937 0.351563,-0.46875 0.65625,-0.9257813 0.65625,-1.4882813 0,-0.9375 -1.019531,-1.734375 -2.355469,-1.734375 -1.335937,0 -2.3437497,0.796875 -2.3437497,1.734375 0,0.609375 0.328125,1.0664063 0.8203127,1.7226563 0.199219,0.2578125 0.421875,0.5742187 0.539062,0.9492187 h -0.597656 c -0.4218749,0 -0.4453124,-0.058594 -0.4804687,-0.140625 -0.058594,-0.1289062 -0.140625,-0.5273437 -0.140625,-0.5390625 h -0.234375 l 0.2460938,1.171875 h 1.2539059 c 0.152344,0 0.199219,0 0.199219,-0.1523437 0,-0.5039063 -0.257812,-1.1015625 -0.398437,-1.4414063 -0.269532,-0.609375 -0.46875,-1.0664062 -0.46875,-1.5820312 0,-0.984375 0.796875,-1.5351563 1.605468,-1.5351563 0.820313,0 1.605469,0.5507813 1.605469,1.5351563 0,0.5273437 -0.210937,1.0078125 -0.445312,1.546875 -0.152344,0.3515625 -0.421875,0.9609375 -0.421875,1.4648437 0,0.1640625 0.04687,0.1640625 0.199218,0.1640625 h 1.253907 z M 9.9037813,0.13880469 c 0.5507817,0 0.9374997,0.375 0.9374997,1.12500001 0,0.8671875 -0.503906,1.125 -0.9023435,1.125 -0.28125,0 -0.890625,-0.082031 -1.1835937,-0.4921875 0.328125,-0.011719 0.3984375,-0.2460938 0.3984375,-0.3867188 0,-0.2226562 -0.1640625,-0.3867187 -0.3867188,-0.3867187 -0.1875,0 -0.3867187,0.1171875 -0.3867187,0.4101562 0,0.65625 0.7265625,1.078125 1.5703125,1.078125 0.9726567,0 1.6406247,-0.6445312 1.6406247,-1.3476562 0,-0.53906251 -0.445312,-1.08984376 -1.21875,-1.24218751 0.738282,-0.26953125 0.996094,-0.796875 0.996094,-1.21874999 0,-0.5507813 -0.632812,-0.9609375 -1.40625,-0.9609375 -0.7734375,0 -1.359375,0.375 -1.359375,0.9375 0,0.23437499 0.1523438,0.36328124 0.3632813,0.36328124 0.2109375,0 0.3515625,-0.16406254 0.3515625,-0.35156254 0,-0.1992187 -0.140625,-0.3515625 -0.3515625,-0.3632812 0.234375,-0.3046875 0.7148437,-0.3867188 0.9726562,-0.3867188 0.3164065,0 0.7617185,0.1523438 0.7617185,0.7617188 0,0.29296874 -0.105468,0.60937499 -0.28125,0.83203124 -0.234375,0.2578125 -0.4218747,0.28125 -0.7734372,0.29296875 -0.1757813,0.0234375 -0.1875,0.0234375 -0.2226563,0.0234375 -0.011719,0 -0.070312,0.01171875 -0.070312,0.09375 0,0.09375 0.058594,0.09375 0.1757813,0.09375 z m 0,0"
         style="fill:#000000;fill-opacity:1;fill-rule:nonzero;stroke:none" /></g><path
       id="path62"
       d="m -657.29608,380.33574 c 0,-10.32925 -8.37332,-18.70256 -18.70256,-18.70256 -10.32926,0 -18.70257,8.37331 -18.70257,18.70256 0,10.32927 8.37331,18.70258 18.70257,18.70258 10.32924,0 18.70256,-8.37331 18.70256,-18.70258 z"
       style="fill:#c0d0da;fill-opacity:1;fill-rule:nonzero;stroke:#00677f;stroke-width:1.06268;stroke-linecap:butt;stroke-linejoin:miter;stroke-miterlimit:10;stroke-dasharray:none;stroke-opacity:1" /><g
       id="g62"
       aria-label="N&#10;Ω&#10;4"
       transform="matrix(1.3333333,0,0,1.3333333,-686.18346,384.27223)"><path
         id="path63"
         d="M 7.5365938,-5.7531328 C 7.6303438,-6.1515703 7.806125,-6.4679766 8.603,-6.4914141 c 0.058594,0 0.1757813,-0.011719 0.1757813,-0.1992187 0,-0.011719 0,-0.1171875 -0.1289063,-0.1171875 -0.328125,0 -0.6796875,0.035156 -1.0078125,0.035156 -0.3398437,0 -0.6914062,-0.035156 -1.0195312,-0.035156 -0.058594,0 -0.1757813,0 -0.1757813,0.1992187 0,0.1171875 0.09375,0.1171875 0.1757813,0.1171875 0.5742187,0.011719 0.6796875,0.2109375 0.6796875,0.4335938 0,0.035156 -0.023437,0.1757812 -0.023437,0.2109375 l -1.125,4.4296875 -2.203125,-5.1914063 C 3.8803438,-6.7961016 3.868625,-6.8078203 3.63425,-6.8078203 H 2.2983125 c -0.1992187,0 -0.28125,0 -0.28125,0.1992187 0,0.1171875 0.082031,0.1171875 0.28125,0.1171875 0.046875,0 0.6679688,0 0.6679688,0.082031 l -1.3359375,5.3554687 c -0.09375,0.39843754 -0.2695313,0.71484379 -1.0664063,0.75000004 -0.0585938,0 -0.17578125,0 -0.17578125,0.19921875 0,0.0703125 0.046875,0.1054687475 0.12890625,0.1054687475 0.31640625,0 0.6679688,-0.0351562475 0.9960938,-0.0351562475 0.3398437,0 0.703125,0.0351562475 1.03125,0.0351562475 0.046875,0 0.1757812,0 0.1757812,-0.1992187475 0,-0.10546875 -0.09375,-0.10546875 -0.1992187,-0.10546875 -0.5742188,-0.0234375 -0.65625,-0.24609375 -0.65625,-0.4453125 0,-0.0703125 0.011719,-0.1171875 0.035156,-0.22265625 l 1.324219,-5.26171849 c 0.035156,0.058594 0.035156,0.082031 0.082031,0.1757813 L 5.7905,-0.18672656 c 0.070312,0.1640625 0.09375,0.1874999975 0.1875,0.1874999975 0.1054688,0 0.1054688,-0.0351562475 0.1640625,-0.2109374975 z m 0,0"
         style="fill:#000000;fill-opacity:1;fill-rule:nonzero;stroke:none" /><path
         id="path64"
         d="M 14.365695,-4.7892656 H 14.13132 c 0,0.023437 -0.07031,0.3515625 -0.128906,0.5039062 -0.03516,0.1171875 -0.05859,0.1757813 -0.492187,0.1757813 h -0.585938 c 0.117188,-0.3984375 0.316406,-0.6679688 0.703125,-1.1835938 0.351563,-0.46875 0.65625,-0.9257812 0.65625,-1.4882812 0,-0.9375 -1.019531,-1.734375 -2.355469,-1.734375 -1.335937,0 -2.3437497,0.796875 -2.3437497,1.734375 0,0.609375 0.328125,1.0664062 0.8203127,1.7226562 0.199219,0.2578125 0.421875,0.5742188 0.539062,0.9492188 h -0.597656 c -0.4218749,0 -0.4453124,-0.058594 -0.4804687,-0.140625 -0.058594,-0.1289063 -0.140625,-0.5273438 -0.140625,-0.5390625 h -0.234375 l 0.2460938,1.171875 h 1.2539059 c 0.152344,0 0.199219,0 0.199219,-0.1523438 0,-0.5039062 -0.257812,-1.1015625 -0.398437,-1.4414062 -0.269532,-0.609375 -0.46875,-1.0664063 -0.46875,-1.5820313 0,-0.984375 0.796875,-1.5351562 1.605468,-1.5351562 0.820313,0 1.605469,0.5507812 1.605469,1.5351562 0,0.5273438 -0.210937,1.0078125 -0.445312,1.546875 -0.152344,0.3515625 -0.421875,0.9609375 -0.421875,1.4648438 0,0.1640625 0.04687,0.1640625 0.199218,0.1640625 h 1.253907 z M 11.69675,1.3249922 V 1.0788984 h -0.773437 v -3.1054687 c 0,-0.1523438 0,-0.1992188 -0.152344,-0.1992188 -0.09375,0 -0.117188,0 -0.1875,0.09375 L 8.274875,1.0788984 v 0.2460938 h 2.050781 v 0.5742187 c 0,0.234375 0,0.328125 -0.5624997,0.328125 h -0.1875 v 0.2460938 c 0.3515625,-0.011719 0.7968747,-0.023437 1.0429687,-0.023437 0.257813,0 0.703125,0.011719 1.054688,0.023437 V 2.2273359 h -0.1875 c -0.5625,0 -0.5625,-0.09375 -0.5625,-0.328125 V 1.3249922 Z M 10.372531,-1.4757891 V 1.0788984 H 8.5326875 Z m 0,0"
         style="fill:#000000;fill-opacity:1;fill-rule:nonzero;stroke:none" /></g><path
       id="path71"
       d="m -656.71752,437.02937 c 0,-10.64881 -8.63232,-19.28115 -19.28112,-19.28115 -10.6488,0 -19.28114,8.63234 -19.28114,19.28115 0,10.6488 8.63234,19.28112 19.28114,19.28112 10.6488,0 19.28112,-8.63232 19.28112,-19.28112 z"
       style="fill:#c0d0da;fill-opacity:1;fill-rule:nonzero;stroke:#00677f;stroke-width:1.06268;stroke-linecap:butt;stroke-linejoin:miter;stroke-miterlimit:10;stroke-dasharray:none;stroke-opacity:1" /><g
       id="g71"
       aria-label="N&#10;Ω&#10;p"
       transform="matrix(1.3333333,0,0,1.3333333,-686.18346,440.0669)"><path
         id="path72"
         d="M 7.5365938,-5.7544063 C 7.6303438,-6.1528438 7.806125,-6.46925 8.603,-6.4926875 c 0.058594,0 0.1757813,-0.011719 0.1757813,-0.1992188 0,-0.011719 0,-0.1171875 -0.1289063,-0.1171875 -0.328125,0 -0.6796875,0.035156 -1.0078125,0.035156 -0.3398437,0 -0.6914062,-0.035156 -1.0195312,-0.035156 -0.058594,0 -0.1757813,0 -0.1757813,0.1992188 0,0.1171875 0.09375,0.1171875 0.1757813,0.1171875 0.5742187,0.011719 0.6796875,0.2109375 0.6796875,0.4335937 0,0.035156 -0.023437,0.1757813 -0.023437,0.2109375 l -1.125,4.4296875 -2.203125,-5.1914062 C 3.8803438,-6.797375 3.868625,-6.8090938 3.63425,-6.8090938 H 2.2983125 c -0.1992187,0 -0.28125,0 -0.28125,0.1992188 0,0.1171875 0.082031,0.1171875 0.28125,0.1171875 0.046875,0 0.6679688,0 0.6679688,0.082031 l -1.3359375,5.3554688 c -0.09375,0.3984375 -0.2695313,0.71484375 -1.0664063,0.75 -0.0585938,0 -0.17578125,0 -0.17578125,0.19921875 0,0.0703125 0.046875,0.10546875 0.12890625,0.10546875 0.31640625,0 0.6679688,-0.03515625 0.9960938,-0.03515625 0.3398437,0 0.703125,0.03515625 1.03125,0.03515625 0.046875,0 0.1757812,0 0.1757812,-0.19921875 0,-0.10546875 -0.09375,-0.10546875 -0.1992187,-0.10546875 C 1.94675,-0.328625 1.8647188,-0.55128125 1.8647188,-0.7505 c 0,-0.0703125 0.011719,-0.1171875 0.035156,-0.22265625 L 3.2240938,-6.234875 c 0.035156,0.058594 0.035156,0.082031 0.082031,0.1757812 L 5.7905,-0.188 c 0.070312,0.1640625 0.09375,0.1875 0.1875,0.1875 0.1054688,0 0.1054688,-0.03515625 0.1640625,-0.2109375 z m 0,0"
         style="fill:#000000;fill-opacity:1;fill-rule:nonzero;stroke:none" /><path
         id="path73"
         d="M 14.365695,-4.7876094 H 14.13132 c 0,0.023437 -0.07031,0.3515625 -0.128906,0.5039063 -0.03516,0.1171875 -0.05859,0.1757812 -0.492187,0.1757812 h -0.585938 c 0.117188,-0.3984375 0.316406,-0.6679687 0.703125,-1.1835937 0.351563,-0.46875 0.65625,-0.9257813 0.65625,-1.4882813 0,-0.9375 -1.019531,-1.734375 -2.355469,-1.734375 -1.335937,0 -2.3437497,0.796875 -2.3437497,1.734375 0,0.609375 0.328125,1.0664063 0.8203127,1.7226563 0.199219,0.2578125 0.421875,0.5742187 0.539062,0.9492187 h -0.597656 c -0.4218749,0 -0.4453124,-0.058594 -0.4804687,-0.140625 -0.058594,-0.1289062 -0.140625,-0.5273437 -0.140625,-0.5390625 h -0.234375 l 0.2460938,1.171875 h 1.2539059 c 0.152344,0 0.199219,0 0.199219,-0.1523437 0,-0.5039063 -0.257812,-1.1015625 -0.398437,-1.4414063 -0.269532,-0.609375 -0.46875,-1.0664062 -0.46875,-1.5820312 0,-0.984375 0.796875,-1.5351563 1.605468,-1.5351563 0.820313,0 1.605469,0.5507813 1.605469,1.5351563 0,0.5273437 -0.210937,1.0078125 -0.445312,1.546875 -0.152344,0.3515625 -0.421875,0.9609375 -0.421875,1.4648437 0,0.1640625 0.04687,0.1640625 0.199218,0.1640625 h 1.253907 z m 0,0"
         style="fill:#000000;fill-opacity:1;fill-rule:nonzero;stroke:none" /><path
         id="path74"
         d="m 8.5326875,3.3188359 c -0.058594,0.1875 -0.070312,0.2460938 -0.3515625,0.2460938 -0.082031,0 -0.1875,0 -0.1875,0.1523437 0,0.070312 0.070312,0.09375 0.1054688,0.09375 0.1757812,0 0.4101562,-0.023437 0.5976562,-0.023437 0.234375,0 0.5039063,0.023437 0.7265625,0.023437 0.070312,0 0.140625,-0.011719 0.140625,-0.1523437 0,-0.09375 -0.09375,-0.09375 -0.1757812,-0.09375 -0.1523438,0 -0.3398438,0 -0.3398438,-0.082031 0,-0.035156 0.046875,-0.2226562 0.070312,-0.3164062 0.082031,-0.375 0.1875,-0.75 0.2578125,-1.0429688 0.082031,0.140625 0.3046875,0.4101563 0.726562,0.4101563 0.84375,0 1.78125,-0.9375 1.78125,-1.98046876 0,-0.8203125 -0.5625,-1.16015625 -1.042968,-1.16015625 -0.433593,0 -0.796875,0.29296875 -0.9843752,0.48046875 -0.1171875,-0.3984375 -0.515625,-0.48046875 -0.7265625,-0.48046875 -0.2695313,0 -0.4335938,0.17578125 -0.5507813,0.36328125 -0.140625,0.234375 -0.2460937,0.65625 -0.2460937,0.703125 0,0.0820313 0.09375,0.0820313 0.1171875,0.0820313 0.09375,0 0.1054687,-0.0117188 0.1523437,-0.19921875 0.1054688,-0.41015625 0.234375,-0.76171875 0.515625,-0.76171875 0.1757813,0 0.2226563,0.15234375 0.2226563,0.33984375 0,0.08203125 -0.011719,0.17578125 -0.023437,0.2109375 z m 1.3125,-3.09374996 c 0.4101565,-0.5390625 0.7500005,-0.64453125 0.9726565,-0.64453125 0.28125,0 0.515625,0.2109375 0.515625,0.6796875 0,0.28125 -0.152344,0.99609371 -0.363281,1.40625001 -0.175782,0.3398437 -0.515625,0.6679687 -0.867188,0.6679687 -0.5039062,0 -0.6210937,-0.5390625 -0.6210937,-0.5976562 0,-0.035156 0.011719,-0.082031 0.011719,-0.1054688 z m 0,0"
         style="fill:#000000;fill-opacity:1;fill-rule:nonzero;stroke:none" /></g><path
       id="path75"
       d="m -675.99864,399.56966 v 17.64723"
       style="fill:none;stroke:#00677f;stroke-width:1.59404;stroke-linecap:butt;stroke-linejoin:miter;stroke-miterlimit:10;stroke-dasharray:1.59404, 2.65673;stroke-dashoffset:0;stroke-opacity:1" /><path
       id="path162"
       d="m -577.45712,358.57121 c 0,-12.67512 -10.27495,-22.95005 -22.95003,-22.95005 -12.67512,0 -22.95005,10.27493 -22.95005,22.95005 0,12.67511 10.27493,22.95003 22.95005,22.95003 12.67508,0 22.95003,-10.27492 22.95003,-22.95003 z"
       style="fill:#c0d0da;fill-opacity:1;fill-rule:nonzero;stroke:#00677f;stroke-width:1.06268;stroke-linecap:butt;stroke-linejoin:miter;stroke-miterlimit:10;stroke-dasharray:none;stroke-opacity:1" /><path
       id="path163"
       d="m -612.27215,354.31156 h 7.604"
       style="fill:none;stroke:#000000;stroke-width:0.530667;stroke-linecap:butt;stroke-linejoin:miter;stroke-miterlimit:10;stroke-dasharray:none;stroke-opacity:1" /><g
       id="g163"
       aria-label="u&#10;1&#10;(x)"
       transform="matrix(1.3333333,0,0,1.3333333,-616.1528,361.89023)"><path
         id="path164"
         d="m 6.4016171,-0.56386719 c 0.1054688,0.41015625 0.4570313,0.66796875 0.8789063,0.66796875 0.3515625,0 0.5742187,-0.22265625 0.7382812,-0.5390625 0.1757813,-0.36328125 0.3046875,-0.97265626 0.3046875,-0.99609376 0,-0.09375 -0.09375,-0.09375 -0.1289062,-0.09375 -0.09375,0 -0.1054688,0.035156 -0.140625,0.1757813 -0.1289063,0.56249996 -0.328125,1.24218746 -0.7382813,1.24218746 -0.2109375,0 -0.3164062,-0.12890625 -0.3164062,-0.45703125 0,-0.22265625 0.1289062,-0.69140621 0.1992187,-1.04296871 l 0.28125,-1.078125 c 0.035156,-0.140625 0.1289063,-0.5273438 0.1757813,-0.6679688 0.046875,-0.234375 0.140625,-0.609375 0.140625,-0.6679687 0,-0.1875 -0.140625,-0.2695313 -0.28125,-0.2695313 -0.058594,0 -0.3164063,0 -0.3867188,0.3398438 -0.1992187,0.7265625 -0.6328125,2.4726562 -0.75,2.99999996 -0.011719,0.046875 -0.4101562,0.84375 -1.1367187,0.84375 -0.515625,0 -0.6210938,-0.45703125 -0.6210938,-0.8203125 0,-0.56249996 0.28125,-1.34765626 0.5390625,-2.02734376 0.1171875,-0.3046875 0.1757813,-0.4453125 0.1757813,-0.6328125 0,-0.4453125 -0.328125,-0.8203125 -0.8203125,-0.8203125 -0.9492188,0 -1.3125,1.453125 -1.3125,1.5351563 0,0.1054687 0.09375,0.1054687 0.1171875,0.1054687 0.09375,0 0.1054687,-0.023437 0.1523437,-0.1875 0.2578125,-0.8671875 0.6328125,-1.2304687 1.0078125,-1.2304687 0.09375,0 0.2578125,0.011719 0.2578125,0.328125 0,0.234375 -0.1171875,0.5273437 -0.1757812,0.6796875 -0.3632813,0.984375 -0.5742188,1.6054687 -0.5742188,2.0859375 0,0.94921871 0.6796875,1.19531246 1.21875,1.19531246 0.65625,0 1.0195313,-0.4453125 1.1953125,-0.66796875 z m 0,0"
         style="fill:#000000;fill-opacity:1;fill-rule:nonzero;stroke:none" /><path
         id="path166"
         d="m 12.713122,2.3892578 c 0,-0.035156 0,-0.046875 -0.164063,-0.2226562 -1.242187,-1.25390629 -1.570312,-3.12890629 -1.570312,-4.6640625 0,-1.7226563 0.386719,-3.4570313 1.605469,-4.7109375 0.128906,-0.1171875 0.128906,-0.1289063 0.128906,-0.1640625 0,-0.070312 -0.03516,-0.1054688 -0.09375,-0.1054688 -0.105469,0 -0.996094,0.6796875 -1.582031,1.9453125 -0.515625,1.1015625 -0.632813,2.203125 -0.632813,3.0351563 0,0.7851562 0.117188,1.99218746 0.65625,3.11718746 0.597656,1.21875004 1.453125,1.87500004 1.558594,1.87500004 0.05859,0 0.09375,-0.035156 0.09375,-0.1054688 z m 0,0"
         style="fill:#000000;fill-opacity:1;fill-rule:nonzero;stroke:none" /><path
         id="path167"
         d="m 16.621325,-3.0130859 c 0.05859,-0.2578125 0.292969,-1.171875 0.984375,-1.171875 0.04687,0 0.292969,0 0.503906,0.1289062 -0.28125,0.046875 -0.480469,0.3046875 -0.480469,0.5390625 0,0.1640625 0.105469,0.3515625 0.375,0.3515625 0.222657,0 0.539063,-0.1875 0.539063,-0.5859375 0,-0.515625 -0.585938,-0.65625 -0.925781,-0.65625 -0.574219,0 -0.925782,0.5273438 -1.042969,0.7617188 -0.257813,-0.65625 -0.785156,-0.7617188 -1.078125,-0.7617188 -1.042969,0 -1.605469,1.2890625 -1.605469,1.5351563 0,0.1054687 0.105469,0.1054687 0.117188,0.1054687 0.08203,0 0.117187,-0.023437 0.128906,-0.1171875 0.339844,-1.0546875 0.996094,-1.3007812 1.335937,-1.3007812 0.1875,0 0.539063,0.09375 0.539063,0.6679687 0,0.3046875 -0.164063,0.9726563 -0.539063,2.3671875 -0.152343,0.62109376 -0.503906,1.04296876 -0.949218,1.04296876 -0.05859,0 -0.28125,0 -0.492188,-0.12890625 0.246094,-0.0585938 0.46875,-0.26953125 0.46875,-0.5390625 0,-0.26953121 -0.222656,-0.35156251 -0.375,-0.35156251 -0.292969,0 -0.539062,0.25781251 -0.539062,0.57421876 0,0.45703125 0.492187,0.65625 0.9375,0.65625 0.65625,0 1.007812,-0.69140625 1.042968,-0.75 0.117188,0.36328125 0.480469,0.75 1.078125,0.75 1.019532,0 1.59375,-1.27734376 1.59375,-1.53515626 0,-0.09375 -0.09375,-0.09375 -0.128906,-0.09375 -0.08203,0 -0.105469,0.035156 -0.128906,0.1054688 -0.328125,1.06640621 -0.996094,1.31249996 -1.324219,1.31249996 -0.386719,0 -0.539062,-0.328125 -0.539062,-0.65625 0,-0.22265625 0.05859,-0.44531246 0.164062,-0.87890626 z m 0,0"
         style="fill:#000000;fill-opacity:1;fill-rule:nonzero;stroke:none" /><path
         id="path168"
         d="m 21.871325,-2.4974609 c 0,-0.7734375 -0.117188,-1.9804688 -0.65625,-3.1054688 -0.597656,-1.21875 -1.464844,-1.875 -1.558594,-1.875 -0.05859,0 -0.105469,0.046875 -0.105469,0.1054688 0,0.035156 0,0.046875 0.199219,0.234375 0.972656,0.984375 1.535156,2.5664062 1.535156,4.640625 0,1.71093746 -0.363281,3.45703121 -1.59375,4.7226562 -0.140625,0.1171875 -0.140625,0.1289063 -0.140625,0.1640625 0,0.058594 0.04687,0.1054688 0.105469,0.1054688 0.09375,0 0.996094,-0.6796875 1.582031,-1.94531254 0.503907,-1.1015625 0.632813,-2.20312496 0.632813,-3.04687496 z m 0,0"
         style="fill:#000000;fill-opacity:1;fill-rule:nonzero;stroke:none" /></g><path
       id="path308"
       d="m -742.7058,352.33431 55.7883,-80.89252"
       style="fill:none;stroke:#01426a;stroke-width:1.06268;stroke-linecap:butt;stroke-linejoin:miter;stroke-miterlimit:10;stroke-dasharray:none;stroke-opacity:1" /><path
       id="path309"
       d="m -739.95824,354.74781 49.6636,-44.69673"
       style="fill:none;stroke:#01426a;stroke-width:1.06268;stroke-linecap:butt;stroke-linejoin:miter;stroke-miterlimit:10;stroke-dasharray:none;stroke-opacity:1" /><path
       id="path310"
       d="m -736.81977,360.04713 42.66783,-14.93357"
       style="fill:none;stroke:#01426a;stroke-width:1.06268;stroke-linecap:butt;stroke-linejoin:miter;stroke-miterlimit:10;stroke-dasharray:none;stroke-opacity:1" /><path
       id="path311"
       d="m -736.24522,368.2855 41.38717,8.27838"
       style="fill:none;stroke:#01426a;stroke-width:1.06268;stroke-linecap:butt;stroke-linejoin:miter;stroke-miterlimit:10;stroke-dasharray:none;stroke-opacity:1" /><path
       id="path312"
       d="m -740.2448,375.99474 49.8829,47.38936"
       style="fill:none;stroke:#01426a;stroke-width:1.06268;stroke-linecap:butt;stroke-linejoin:miter;stroke-miterlimit:10;stroke-dasharray:none;stroke-opacity:1" /></g></svg>
