<?xml version="1.0" encoding="UTF-8" standalone="no"?>
<!-- Created with Inkscape (http://www.inkscape.org/) -->

<svg
   width="297mm"
   height="71.17244mm"
   viewBox="0 0 297 71.17244"
   version="1.1"
   id="svg1"
   inkscape:version="1.3.2 (091e20e, 2023-11-25)"
   sodipodi:docname="ENSTA_logo.svg"
   xmlns:inkscape="http://www.inkscape.org/namespaces/inkscape"
   xmlns:sodipodi="http://sodipodi.sourceforge.net/DTD/sodipodi-0.dtd"
   xmlns="http://www.w3.org/2000/svg"
   xmlns:svg="http://www.w3.org/2000/svg">
  <sodipodi:namedview
     id="namedview1"
     pagecolor="#ffffff"
     bordercolor="#000000"
     borderopacity="0.25"
     inkscape:showpageshadow="2"
     inkscape:pageopacity="0.0"
     inkscape:pagecheckerboard="0"
     inkscape:deskcolor="#d1d1d1"
     inkscape:document-units="mm"
     inkscape:zoom="0.76273429"
     inkscape:cx="1304.5172"
     inkscape:cy="495.58543"
     inkscape:window-width="3008"
     inkscape:window-height="1639"
     inkscape:window-x="0"
     inkscape:window-y="25"
     inkscape:window-maximized="1"
     inkscape:current-layer="layer1" />
  <defs
     id="defs1" />
  <g
     inkscape:label="Layer 1"
     inkscape:groupmode="layer"
     id="layer1"
     transform="translate(-3.4664e-5,-69.413782)">
    <g
       id="g106"
       style="fill:#3747ff;fill-opacity:1"
       inkscape:export-filename="../../../../Presentations/2025/ENSTA/Figures/ENSTA_logo.svg"
       inkscape:export-xdpi="96"
       inkscape:export-ydpi="96"
       transform="matrix(5.9758552,0,0,5.9758552,-1637.8026,-79.743564)">
      <polygon
         points="282.83,36.86 282.83,33.89 277.23,33.89 277.23,32.25 281.77,32.25 281.77,29.38 277.23,29.38 277.23,27.94 282.83,27.94 282.83,24.96 274.07,24.96 274.07,36.86 "
         id="polygon103"
         style="fill:#3747ff;fill-opacity:1" />
      <path
         d="m 291.88,24.96 c 0,0 0,8.2 0,8.33 h -0.04 l -2.88,-8.33 h -5.06 v 11.9 h 3.16 v -8.61 h 0.04 l 3.15,8.61 h 4.79 v -11.9 h -3.15 z"
         id="path104"
         style="fill:#3747ff;fill-opacity:1" />
      <path
         d="m 301.94,36.86 h -5.85 v -2.98 h 5.56 c 0.57,0 0.7,-0.81 0.15,-0.98 l -3.48,-1.07 c -3.86,-1.19 -3,-6.87 1.04,-6.87 h 4.61 v 2.98 h -4.58 c -0.57,0 -0.7,0.81 -0.15,0.98 l 3.73,1.15 c 3.81,1.18 2.97,6.8 -1.02,6.8 v 0 z"
         id="path105"
         style="fill:#3747ff;fill-opacity:1" />
      <path
         d="m 323.75,32.99 v -5.03 c 0,-1.66 -1.35,-3 -3,-3 h -5.08 v 2.98 h 3.16 l -3.32,2.83 c -2.45,2.09 -0.97,6.09 2.25,6.09 h 6.01 v -2.98 h -6.01 c -0.45,0 -0.67,-0.56 -0.34,-0.87 l 3.31,-3.04 v 3.01 h 3.03 v 0 z"
         id="path106"
         style="fill:#3747ff;fill-opacity:1" />
      <polygon
         points="311.4,36.86 311.4,27.94 314.71,27.94 314.71,24.96 304.92,24.96 304.92,27.94 308.24,27.94 308.24,36.86 "
         id="polygon106"
         style="fill:#3747ff;fill-opacity:1" />
    </g>
  </g>
</svg>
