<?xml version="1.0" encoding="UTF-8" standalone="no"?>
<!-- Created with Inkscape (http://www.inkscape.org/) -->

<svg
   width="146.28754mm"
   height="155.1823mm"
   viewBox="0 0 146.28754 155.1823"
   version="1.1"
   id="svg1"
   xml:space="preserve"
   inkscape:version="1.3.2 (091e20e, 2023-11-25)"
   sodipodi:docname="Omega.svg"
   xmlns:inkscape="http://www.inkscape.org/namespaces/inkscape"
   xmlns:sodipodi="http://sodipodi.sourceforge.net/DTD/sodipodi-0.dtd"
   xmlns="http://www.w3.org/2000/svg"
   xmlns:svg="http://www.w3.org/2000/svg"
   xmlns:ns1="http://www.iki.fi/pav/software/textext/"><sodipodi:namedview
     id="namedview1"
     pagecolor="#ffffff"
     bordercolor="#000000"
     borderopacity="0.25"
     inkscape:showpageshadow="2"
     inkscape:pageopacity="0.0"
     inkscape:pagecheckerboard="0"
     inkscape:deskcolor="#d1d1d1"
     inkscape:document-units="mm"
     inkscape:zoom="0.80951809"
     inkscape:cx="304.50215"
     inkscape:cy="449.65024"
     inkscape:window-width="1920"
     inkscape:window-height="1147"
     inkscape:window-x="0"
     inkscape:window-y="25"
     inkscape:window-maximized="1"
     inkscape:current-layer="g1" /><defs
     id="defs1" /><g
     id="g1"
     inkscape:groupmode="layer"
     inkscape:label="1"
     transform="matrix(0.264583,0,0,0.264583,191.04989,-57.372977)"><path
       id="path1"
       d="m -459.30877,293.54558 c -88.70266,-2.432 -279.63092,50.14533 -206.07306,148.49466 103.98907,139.032 51.27027,99.79733 99.62507,222.06266 71.94799,181.90146 266.71866,37.2348 368.07332,-66.5 88.18133,-90.24533 -40.84933,-297.99466 -261.62533,-304.05732 z"
       style="fill:none;stroke:#000000;stroke-width:1;stroke-linecap:butt;stroke-linejoin:miter;stroke-miterlimit:4;stroke-dasharray:none;stroke-opacity:1"
       inkscape:export-filename="Omega.pdf"
       inkscape:export-xdpi="96"
       inkscape:export-ydpi="96" /><path
       id="path2"
       d="m -597.69956,551.13357 c 18.2868,82.05733 419.28679,81.63066 425.77612,-5.552"
       style="fill:none;stroke:#000000;stroke-width:1;stroke-linecap:butt;stroke-linejoin:miter;stroke-miterlimit:4;stroke-dasharray:none;stroke-opacity:1" /><path
       id="path3"
       d="m -597.69956,551.13357 c -6.75987,-89.93733 414.52545,-105.88 425.77612,-5.552"
       style="fill:none;stroke:#000000;stroke-width:1.00157;stroke-linecap:butt;stroke-linejoin:miter;stroke-miterlimit:4;stroke-dasharray:6.00945, 2.00315;stroke-dashoffset:0;stroke-opacity:1" /><path
       id="path4"
       d="m -565.71543,662.90023 -20.26533,26.16667"
       style="fill:none;stroke:#000000;stroke-width:0.588569;stroke-linecap:butt;stroke-linejoin:miter;stroke-miterlimit:4;stroke-dasharray:none;stroke-opacity:1" /><path
       id="path5"
       d="m -558.5741,681.22317 -20.26133,26.17186"
       style="fill:none;stroke:#000000;stroke-width:0.588569;stroke-linecap:butt;stroke-linejoin:miter;stroke-miterlimit:4;stroke-dasharray:none;stroke-opacity:1" /><path
       id="path6"
       d="m -550.0021,697.29503 -20.26533,26.16667"
       style="fill:none;stroke:#000000;stroke-width:0.588569;stroke-linecap:butt;stroke-linejoin:miter;stroke-miterlimit:4;stroke-dasharray:none;stroke-opacity:1" /><path
       id="path7"
       d="m -539.6421,711.22317 -20.26533,26.17186"
       style="fill:none;stroke:#000000;stroke-width:0.588569;stroke-linecap:butt;stroke-linejoin:miter;stroke-miterlimit:4;stroke-dasharray:none;stroke-opacity:1" /><path
       id="path8"
       d="m -528.5741,723.3685 -20.26133,26.16666"
       style="fill:none;stroke:#000000;stroke-width:0.588569;stroke-linecap:butt;stroke-linejoin:miter;stroke-miterlimit:4;stroke-dasharray:none;stroke-opacity:1" /><path
       id="path9"
       d="m -516.0741,733.3685 -20.26133,26.16666"
       style="fill:none;stroke:#000000;stroke-width:0.588569;stroke-linecap:butt;stroke-linejoin:miter;stroke-miterlimit:4;stroke-dasharray:none;stroke-opacity:1" /><path
       id="path10"
       d="m -501.42877,741.9361 -20.26533,26.17186"
       style="fill:none;stroke:#000000;stroke-width:0.588569;stroke-linecap:butt;stroke-linejoin:miter;stroke-miterlimit:4;stroke-dasharray:none;stroke-opacity:1" /><path
       id="path11"
       d="m -485.35543,748.00956 -20.26534,26.16667"
       style="fill:none;stroke:#000000;stroke-width:0.588569;stroke-linecap:butt;stroke-linejoin:miter;stroke-miterlimit:4;stroke-dasharray:none;stroke-opacity:1" /><path
       id="path12"
       d="m -466.42877,750.1549 -20.26533,26.16666"
       style="fill:none;stroke:#000000;stroke-width:0.588569;stroke-linecap:butt;stroke-linejoin:miter;stroke-miterlimit:4;stroke-dasharray:none;stroke-opacity:1" /><path
       id="path13"
       d="m -446.42877,750.8685 -20.26533,26.16666"
       style="fill:none;stroke:#000000;stroke-width:0.588569;stroke-linecap:butt;stroke-linejoin:miter;stroke-miterlimit:4;stroke-dasharray:none;stroke-opacity:1" /><path
       id="path14"
       d="m -427.85543,748.3685 -20.26667,26.16666"
       style="fill:none;stroke:#000000;stroke-width:0.588569;stroke-linecap:butt;stroke-linejoin:miter;stroke-miterlimit:4;stroke-dasharray:none;stroke-opacity:1" /><path
       id="path15"
       d="m -407.85543,742.6549 -20.26667,26.16666"
       style="fill:none;stroke:#000000;stroke-width:0.588569;stroke-linecap:butt;stroke-linejoin:miter;stroke-miterlimit:4;stroke-dasharray:none;stroke-opacity:1" /><path
       id="path16"
       d="m -387.5021,736.22316 -20.26533,26.17187"
       style="fill:none;stroke:#000000;stroke-width:0.588569;stroke-linecap:butt;stroke-linejoin:miter;stroke-miterlimit:4;stroke-dasharray:none;stroke-opacity:1" /><path
       id="path17"
       d="m -367.1421,727.29503 -20.26533,26.16667"
       style="fill:none;stroke:#000000;stroke-width:0.588569;stroke-linecap:butt;stroke-linejoin:miter;stroke-miterlimit:4;stroke-dasharray:none;stroke-opacity:1" /><path
       id="path18"
       d="m -345.80344,715.48823 -20.26533,26.16667"
       style="fill:none;stroke:#000000;stroke-width:0.588569;stroke-linecap:butt;stroke-linejoin:miter;stroke-miterlimit:4;stroke-dasharray:none;stroke-opacity:1" /><path
       id="path19"
       d="m -317.62077,373.20691 c -4.724,26.204 -49.93867,39.98933 -100.99066,30.79066 -51.052,-9.196 -88.61467,-37.89466 -83.89067,-64.10266 4.72533,-26.20933 49.93733,-39.99467 100.98933,-30.79733 51.05333,9.20266 88.61467,37.89999 83.892,64.10933 z"
       style="fill:none;stroke:#000000;stroke-width:1.00157;stroke-linecap:butt;stroke-linejoin:miter;stroke-miterlimit:4;stroke-dasharray:none;stroke-opacity:1" /><path
       id="path20"
       d="m -452.7461,276.87891 -35.604,56.568"
       style="fill:none;stroke:#000000;stroke-width:1;stroke-linecap:butt;stroke-linejoin:miter;stroke-miterlimit:4;stroke-dasharray:none;stroke-opacity:1" /><path
       id="path21"
       d="m -483.02743,324.98291 -1.256,-5.516 -4.06667,13.98 10.83867,-9.71333 z"
       style="fill:#000000;fill-opacity:1;fill-rule:evenodd;stroke:none;stroke-width:0.133333" /><path
       id="path22"
       d="m -483.02743,324.98158 -1.256,-5.51467 -4.06667,13.98 10.83733,-9.71467 z"
       style="fill:none;stroke:#000000;stroke-width:1.06667;stroke-linecap:butt;stroke-linejoin:miter;stroke-miterlimit:4;stroke-dasharray:none;stroke-opacity:1" /><path
       id="path23"
       d="m -444.4861,307.50958 -35.604,56.56666"
       style="fill:none;stroke:#000000;stroke-width:1;stroke-linecap:butt;stroke-linejoin:miter;stroke-miterlimit:4;stroke-dasharray:none;stroke-opacity:1" /><path
       id="path24"
       d="m -474.76743,355.61357 -1.24934,-5.516 -4.07333,13.97867 10.83867,-9.71867 z"
       style="fill:#000000;fill-opacity:1;fill-rule:evenodd;stroke:none;stroke-width:0.133333" /><path
       id="path25"
       d="m -474.76743,355.61357 -1.24934,-5.51466 -4.07333,13.97866 10.84,-9.72 z"
       style="fill:none;stroke:#000000;stroke-width:1.06667;stroke-linecap:butt;stroke-linejoin:miter;stroke-miterlimit:4;stroke-dasharray:none;stroke-opacity:1" /><path
       id="path26"
       d="m -432.61677,272.14958 -35.60933,56.568"
       style="fill:none;stroke:#000000;stroke-width:1;stroke-linecap:butt;stroke-linejoin:miter;stroke-miterlimit:4;stroke-dasharray:none;stroke-opacity:1" /><path
       id="path27"
       d="m -462.8981,320.25891 -1.25467,-5.52 -4.07333,13.97867 10.844,-9.71334 z"
       style="fill:#000000;fill-opacity:1;fill-rule:evenodd;stroke:none;stroke-width:0.133333" /><path
       id="path28"
       d="m -462.8981,320.25758 -1.25467,-5.52 -4.07333,13.97866 10.84533,-9.712 z"
       style="fill:none;stroke:#000000;stroke-width:1.06667;stroke-linecap:butt;stroke-linejoin:miter;stroke-miterlimit:4;stroke-dasharray:none;stroke-opacity:1" /><path
       id="path29"
       d="m -419.73543,302.45758 -35.60934,56.56666"
       style="fill:none;stroke:#000000;stroke-width:1;stroke-linecap:butt;stroke-linejoin:miter;stroke-miterlimit:4;stroke-dasharray:none;stroke-opacity:1" /><path
       id="path30"
       d="m -450.01677,350.56157 -1.256,-5.516 -4.072,13.97867 10.84267,-9.71867 z"
       style="fill:#000000;fill-opacity:1;fill-rule:evenodd;stroke:none;stroke-width:0.133333" /><path
       id="path31"
       d="m -450.01677,350.56024 -1.25466,-5.51467 -4.07334,13.97867 10.84267,-9.71867 z"
       style="fill:none;stroke:#000000;stroke-width:1.06667;stroke-linecap:butt;stroke-linejoin:miter;stroke-miterlimit:4;stroke-dasharray:none;stroke-opacity:1" /><path
       id="path32"
       d="m -416.45543,323.41491 -35.604,56.568"
       style="fill:none;stroke:#000000;stroke-width:1;stroke-linecap:butt;stroke-linejoin:miter;stroke-miterlimit:4;stroke-dasharray:none;stroke-opacity:1" /><path
       id="path33"
       d="m -446.73543,371.51891 -1.25067,-5.51467 -4.07333,13.97867 10.844,-9.71334 z"
       style="fill:#000000;fill-opacity:1;fill-rule:evenodd;stroke:none;stroke-width:0.133333" /><path
       id="path34"
       d="m -446.73543,371.52024 -1.252,-5.516 -4.072,13.97867 10.844,-9.71334 z"
       style="fill:none;stroke:#000000;stroke-width:1.06667;stroke-linecap:butt;stroke-linejoin:miter;stroke-miterlimit:4;stroke-dasharray:none;stroke-opacity:1" /><path
       id="path35"
       d="m -410.6421,271.13891 -35.60933,56.568"
       style="fill:none;stroke:#000000;stroke-width:1;stroke-linecap:butt;stroke-linejoin:miter;stroke-miterlimit:4;stroke-dasharray:none;stroke-opacity:1" /><path
       id="path36"
       d="m -440.92343,319.24824 -1.25467,-5.51466 -4.07333,13.97333 10.844,-9.71333 z"
       style="fill:#000000;fill-opacity:1;fill-rule:evenodd;stroke:none;stroke-width:0.133333" /><path
       id="path37"
       d="m -440.92343,319.24824 -1.25467,-5.516 -4.07467,13.97467 10.84534,-9.71333 z"
       style="fill:none;stroke:#000000;stroke-width:1.06667;stroke-linecap:butt;stroke-linejoin:miter;stroke-miterlimit:4;stroke-dasharray:none;stroke-opacity:1" /><path
       id="path38"
       d="m -379.83543,285.28558 -35.60934,56.56666"
       style="fill:none;stroke:#000000;stroke-width:1;stroke-linecap:butt;stroke-linejoin:miter;stroke-miterlimit:4;stroke-dasharray:none;stroke-opacity:1" /><path
       id="path39"
       d="m -410.11677,333.38957 -1.25466,-5.51599 -4.07334,13.97866 10.844,-9.71867 z"
       style="fill:#000000;fill-opacity:1;fill-rule:evenodd;stroke:none;stroke-width:0.133333" /><path
       id="path40"
       d="m -410.11677,333.38957 -1.25466,-5.51599 -4.07334,13.97999 10.844,-9.72 z"
       style="fill:none;stroke:#000000;stroke-width:1.06667;stroke-linecap:butt;stroke-linejoin:miter;stroke-miterlimit:4;stroke-dasharray:none;stroke-opacity:1" /><path
       id="path41"
       d="m -391.4501,324.68158 -35.60933,56.56666"
       style="fill:none;stroke:#000000;stroke-width:1;stroke-linecap:butt;stroke-linejoin:miter;stroke-miterlimit:4;stroke-dasharray:none;stroke-opacity:1" /><path
       id="path42"
       d="m -421.73143,372.78557 -1.25467,-5.516 -4.07333,13.97867 10.844,-9.71867 z"
       style="fill:#000000;fill-opacity:1;fill-rule:evenodd;stroke:none;stroke-width:0.133333" /><path
       id="path43"
       d="m -421.73143,372.78557 -1.25467,-5.51466 -4.07333,13.97733 10.844,-9.71867 z"
       style="fill:none;stroke:#000000;stroke-width:1.06667;stroke-linecap:butt;stroke-linejoin:miter;stroke-miterlimit:4;stroke-dasharray:none;stroke-opacity:1" /><path
       id="path44"
       d="m -361.65277,307.75891 -35.60933,56.568"
       style="fill:none;stroke:#000000;stroke-width:1;stroke-linecap:butt;stroke-linejoin:miter;stroke-miterlimit:4;stroke-dasharray:none;stroke-opacity:1" /><path
       id="path45"
       d="m -391.9341,355.86291 -1.25467,-5.51467 -4.07333,13.97867 10.844,-9.71867 z"
       style="fill:#000000;fill-opacity:1;fill-rule:evenodd;stroke:none;stroke-width:0.133333" /><path
       id="path46"
       d="m -391.9341,355.86291 -1.25467,-5.51467 -4.07333,13.97867 10.84267,-9.71867 z"
       style="fill:none;stroke:#000000;stroke-width:1.06667;stroke-linecap:butt;stroke-linejoin:miter;stroke-miterlimit:4;stroke-dasharray:none;stroke-opacity:1" /><path
       id="path47"
       d="m -365.6941,335.79091 -35.604,56.56666"
       style="fill:none;stroke:#000000;stroke-width:1;stroke-linecap:butt;stroke-linejoin:miter;stroke-miterlimit:4;stroke-dasharray:none;stroke-opacity:1" /><path
       id="path48"
       d="m -395.97543,383.89491 -1.25067,-5.516 -4.072,13.97866 10.83867,-9.71333 z"
       style="fill:#000000;fill-opacity:1;fill-rule:evenodd;stroke:#000000;stroke-width:1.06667;stroke-linecap:butt;stroke-linejoin:miter;stroke-miterlimit:4;stroke-dasharray:none;stroke-opacity:1" /><path
       id="path49"
       d="m -327.0541,298.66558 -35.60934,56.57199"
       style="fill:none;stroke:#000000;stroke-width:1;stroke-linecap:butt;stroke-linejoin:miter;stroke-miterlimit:4;stroke-dasharray:none;stroke-opacity:1" /><path
       id="path50"
       d="m -357.33544,346.77491 -1.25466,-5.516 -4.07334,13.97866 10.844,-9.71866 z"
       style="fill:#000000;fill-opacity:1;fill-rule:evenodd;stroke:none;stroke-width:0.133333" /><path
       id="path51"
       d="m -357.33544,346.77357 -1.25466,-5.51466 -4.072,13.97866 10.84266,-9.71866 z"
       style="fill:none;stroke:#000000;stroke-width:1.06667;stroke-linecap:butt;stroke-linejoin:miter;stroke-miterlimit:4;stroke-dasharray:none;stroke-opacity:1" /><path
       id="path52"
       d="m -330.33544,326.19624 -35.60933,56.568"
       style="fill:none;stroke:#000000;stroke-width:1;stroke-linecap:butt;stroke-linejoin:miter;stroke-miterlimit:4;stroke-dasharray:none;stroke-opacity:1" /><path
       id="path53"
       d="m -360.61677,374.30024 -1.25467,-5.51467 -4.07333,13.97867 10.844,-9.71867 z"
       style="fill:#000000;fill-opacity:1;fill-rule:evenodd;stroke:none;stroke-width:0.133333" /><path
       id="path54"
       d="m -360.61677,374.30157 -1.25467,-5.51733 -4.07333,13.98 10.84533,-9.72 z"
       style="fill:none;stroke:#000000;stroke-width:1.06667;stroke-linecap:butt;stroke-linejoin:miter;stroke-miterlimit:4;stroke-dasharray:none;stroke-opacity:1" /><path
       id="path55"
       d="m -317.45944,337.81091 -35.60533,56.568"
       style="fill:none;stroke:#000000;stroke-width:1;stroke-linecap:butt;stroke-linejoin:miter;stroke-miterlimit:4;stroke-dasharray:none;stroke-opacity:1" /><path
       id="path56"
       d="m -347.74077,385.91491 -1.25067,-5.51467 -4.07333,13.97867 10.844,-9.71867 z"
       style="fill:#000000;fill-opacity:1;fill-rule:evenodd;stroke:none;stroke-width:0.133333" /><path
       id="path57"
       d="m -347.74077,385.91491 -1.25067,-5.516 -4.07333,13.97866 10.844,-9.71733 z"
       style="fill:none;stroke:#000000;stroke-width:1.06667;stroke-linecap:butt;stroke-linejoin:miter;stroke-miterlimit:4;stroke-dasharray:none;stroke-opacity:1" /><path
       id="path58"
       d="m -291.1941,318.61891 -35.60934,56.56666"
       style="fill:none;stroke:#000000;stroke-width:1;stroke-linecap:butt;stroke-linejoin:miter;stroke-miterlimit:4;stroke-dasharray:none;stroke-opacity:1" /><path
       id="path59"
       d="m -321.47544,366.72291 -1.256,-5.516 -4.072,13.97866 10.844,-9.71866 z"
       style="fill:#000000;fill-opacity:1;fill-rule:evenodd;stroke:none;stroke-width:0.133333" /><path
       id="path60"
       d="m -321.47677,366.72291 -1.25333,-5.516 -4.07334,13.97866 10.84267,-9.71866 z"
       style="fill:none;stroke:#000000;stroke-width:1.06667;stroke-linecap:butt;stroke-linejoin:miter;stroke-miterlimit:4;stroke-dasharray:none;stroke-opacity:1" /><path
       id="path61"
       d="m -352.55944,274.67624 -35.60933,56.56667"
       style="fill:none;stroke:#000000;stroke-width:1;stroke-linecap:butt;stroke-linejoin:miter;stroke-miterlimit:4;stroke-dasharray:none;stroke-opacity:1" /><path
       id="path62"
       d="m -382.84077,322.78024 -1.25466,-5.516 -4.07334,13.97867 10.844,-9.71333 z"
       style="fill:#000000;fill-opacity:1;fill-rule:evenodd;stroke:none;stroke-width:0.133333" /><path
       id="path63"
       d="m -382.84077,322.77891 -1.25466,-5.51467 -4.07334,13.97867 10.84267,-9.71333 z"
       style="fill:none;stroke:#000000;stroke-width:1.06667;stroke-linecap:butt;stroke-linejoin:miter;stroke-miterlimit:4;stroke-dasharray:none;stroke-opacity:1" /><path
       id="path64"
       d="m -382.36077,260.78558 -35.60933,56.572"
       style="fill:none;stroke:#000000;stroke-width:1;stroke-linecap:butt;stroke-linejoin:miter;stroke-miterlimit:4;stroke-dasharray:none;stroke-opacity:1" /><path
       id="path65"
       d="m -412.6421,308.89491 -1.256,-5.516 -4.072,13.97867 10.844,-9.71867 z"
       style="fill:#000000;fill-opacity:1;fill-rule:evenodd;stroke:none;stroke-width:0.133333" /><path
       id="path66"
       d="m -412.6421,308.89491 -1.256,-5.516 -4.07333,13.97867 10.84533,-9.71867 z"
       style="fill:none;stroke:#000000;stroke-width:1.06667;stroke-linecap:butt;stroke-linejoin:miter;stroke-miterlimit:4;stroke-dasharray:none;stroke-opacity:1" /><path
       id="path67"
       d="m -587.60076,383.45224 -1.01067,69.69733"
       style="fill:none;stroke:#000000;stroke-width:1;stroke-linecap:butt;stroke-linejoin:miter;stroke-miterlimit:4;stroke-dasharray:none;stroke-opacity:1" /><path
       id="path68"
       d="m -588.46476,443.15491 -3.94267,-4.05734 3.796,14.052 4.204,-13.93733 z"
       style="fill:#000000;fill-opacity:1;fill-rule:evenodd;stroke:none;stroke-width:0.133333" /><path
       id="path69"
       d="m -588.46476,443.15491 -3.9436,-4.05734 3.79693,14.052 4.20267,-13.93733 z"
       style="fill:none;stroke:#000000;stroke-width:1.06667;stroke-linecap:butt;stroke-linejoin:miter;stroke-miterlimit:4;stroke-dasharray:none;stroke-opacity:1" /><path
       id="path70"
       d="m -543.3821,413.29491 -1.01066,69.69866"
       style="fill:none;stroke:#000000;stroke-width:1;stroke-linecap:butt;stroke-linejoin:miter;stroke-miterlimit:4;stroke-dasharray:none;stroke-opacity:1" /><path
       id="path71"
       d="m -544.2461,472.99357 -3.94266,-4.05733 3.796,14.05733 4.204,-13.93733 z"
       style="fill:#000000;fill-opacity:1;fill-rule:evenodd;stroke:none;stroke-width:0.133333" /><path
       id="path72"
       d="m -544.2461,472.99357 -3.94266,-4.05733 3.796,14.05733 4.204,-13.93867 z"
       style="fill:none;stroke:#000000;stroke-width:1.06667;stroke-linecap:butt;stroke-linejoin:miter;stroke-miterlimit:4;stroke-dasharray:none;stroke-opacity:1" /><path
       id="path73"
       d="m -458.53277,418.34291 -1.00533,69.70266"
       style="fill:none;stroke:#000000;stroke-width:1;stroke-linecap:butt;stroke-linejoin:miter;stroke-miterlimit:4;stroke-dasharray:none;stroke-opacity:1" /><path
       id="path74"
       d="m -459.3981,478.04557 -3.93733,-4.05733 3.79733,14.05733 4.19733,-13.94267 z"
       style="fill:#000000;fill-opacity:1;fill-rule:evenodd;stroke:#000000;stroke-width:1.06667;stroke-linecap:butt;stroke-linejoin:miter;stroke-miterlimit:4;stroke-dasharray:none;stroke-opacity:1" /><path
       id="path75"
       d="m -496.9181,484.00424 -1.01067,69.70266"
       style="fill:none;stroke:#000000;stroke-width:1;stroke-linecap:butt;stroke-linejoin:miter;stroke-miterlimit:4;stroke-dasharray:none;stroke-opacity:1" /><path
       id="path76"
       d="m -497.78343,543.7069 -3.94267,-4.05733 3.79733,14.05733 4.20267,-13.94266 z"
       style="fill:#000000;fill-opacity:1;fill-rule:evenodd;stroke:#000000;stroke-width:1.06667;stroke-linecap:butt;stroke-linejoin:miter;stroke-miterlimit:4;stroke-dasharray:none;stroke-opacity:1" /><path
       id="path77"
       d="m -427.51143,506.9829 -1.01067,69.70267"
       style="fill:none;stroke:#000000;stroke-width:1;stroke-linecap:butt;stroke-linejoin:miter;stroke-miterlimit:4;stroke-dasharray:none;stroke-opacity:1" /><path
       id="path78"
       d="m -428.37677,566.68557 -3.94266,-4.05733 3.79733,14.05733 4.20267,-13.94267 z"
       style="fill:#000000;fill-opacity:1;fill-rule:evenodd;stroke:none;stroke-width:0.133333" /><path
       id="path79"
       d="m -428.37677,566.6869 -3.94266,-4.05866 3.79733,14.05866 4.20267,-13.944 z"
       style="fill:none;stroke:#000000;stroke-width:1.06667;stroke-linecap:butt;stroke-linejoin:miter;stroke-miterlimit:4;stroke-dasharray:none;stroke-opacity:1" /><path
       id="path80"
       d="m -351.3821,429.26424 -1.01067,69.69733"
       style="fill:none;stroke:#000000;stroke-width:1;stroke-linecap:butt;stroke-linejoin:miter;stroke-miterlimit:4;stroke-dasharray:none;stroke-opacity:1" /><path
       id="path81"
       d="m -352.2461,488.96157 -3.94267,-4.05733 3.796,14.05733 4.204,-13.94267 z"
       style="fill:#000000;fill-opacity:1;fill-rule:evenodd;stroke:none;stroke-width:0.133333" /><path
       id="path82"
       d="m -352.24744,488.9629 -3.94133,-4.05866 3.79733,14.05866 4.20267,-13.944 z"
       style="fill:none;stroke:#000000;stroke-width:1.06667;stroke-linecap:butt;stroke-linejoin:miter;stroke-miterlimit:4;stroke-dasharray:none;stroke-opacity:1" /><path
       id="path83"
       d="m -327.2101,465.82157 -1.01067,69.70267"
       style="fill:none;stroke:#000000;stroke-width:1;stroke-linecap:butt;stroke-linejoin:miter;stroke-miterlimit:4;stroke-dasharray:none;stroke-opacity:1" /><path
       id="path84"
       d="m -328.0741,525.52424 -3.94267,-4.05734 3.796,14.05734 4.204,-13.94267 z"
       style="fill:#000000;fill-opacity:1;fill-rule:evenodd;stroke:none;stroke-width:0.133333" /><path
       id="path85"
       d="m -328.0741,525.52424 -3.944,-4.05734 3.79733,14.05734 4.20267,-13.94267 z"
       style="fill:none;stroke:#000000;stroke-width:1.06667;stroke-linecap:butt;stroke-linejoin:miter;stroke-miterlimit:4;stroke-dasharray:none;stroke-opacity:1" /><path
       id="path86"
       d="m -308.01677,509.2589 -1.01067,69.69867"
       style="fill:none;stroke:#000000;stroke-width:1;stroke-linecap:butt;stroke-linejoin:miter;stroke-miterlimit:4;stroke-dasharray:none;stroke-opacity:1" /><path
       id="path87"
       d="m -308.8821,568.96157 -3.94267,-4.05733 3.79733,14.05333 4.20267,-13.93867 z"
       style="fill:#000000;fill-opacity:1;fill-rule:evenodd;stroke:none;stroke-width:0.133333" /><path
       id="path88"
       d="m -308.8821,568.9629 -3.94267,-4.05866 3.79733,14.05333 4.20267,-13.93867 z"
       style="fill:none;stroke:#000000;stroke-width:1.06667;stroke-linecap:butt;stroke-linejoin:miter;stroke-miterlimit:4;stroke-dasharray:none;stroke-opacity:1" /><path
       id="path89"
       d="m -278.7261,451.68157 -1.00934,69.69733"
       style="fill:none;stroke:#000000;stroke-width:1;stroke-linecap:butt;stroke-linejoin:miter;stroke-miterlimit:4;stroke-dasharray:none;stroke-opacity:1" /><path
       id="path90"
       d="m -279.5901,511.3789 -3.93734,-4.05733 3.792,14.05733 4.20267,-13.93733 z"
       style="fill:#000000;fill-opacity:1;fill-rule:evenodd;stroke:none;stroke-width:0.133333" /><path
       id="path91"
       d="m -279.5901,511.3789 -3.93734,-4.05733 3.792,14.05733 4.20267,-13.93866 z"
       style="fill:none;stroke:#000000;stroke-width:1.06667;stroke-linecap:butt;stroke-linejoin:miter;stroke-miterlimit:4;stroke-dasharray:none;stroke-opacity:1" /><path
       id="path92"
       d="m -253.4701,507.23757 -1.01067,69.69867"
       style="fill:none;stroke:#000000;stroke-width:1;stroke-linecap:butt;stroke-linejoin:miter;stroke-miterlimit:4;stroke-dasharray:none;stroke-opacity:1" /><path
       id="path93"
       d="m -254.33544,566.94157 -3.94266,-4.05733 3.79733,14.052 4.20267,-13.93734 z"
       style="fill:#000000;fill-opacity:1;fill-rule:evenodd;stroke:none;stroke-width:0.133333" /><path
       id="path94"
       d="m -254.33544,566.94157 -3.94133,-4.05733 3.796,14.052 4.204,-13.93734 z"
       style="fill:none;stroke:#000000;stroke-width:1.06667;stroke-linecap:butt;stroke-linejoin:miter;stroke-miterlimit:4;stroke-dasharray:none;stroke-opacity:1" /><path
       id="path95"
       d="m -223.16344,460.76957 -1.01067,69.70267"
       style="fill:none;stroke:#000000;stroke-width:1;stroke-linecap:butt;stroke-linejoin:miter;stroke-miterlimit:4;stroke-dasharray:none;stroke-opacity:1" /><path
       id="path96"
       d="m -224.02744,520.47224 -3.94267,-4.05734 3.796,14.05734 4.204,-13.94267 z"
       style="fill:#000000;fill-opacity:1;fill-rule:evenodd;stroke:none;stroke-width:0.133333" /><path
       id="path97"
       d="m -224.02744,520.47224 -3.944,-4.056 3.79733,14.056 4.20267,-13.94134 z"
       style="fill:none;stroke:#000000;stroke-width:1.06667;stroke-linecap:butt;stroke-linejoin:miter;stroke-miterlimit:4;stroke-dasharray:none;stroke-opacity:1" /><path
       id="path98"
       d="m -519.1421,582.9989 -1.00533,69.70267"
       style="fill:none;stroke:#000000;stroke-width:1;stroke-linecap:butt;stroke-linejoin:miter;stroke-miterlimit:4;stroke-dasharray:none;stroke-opacity:1" /><path
       id="path99"
       d="m -520.00743,642.70157 -3.93733,-4.05734 3.79733,14.05734 4.19733,-13.94267 z"
       style="fill:#000000;fill-opacity:1;fill-rule:evenodd;stroke:none;stroke-width:0.133333" /><path
       id="path100"
       d="m -520.00743,642.70157 -3.936,-4.05734 3.796,14.05734 4.19867,-13.94134 z"
       style="fill:none;stroke:#000000;stroke-width:1.06667;stroke-linecap:butt;stroke-linejoin:miter;stroke-miterlimit:4;stroke-dasharray:none;stroke-opacity:1" /><path
       id="path101"
       d="m -446.40743,587.04024 -1.01067,69.69866"
       style="fill:none;stroke:#000000;stroke-width:1;stroke-linecap:butt;stroke-linejoin:miter;stroke-miterlimit:4;stroke-dasharray:none;stroke-opacity:1" /><path
       id="path102"
       d="m -447.27277,646.7429 -3.94266,-4.05733 3.79733,14.05333 4.20267,-13.93867 z"
       style="fill:#000000;fill-opacity:1;fill-rule:evenodd;stroke:none;stroke-width:0.133333" /><path
       id="path103"
       d="m -447.27277,646.7429 -3.94266,-4.056 3.79733,14.05067 4.20267,-13.936 z"
       style="fill:none;stroke:#000000;stroke-width:1.06667;stroke-linecap:butt;stroke-linejoin:miter;stroke-miterlimit:4;stroke-dasharray:none;stroke-opacity:1" /><path
       id="path104"
       d="m -404.99143,629.4669 -1.01067,69.6984"
       style="fill:none;stroke:#000000;stroke-width:1;stroke-linecap:butt;stroke-linejoin:miter;stroke-miterlimit:4;stroke-dasharray:none;stroke-opacity:1" /><path
       id="path105"
       d="m -405.85543,689.17103 -3.94267,-4.06306 3.796,14.05733 4.204,-13.93693 z"
       style="fill:#000000;fill-opacity:1;fill-rule:evenodd;stroke:none;stroke-width:0.133333" /><path
       id="path106"
       d="m -405.85543,689.1705 -3.94267,-4.06293 3.79733,14.05773 4.20267,-13.938 z"
       style="fill:none;stroke:#000000;stroke-width:1.06667;stroke-linecap:butt;stroke-linejoin:miter;stroke-miterlimit:4;stroke-dasharray:none;stroke-opacity:1" /><path
       id="path107"
       d="m -343.37144,589.06157 -1.01066,69.69733"
       style="fill:none;stroke:#000000;stroke-width:1;stroke-linecap:butt;stroke-linejoin:miter;stroke-miterlimit:4;stroke-dasharray:none;stroke-opacity:1" /><path
       id="path108"
       d="m -344.23544,648.76423 -3.94266,-4.05733 3.796,14.052 4.204,-13.93733 z"
       style="fill:#000000;fill-opacity:1;fill-rule:evenodd;stroke:#000000;stroke-width:1.06667;stroke-linecap:butt;stroke-linejoin:miter;stroke-miterlimit:4;stroke-dasharray:none;stroke-opacity:1" /><path
       id="path109"
       d="m -482.77277,638.55623 -1.01066,69.7028"
       style="fill:none;stroke:#000000;stroke-width:1;stroke-linecap:butt;stroke-linejoin:miter;stroke-miterlimit:4;stroke-dasharray:none;stroke-opacity:1" /><path
       id="path110"
       d="m -483.63677,698.25903 -3.94266,-4.0572 3.796,14.0572 4.204,-13.94266 z"
       style="fill:#000000;fill-opacity:1;fill-rule:evenodd;stroke:none;stroke-width:0.133333" /><path
       id="path111"
       d="m -483.63677,698.25903 -3.94266,-4.0568 3.796,14.0568 4.204,-13.94213 z"
       style="fill:none;stroke:#000000;stroke-width:1.06667;stroke-linecap:butt;stroke-linejoin:miter;stroke-miterlimit:4;stroke-dasharray:none;stroke-opacity:1" /><path
       id="path112"
       d="m -281.75144,587.04024 -1.01066,69.69866"
       style="fill:none;stroke:#000000;stroke-width:1;stroke-linecap:butt;stroke-linejoin:miter;stroke-miterlimit:4;stroke-dasharray:none;stroke-opacity:1" /><path
       id="path113"
       d="m -282.62077,646.7429 -3.93867,-4.05733 3.79734,14.05333 4.20266,-13.93867 z"
       style="fill:#000000;fill-opacity:1;fill-rule:evenodd;stroke:none;stroke-width:0.133333" /><path
       id="path114"
       d="m -282.62077,646.7429 -3.93867,-4.05733 3.79734,14.052 4.20266,-13.93734 z"
       style="fill:none;stroke:#000000;stroke-width:1.06667;stroke-linecap:butt;stroke-linejoin:miter;stroke-miterlimit:4;stroke-dasharray:none;stroke-opacity:1" /><path
       id="path115"
       d="m -567.6261,482.99357 -1.01066,69.70267"
       style="fill:none;stroke:#000000;stroke-width:1;stroke-linecap:butt;stroke-linejoin:miter;stroke-miterlimit:4;stroke-dasharray:none;stroke-opacity:1" /><path
       id="path116"
       d="m -568.49143,542.69624 -3.94267,-4.05734 3.79734,14.05734 4.20266,-13.94267 z"
       style="fill:#000000;fill-opacity:1;fill-rule:evenodd;stroke:none;stroke-width:0.133333" /><path
       id="path117"
       d="m -568.49143,542.69757 -3.94267,-4.05867 3.796,14.05867 4.204,-13.944 z"
       style="fill:none;stroke:#000000;stroke-width:1.06667;stroke-linecap:butt;stroke-linejoin:miter;stroke-miterlimit:4;stroke-dasharray:none;stroke-opacity:1" /><path
       id="path118"
       d="m -256.5021,389.05091 -1.00934,69.69733"
       style="fill:none;stroke:#000000;stroke-width:1;stroke-linecap:butt;stroke-linejoin:miter;stroke-miterlimit:4;stroke-dasharray:none;stroke-opacity:1" /><path
       id="path119"
       d="m -257.3661,448.75357 -3.94267,-4.05733 3.79733,14.052 4.20267,-13.93733 z"
       style="fill:#000000;fill-opacity:1;fill-rule:evenodd;stroke:#000000;stroke-width:1.06667;stroke-linecap:butt;stroke-linejoin:miter;stroke-miterlimit:4;stroke-dasharray:none;stroke-opacity:1" /><path
       id="path120"
       d="m -627.2261,368.84824 -1.00933,69.69733"
       style="fill:none;stroke:#000000;stroke-width:1;stroke-linecap:butt;stroke-linejoin:miter;stroke-miterlimit:4;stroke-dasharray:none;stroke-opacity:1" /><path
       id="path121"
       d="m -628.09023,428.55091 -3.94267,-4.05734 3.79747,14.052 4.20253,-13.93733 z"
       style="fill:#000000;fill-opacity:1;fill-rule:evenodd;stroke:none;stroke-width:0.133333" /><path
       id="path122"
       d="m -628.0897,428.55091 -3.9432,-4.05734 3.79694,14.052 4.20306,-13.93866 z"
       style="fill:none;stroke:#000000;stroke-width:1.06667;stroke-linecap:butt;stroke-linejoin:miter;stroke-miterlimit:4;stroke-dasharray:none;stroke-opacity:1" /><path
       id="path123"
       d="m -686.31929,515.0149 h -1.41614 c -0.28133,1.47334 -0.51053,2.79067 -1.01053,4.12934 -0.28173,0.90666 -0.4536,1.37066 -3.7296,1.37066 h -4.52653 c 0.72906,-3.17733 2.48533,-5.88666 5.03746,-9.60533 2.65054,-4.02533 4.95307,-7.92667 4.95307,-12.38 0,-7.85867 -7.6052,-14.17733 -17.16667,-14.17733 -9.70361,0 -17.20934,6.44266 -17.20934,14.17733 0,4.45333 2.3026,8.35467 4.95365,12.38 2.48385,3.71867 4.28645,6.428 5.03593,9.60533 h -4.52552 c -3.27604,0 -3.44792,-0.464 -3.72917,-1.31866 -0.44271,-1.292 -0.72916,-2.76534 -1.01093,-4.18134 h -1.41563 l 1.86927,9.16134 h 9.03594 c 1.25052,0 1.40678,0 1.40678,-1.188 0,-3.948 -1.73491,-8.92667 -3.04688,-12.54134 -1.19323,-3.276 -2.77084,-7.74533 -2.77084,-11.97466 0,-9.036 6.22969,-12.88 11.36408,-12.88 5.41773,0 11.4068,4.068 11.4068,12.88 0,4.22933 -1.52134,8.53733 -3.17707,13.16133 -0.82813,2.37067 -2.64013,7.464 -2.64013,11.35467 0,1.188 0.17186,1.188 1.46253,1.188 h 8.98013 z"
       style="fill:#000000;fill-opacity:1;fill-rule:evenodd;stroke:none;stroke-width:0.133333" /><path
       id="path124"
       d="m -617.70476,767.17103 -0.0521,-0.33333 -0.0676,-0.32814 -0.0829,-0.31866 -0.0895,-0.3172 -0.10373,-0.31774 -0.0989,-0.30266 -0.12494,-0.30627 -0.13493,-0.29733 -0.1412,-0.29214 -0.15627,-0.28546 -0.15573,-0.2812 -0.1724,-0.272 -0.1932,-0.25987 -0.1916,-0.24947 -0.20427,-0.25053 -0.228,-0.24013 -0.224,-0.228 -0.24013,-0.20427 -0.25987,-0.20253 -0.26146,-0.1932 -0.276,-0.18134 -0.29174,-0.16666 -0.2964,-0.152 -0.31706,-0.13494 -0.3188,-0.12506 -0.33854,-0.11454 -0.33853,-0.088 -0.36413,-0.0787 -0.364,-0.0573 -0.38547,-0.0468 -0.39587,-0.0308 h -0.40666 v 1.23334 c 6.16666,0 6.2708,6.32813 6.2708,7.45893 0,4.0624 -3.62027,16.77027 -12.3172,16.77027 -6.2136,0 -6.2136,-5.8276 -6.2136,-6.36934 0,-1.54106 1.42146,-9.44786 3.73333,-12.8224 2.25573,-3.2348 5.02147,-5.03746 8.52667,-5.03746 v -1.23334 c -3.45894,0 -7.11987,0.8948 -11.52134,5.3068 -4.69173,4.6828 -5.0772,9.94267 -5.0772,11.69734 0,3.48546 2.47867,10.03706 10.38547,10.03706 13.44787,0 19.3172,-18.96933 19.3172,-27.0412 0,-8.99586 -5.25987,-14.64106 -12.19747,-14.64106 -8.188,0 -10.79733,7.33853 -10.79733,8.92133 0,0.7864 0.44267,1.9744 2.14533,1.9744 1.85987,0 3.052,-1.688 3.052,-2.98907 0,-1.97493 -1.75986,-1.97493 -2.65613,-1.97493 2.4948,-4.17187 6.5,-4.51453 8.1416,-4.51453 4.11453,0 8.08227,2.93746 8.08227,10.21866 0,2.19747 -0.34894,5.088 -1.54107,9.66147 z"
       style="fill:#000000;fill-opacity:1;fill-rule:evenodd;stroke:none;stroke-width:0.133333" /><path
       id="path125"
       d="m -572.54343,777.1601 h -1.416 c -0.28133,1.47346 -0.51067,2.78693 -1.00533,4.12546 -0.28667,0.90534 -0.45334,1.36934 -3.73467,1.36934 h -4.52133 c 0.724,-3.17187 2.48533,-5.88027 5.032,-9.60414 2.656,-4.02133 4.95733,-7.9224 4.95733,-12.37973 0,-7.8604 -7.60933,-14.1724 -17.16653,-14.1724 -9.7084,0 -17.2136,6.43747 -17.2136,14.1724 0,4.45733 2.30266,8.3584 4.95373,12.37973 2.48373,3.72387 4.2864,6.43227 5.03693,9.60414 h -4.52653 c -3.27613,0 -3.4428,-0.464 -3.7292,-1.312 -0.44267,-1.29214 -0.724,-2.76667 -1.01093,-4.1828 h -1.4156 l 1.8692,9.16146 h 9.036 c 1.25053,0 1.4068,0 1.4068,-1.1932 0,-3.94693 -1.73494,-8.92133 -3.04694,-12.54173 -1.1932,-3.276 -2.76506,-7.74373 -2.76506,-11.97293 0,-9.03747 6.22386,-12.88014 11.35826,-12.88014 5.4228,0 11.4068,4.07187 11.4068,12.88014 0,4.2292 -1.52133,8.5412 -3.17733,13.16666 -0.82267,2.36934 -2.64,7.45734 -2.64,11.348 0,1.1932 0.172,1.1932 1.46267,1.1932 h 8.98 z"
       style="fill:#000000;fill-opacity:1;fill-rule:evenodd;stroke:none;stroke-width:0.133333" /><path
       id="path127"
       d="m -499.11677,238.13358 -0.0573,-0.328 -0.0667,-0.328 -0.0787,-0.31734 -0.0933,-0.31733 -0.0987,-0.31867 -0.10534,-0.30666 -0.124,-0.30267 -0.27066,-0.59333 -0.15734,-0.28134 -0.16133,-0.28133 -0.172,-0.276 -0.192,-0.26 -0.19333,-0.25067 -0.20267,-0.24933 -0.224,-0.23467 -0.22933,-0.22933 -0.24,-0.20267 -0.26,-0.204 -0.26,-0.192 -0.27067,-0.18266 -0.29733,-0.172 -0.292,-0.14534 -0.31734,-0.136 -0.31733,-0.124 -0.33867,-0.11466 -0.344,-0.0893 -0.36,-0.0773 -0.364,-0.0573 -0.38533,-0.0467 -0.396,-0.0373 h -0.412 v 1.24 c 6.172,0 6.272,6.32266 6.272,7.45866 0,4.06134 -3.61467,16.77067 -12.31333,16.77067 -6.21333,0 -6.21333,-5.828 -6.21333,-6.37067 0,-1.54666 1.41733,-9.448 3.72933,-12.828 2.25467,-3.22933 5.02533,-5.03066 8.52533,-5.03066 v -1.24 c -3.45733,0 -7.11866,0.896 -11.51466,5.308 -4.69867,4.68133 -5.084,9.948 -5.084,11.70266 0,3.47867 2.48533,10.036 10.38533,10.036 13.448,0 19.324,-18.97333 19.324,-27.04666 0,-8.98934 -5.26134,-14.63467 -12.19867,-14.63467 -8.188,0 -10.79733,7.33333 -10.79733,8.92133 0,0.78134 0.44267,1.97467 2.14133,1.97467 1.85867,0 3.052,-1.688 3.052,-2.996 0,-1.97333 -1.75466,-1.97333 -2.65066,-1.97333 2.49466,-4.172 6.49466,-4.51067 8.13999,-4.51067 4.11467,0 8.084,2.93733 8.084,10.21867 0,2.19866 -0.35466,5.08933 -1.54266,9.656 z"
       style="fill:#000000;fill-opacity:1;fill-rule:evenodd;stroke:none;stroke-width:0.133333" /><path
       id="path128"
       d="m -453.9541,248.12424 h -1.41733 c -0.28667,1.47334 -0.51067,2.79067 -1.01067,4.12934 -0.28133,0.90666 -0.45333,1.37066 -3.72933,1.37066 h -4.52534 c 0.72934,-3.172 2.484,-5.88533 5.036,-9.60533 2.65067,-4.02533 4.95334,-7.92667 4.95334,-12.38 0,-7.85867 -7.60934,-14.172 -17.16667,-14.172 -9.70267,0 -17.208,6.43733 -17.208,14.172 0,4.45333 2.296,8.35467 4.95333,12.38 2.484,3.72 4.28534,6.43333 5.03067,9.60533 h -4.52133 c -3.276,0 -3.448,-0.464 -3.728,-1.31333 -0.444,-1.296 -0.72934,-2.77067 -1.01067,-4.18667 h -1.41733 l 1.87066,9.16134 h 9.036 c 1.244,0 1.40667,0 1.40667,-1.188 0,-3.948 -1.73467,-8.92667 -3.05333,-12.54134 -1.18667,-3.276 -2.76534,-7.74533 -2.76534,-11.97466 0,-9.036 6.224,-12.88 11.36534,-12.88 5.416,0 11.40533,4.068 11.40533,12.88 0,4.22933 -1.52,8.53733 -3.176,13.16666 -0.82933,2.37067 -2.64133,7.45867 -2.64133,11.34934 0,1.188 0.16666,1.188 1.464,1.188 h 8.97866 z"
       style="fill:#000000;fill-opacity:1;fill-rule:evenodd;stroke:none;stroke-width:0.133333" /><path
       id="path130"
       d="m -389.61677,521.0349 h 6.60934 c 1.08933,0 2.09466,0 2.09466,-1.63466 0,-1.02134 -0.964,-1.02134 -1.912,-1.02134 h -6.33866 l 1.87066,-10.224 c 0.156,-1.01066 0.156,-1.136 0.724,-1.636 0.74934,-0.692 1.37467,-0.692 1.656,-0.692 0.77067,0 1.292,0.12534 1.96267,0.41067 -1.348,0.67733 -2.36933,2.14133 -2.36933,3.672 0,1.704 1.36,2.6 2.75466,2.6 2.324,0 4.07867,-2.032 4.07867,-4.172 0,-2.896 -2.948,-4.52667 -6.42667,-4.52667 -2.66666,0 -5.83866,1.068 -7.80266,4.24 -1.312,2.088 -1.64,4.28667 -2.72934,10.328 h -5.52533 c -1.07333,0 -2.03733,0 -2.03733,1.64534 0,1.01066 0.964,1.01066 1.86,1.01066 h 5.21333 l -4.30667,24.05734 c -0.104,0.51066 -0.72933,4.07333 -1.01066,4.88 -0.104,0.28133 -1.01067,2.86533 -2.82267,2.86533 -1.07867,0 -1.52133,-0.156 -1.928,-0.33867 1.41733,-0.66666 2.49467,-2.14133 2.49467,-3.71866 0,-1.704 -1.364,-2.60934 -2.78,-2.60934 -2.30267,0 -4.05734,2.04134 -4.05734,4.18667 0,3.048 3.208,4.51067 6.156,4.51067 4.22934,0 7.16667,-4.172 7.62934,-4.896 2.428,-3.744 3.71866,-10.92134 3.90133,-11.87467 z"
       style="fill:#000000;fill-opacity:1;fill-rule:evenodd;stroke:none;stroke-width:0.133333" /><path
       id="path131"
       d="m -352.92877,531.1029 v -0.0107 h 0.016 v -0.02 l 0.0107,-0.016 v -0.0213 l 0.009,-0.0107 0.0107,-0.0253 v -0.0213 l 0.0107,-0.02 v -0.0267 l 0.0107,-0.0213 0.016,-0.02 v -0.0373 l 0.009,-0.02 0.0107,-0.0573 v -0.0213 l 0.0107,-0.0253 v -0.032 l 0.0107,-0.0253 v -0.0213 l 0.0107,-0.0213 v -0.0253 l 0.0147,-0.0213 v -0.0573 h 0.0107 v -0.0467 c 0,-0.21333 -0.16133,-0.568 -0.62533,-0.568 -0.79067,0 -4.06667,0.31867 -5.05733,0.412 -0.328,0.0307 -0.86934,0.068 -0.86934,0.90667 0,0.54133 0.54134,0.54133 1.032,0.54133 1.88934,0 1.88934,0.28667 1.88934,0.604 0,0.27067 -0.0773,0.52133 -0.156,0.86933 l -2.26,9.00534 c -0.82267,-1.29067 -2.17734,-2.32267 -4.068,-2.32267 v 1.09867 c 2.76533,0 3.52666,2.99466 3.52666,3.43733 0,0.15733 -0.0893,0.43867 -0.12533,0.54267 l -1.86,7.39066 c -0.27067,1.11467 -1.13467,1.896 -2.004,2.656 -0.35467,0.30667 -1.95333,1.57334 -3.652,1.57334 -1.45333,0 -2.86933,-1.016 -2.86933,-3.81867 0,-2.10933 1.13466,-6.45333 2.052,-8.02533 1.812,-3.17734 3.83333,-3.756 4.932,-3.756 v -1.09867 c -5.04667,0 -10.192,5.568 -10.192,11.24533 0,3.83334 2.572,6.55734 5.97333,6.55734 2.12,0 4.02667,-1.224 5.604,-2.756 0.756,2.37066 3.04667,2.756 4.068,2.756 1.41733,0 2.41733,-0.86534 3.12,-2.08934 0.86933,-1.54133 1.38,-3.78666 1.38,-3.95733 0,-0.51067 -0.51067,-0.51067 -0.62,-0.51067 -0.568,0 -0.604,0.16134 -0.864,1.224 -0.47467,1.896 -1.24533,4.22934 -2.89067,4.22934 -1.032,0 -1.31733,-0.86 -1.31733,-1.928 0,-0.75467 0.0933,-1.10934 0.208,-1.62934 z"
       style="fill:#000000;fill-opacity:1;fill-rule:evenodd;stroke:none;stroke-width:0.133333" /><path
       id="path132"
       d="m -322.46477,241.25891 h 3.672 c 3.40533,0 4.35333,0.568 4.35333,2.42667 0,0.62533 -0.16666,1.704 -0.328,2.38133 -0.12533,0.41067 -0.18266,0.692 -0.18266,0.796 0,0.84933 0.75066,1.01067 1.29733,1.01067 1.07333,0 1.13067,-0.328 1.41733,-1.34934 l 3.17067,-12.588 c 0.20933,-0.75066 0.20933,-0.84933 0.20933,-0.90666 0,-1.03067 -1.11466,-1.03067 -1.33866,-1.03067 -1.08934,0 -1.19334,0.40667 -1.47467,1.47333 -1.13467,4.308 -2.896,5.136 -6.952,5.136 h -3.16267 l 3.72934,-15.07866 c 0.73466,-0.104 1.34933,-0.104 1.91733,-0.104 h 6.73467 c 6.42666,0 8.41066,1.636 8.41066,6.60933 0,1.34933 -0.224,3.052 -0.224,3.276 0,1.068 1.07867,1.068 1.34934,1.068 1.17733,0 1.26,-0.568 1.35866,-1.57867 l 1.01067,-10.124 0.068,-0.896 c 0,-1.00533 -0.97333,-1.00533 -1.86933,-1.00533 h -30.39067 c -1.188,0 -1.23467,0.0413 -1.516,0.28133 -0.412,0.28134 -0.52667,1.292 -0.52667,1.33867 0,1.03067 0.808,1.03067 2.32934,1.03067 1.18666,0 2.244,0.0573 3.432,0.104 l -7.95867,31.86 c -0.224,0.896 -0.28133,0.97333 -1.30267,1.07733 -0.96266,0.0573 -2.09866,0.0573 -2.99466,0.0573 -1.452,0 -1.57734,0 -1.812,0.12534 -0.672,0.38533 -0.672,1.292 -0.672,1.516 0,0.0573 0,1.01066 1.24,1.01066 1.416,0 2.89066,-0.1 4.30666,-0.1 1.52134,0 3.04667,-0.0827 4.568,-0.0827 1.70267,0 3.39067,0.0827 5.09334,0.0827 1.62,0 3.276,0.1 4.84933,0.1 0.672,0 1.70267,0 1.70267,-1.63066 0,-1.02134 -0.96267,-1.02134 -1.88,-1.02134 h -1.85867 c -2.14667,0 -2.99467,-0.11466 -3.56267,-0.23866 z"
       style="fill:#000000;fill-opacity:1;fill-rule:evenodd;stroke:none;stroke-width:0.133333" /><path
       id="path133"
       d="m -272.5541,241.37358 v -0.0107 h 0.0107 v -0.02 l 0.016,-0.0107 v -0.0267 l 0.0107,-0.0107 0.009,-0.02 v -0.0267 l 0.0107,-0.02 v -0.0213 l 0.0107,-0.0253 v -0.0213 l 0.016,-0.036 0.0107,-0.0213 0.009,-0.0573 v -0.0213 l 0.0107,-0.0253 v -0.032 l 0.0107,-0.0253 v -0.0213 l 0.0107,-0.02 v -0.048 l 0.016,-0.02 v -0.0373 l 0.009,-0.009 v -0.0373 c 0,-0.21333 -0.16133,-0.56266 -0.624,-0.56266 -0.792,0 -4.07333,0.31866 -5.05733,0.40666 -0.328,0.036 -0.876,0.068 -0.876,0.90667 0,0.54667 0.548,0.54667 1.02133,0.54667 1.90667,0 1.90667,0.28133 1.90667,0.59866 0,0.27067 -0.068,0.52134 -0.156,0.87467 l -2.26134,9 c -0.82266,-1.29067 -2.17733,-2.32267 -4.068,-2.32267 v 1.09867 c 2.76667,0 3.52667,2.996 3.52667,3.43867 0,0.156 -0.088,0.44266 -0.12533,0.54133 l -1.85867,7.396 c -0.27067,1.10933 -1.136,1.89067 -2.00533,2.65067 -0.35467,0.30666 -1.95334,1.57866 -3.65067,1.57866 -1.45333,0 -2.87067,-1.02133 -2.87067,-3.824 0,-2.10933 1.136,-6.452 2.052,-8.02533 1.81334,-3.17733 3.83334,-3.756 4.932,-3.756 v -1.09867 c -5.04666,0 -10.192,5.568 -10.192,11.25067 0,3.828 2.57334,6.552 5.97334,6.552 2.12,0 4.02666,-1.224 5.6,-2.76533 0.76,2.38 3.052,2.76533 4.072,2.76533 1.41733,0 2.41733,-0.86533 3.12,-2.08933 0.86933,-1.54134 1.38,-3.796 1.38,-3.95734 0,-0.50533 -0.51067,-0.50533 -0.62,-0.50533 -0.56667,0 -0.604,0.156 -0.864,1.224 -0.48934,1.89067 -1.24534,4.22933 -2.89067,4.22933 -1.03067,0 -1.31733,-0.86533 -1.31733,-1.928 0,-0.76 0.0933,-1.11466 0.208,-1.63466 z"
       style="fill:#000000;fill-opacity:1;fill-rule:evenodd;stroke:none;stroke-width:0.133333" /><path
       id="path134"
       d="m -342.85544,775.2909 c 0.45334,-1.61467 1.07734,-4.39587 1.07734,-4.75574 0,-1.26053 -0.896,-2.51626 -2.692,-2.51626 -0.896,0 -2.964,0.448 -3.77067,3.0532 -0.18267,0.7188 -2.78667,11.13493 -3.23467,13.02026 -0.36,1.34894 -0.71866,2.9636 -0.896,4.0412 -0.98933,1.34947 -3.23466,3.68279 -6.19733,3.68279 -3.324,0 -3.412,-2.87505 -3.412,-4.13079 0,-3.50413 1.79733,-7.99466 3.412,-12.12386 0.54133,-1.52654 0.71867,-1.88547 0.71867,-2.87614 0,-3.3228 -3.324,-5.11453 -6.464,-5.11453 -6.10934,0 -8.97867,7.71987 -8.97867,8.89067 0,0.80773 0.89467,0.80773 1.432,0.80773 0.62933,0 1.07733,0 1.26,-0.71867 1.88533,-6.37453 5.02667,-6.9172 5.92667,-6.9172 0.448,0 0.98533,0 0.98533,1.16667 0,1.34947 -0.71867,2.964 -0.896,3.5948 -2.42667,6.01453 -3.5,9.24893 -3.5,12.03067 0,6.55732 5.744,7.45316 9.068,7.45316 1.70267,0 4.21867,-0.17708 7.27067,-3.14011 1.89066,2.78021 5.208,3.14011 6.55733,3.14011 2.156,0 3.77067,-1.16667 5.03067,-3.22918 1.344,-2.33905 2.15066,-5.39065 2.15066,-5.66145 0,-0.8068 -0.89466,-0.8068 -1.432,-0.8068 -0.62933,0 -0.812,0 -1.07733,0.2708 -0.18267,0.0881 -0.18267,0.17613 -0.45333,1.61467 -1.16667,4.48904 -2.42267,5.74945 -3.948,5.74945 -0.808,0 -1.26,-0.54167 -1.26,-2.06825 0,-0.98387 0.18133,-1.97347 0.71866,-4.21867 0.452,-1.61467 0.98934,-3.8584 1.348,-5.11987 z"
       style="fill:#000000;fill-opacity:1;fill-rule:nonzero;stroke:none;stroke-width:0.133333" /><path
       id="path135"
       d="m -313.19944,775.4361 c 0,-0.088 0.088,-0.62547 0.088,-0.62547 0,-0.27027 -0.088,-0.6292 -0.624,-0.6292 -0.81333,0 -4.13066,0.35893 -5.12,0.44693 -0.27066,0 -0.90133,0.0891 -0.90133,0.89587 0,0.54267 0.63067,0.54267 1.07867,0.54267 1.88533,0 1.88533,0.3588 1.88533,0.6292 0,0.2656 0,0.53746 -0.0893,0.89626 l -2.33334,9.16094 c -0.80666,-1.34787 -2.156,-2.42654 -4.12933,-2.42654 -5.12,0 -10.32933,5.65626 -10.32933,11.40678 0,3.94792 2.60533,6.64532 6.10533,6.64532 2.156,0 4.04133,-1.16667 5.66133,-2.78647 0.71867,2.42657 3.052,2.78647 4.12934,2.78647 1.43733,0 2.42266,-0.81199 3.14133,-2.06823 0.90133,-1.61459 1.43733,-3.85833 1.43733,-4.04115 0,-0.53594 -0.536,-0.53594 -0.63066,-0.53594 -0.62534,0 -0.62534,0.17605 -0.896,1.25469 -0.536,1.97344 -1.25467,4.31197 -2.96267,4.31197 -0.98933,0 -1.34933,-0.9 -1.34933,-1.97864 0,-0.71354 0.0933,-1.07344 0.27066,-1.61458 z m -8.532,21.55213 c -0.27066,1.16667 -1.16666,1.97344 -2.06133,2.69323 -0.36,0.35885 -1.98,1.61874 -3.68267,1.61874 -1.52666,0 -2.964,-1.0776 -2.964,-3.86405 0,-2.15052 1.16667,-6.55209 2.156,-8.17192 1.792,-3.22907 3.86,-3.7708 4.93867,-3.7708 2.78,0 3.588,3.05213 3.588,3.5052 0,0.088 -0.088,0.4484 -0.088,0.53653 z"
       style="fill:#000000;fill-opacity:1;fill-rule:nonzero;stroke:none;stroke-width:0.133333" /><g
       transform="matrix(3.035326,0,0,3.035326,-456.79595,252.29106)"
       ns1:version="1.10.0"
       ns1:texconverter="pdflatex"
       ns1:pdfconverter="inkscape"
       ns1:text="$N$"
       ns1:preamble="/Users/daby/Library/Application Support/org.inkscape.Inkscape/config/inkscape/extensions/textext/default_packages.tex"
       ns1:scale="1.4060047763817138"
       ns1:alignment="middle center"
       ns1:stroke-to-path="0"
       id="g6298"
       ns1:jacobian_sqrt="1.87467"><defs
   id="id-807b46f2-ade5-4114-a86a-cb3b82cbbd4b" />
  <g
   fill="#000000"
   fill-opacity="1"
   id="id-0ec1d60b-02d8-447f-abbd-6f4328da53ba"
   transform="translate(-149.103,-127.953)">
    <g
   transform="translate(148.712,134.765)"
   id="g1512"><path
   d="M 7.53125,-5.765625 C 7.640625,-6.15625 7.8125,-6.46875 8.609375,-6.5 c 0.046875,0 0.171875,-0.015625 0.171875,-0.203125 0,0 0,-0.109375 -0.125,-0.109375 -0.328125,0 -0.6875,0.03125 -1.015625,0.03125 -0.328125,0 -0.6875,-0.03125 -1.015625,-0.03125 -0.0625,0 -0.171875,0 -0.171875,0.203125 C 6.453125,-6.5 6.546875,-6.5 6.625,-6.5 c 0.578125,0.015625 0.6875,0.21875 0.6875,0.4375 0,0.03125 -0.03125,0.1875 -0.03125,0.203125 l -1.125,4.4375 L 3.953125,-6.625 C 3.875,-6.796875 3.875,-6.8125 3.640625,-6.8125 h -1.34375 c -0.1875,0 -0.28125,0 -0.28125,0.203125 0,0.109375 0.09375,0.109375 0.28125,0.109375 0.046875,0 0.671875,0 0.671875,0.09375 L 1.640625,-1.0625 c -0.109375,0.40625 -0.28125,0.71875 -1.078125,0.75 -0.0625,0 -0.171875,0.015625 -0.171875,0.203125 0,0.0625 0.046875,0.109375 0.125,0.109375 0.328125,0 0.671875,-0.03125 1,-0.03125 C 1.859375,-0.03125 2.21875,0 2.546875,0 2.59375,0 2.71875,0 2.71875,-0.203125 2.71875,-0.296875 2.625,-0.3125 2.515625,-0.3125 1.9375,-0.328125 1.859375,-0.546875 1.859375,-0.75 c 0,-0.0625 0.015625,-0.125 0.046875,-0.234375 l 1.3125,-5.25 C 3.265625,-6.1875 3.265625,-6.15625 3.3125,-6.0625 l 2.484375,5.875 C 5.859375,-0.015625 5.890625,0 5.984375,0 6.09375,0 6.09375,-0.03125 6.140625,-0.203125 Z m 0,0"
   id="id-f0a801f1-2c38-4e5b-add8-b26a52082713" />
      </g></g>
</g><g
       transform="matrix(3.365005,0,0,3.365005,-572.54427,779.69887)"
       ns1:version="1.10.0"
       ns1:texconverter="pdflatex"
       ns1:pdfconverter="inkscape"
       ns1:text="$d$"
       ns1:preamble="/Users/daby/Library/Application Support/org.inkscape.Inkscape/config/inkscape/extensions/textext/default_packages.tex"
       ns1:scale="1.4060047763817138"
       ns1:alignment="middle center"
       ns1:stroke-to-path="0"
       id="g8731"
       ns1:jacobian_sqrt="1.87468"><defs
   id="id-c99ac494-e2ef-4718-ab5b-887ac551a546" />
  <g
   fill="#000000"
   fill-opacity="1"
   id="id-d58458e5-75d4-436d-9584-5c8e2057eccf"
   transform="translate(-149.118,-127.843)">
    <g
   transform="translate(148.712,134.765)"
   id="g4185"><path
   d="m 5.140625,-6.8125 c 0,0 0,-0.109375 -0.125,-0.109375 -0.15625,0 -1.09375,0.09375 -1.265625,0.109375 -0.078125,0.015625 -0.140625,0.0625 -0.140625,0.1875 0,0.125 0.09375,0.125 0.234375,0.125 0.484375,0 0.5,0.0625 0.5,0.171875 L 4.3125,-6.125 3.71875,-3.765625 C 3.53125,-4.140625 3.25,-4.40625 2.796875,-4.40625 c -1.15625,0 -2.390625,1.46875 -2.390625,2.921875 0,0.9375 0.546875,1.59375 1.3125,1.59375 0.203125,0 0.703125,-0.046875 1.296875,-0.75 0.078125,0.421875 0.4375,0.75 0.90625,0.75 0.359375,0 0.578125,-0.234375 0.75,-0.546875 0.15625,-0.359375 0.296875,-0.96875 0.296875,-0.984375 0,-0.109375 -0.09375,-0.109375 -0.125,-0.109375 -0.09375,0 -0.109375,0.046875 -0.140625,0.1875 -0.171875,0.640625 -0.34375,1.234375 -0.75,1.234375 -0.28125,0 -0.296875,-0.265625 -0.296875,-0.453125 0,-0.25 0.015625,-0.3125 0.046875,-0.484375 z m -2.0625,5.625 C 3.015625,-1 3.015625,-0.984375 2.875,-0.8125 2.4375,-0.265625 2.03125,-0.109375 1.75,-0.109375 c -0.5,0 -0.640625,-0.546875 -0.640625,-0.9375 0,-0.5 0.3125,-1.71875 0.546875,-2.1875 0.3125,-0.578125 0.75,-0.953125 1.15625,-0.953125 0.640625,0 0.78125,0.8125 0.78125,0.875 0,0.0625 -0.015625,0.125 -0.03125,0.171875 z m 0,0"
   id="id-d167a3ce-bbb0-4882-8f51-5460b2a084f4" />
      </g></g>
</g></g></svg>
