<?xml version="1.0" encoding="UTF-8" standalone="no"?>
<!-- Created with Inkscape (http://www.inkscape.org/) -->

<svg
   width="292.25073mm"
   height="74.180359mm"
   viewBox="0 0 292.25073 74.180359"
   version="1.1"
   id="svg1"
   inkscape:version="1.3.2 (091e20e, 2023-11-25)"
   sodipodi:docname="IPP_logo_2.svg"
   inkscape:dataloss="true"
   xmlns:inkscape="http://www.inkscape.org/namespaces/inkscape"
   xmlns:sodipodi="http://sodipodi.sourceforge.net/DTD/sodipodi-0.dtd"
   xmlns="http://www.w3.org/2000/svg"
   xmlns:svg="http://www.w3.org/2000/svg">
  <sodipodi:namedview
     id="namedview1"
     pagecolor="#ffffff"
     bordercolor="#000000"
     borderopacity="0.25"
     inkscape:showpageshadow="2"
     inkscape:pageopacity="0.0"
     inkscape:pagecheckerboard="0"
     inkscape:deskcolor="#d1d1d1"
     inkscape:document-units="mm"
     inkscape:zoom="0.7578149"
     inkscape:cx="625.48256"
     inkscape:cy="898.63633"
     inkscape:window-width="3008"
     inkscape:window-height="1639"
     inkscape:window-x="0"
     inkscape:window-y="25"
     inkscape:window-maximized="0"
     inkscape:current-layer="g1" />
  <defs
     id="defs1" />
  <g
     inkscape:label="Layer 1"
     inkscape:groupmode="layer"
     id="layer1"
     transform="translate(-2.3746521,-67.909814)">
    <g
       id="g1">
      <g
         id="g3"
         transform="matrix(5.9920233,0,0,5.9920233,-793.80328,-258.53763)">
        <path
           d="m 138.65941,60.753607 c -1.67482,-1.15358 -2.57969,-1.76742 -3.42636,-2.39713 -0.40746,0.67469 -0.64293,1.46315 -0.64293,2.30717 0,1.53194 0.77258,2.88396 1.94997,3.68565 0.48948,-0.96573 1.1483,-2.04259 2.11932,-3.59569"
           id="path1"
           style="fill:#01426a;fill-opacity:1;stroke-width:0.264583"
           inkscape:export-filename="../../../../Presentations/2025/ENSTA/Figures/IPP_logo.svg"
           inkscape:export-xdpi="96"
           inkscape:export-ydpi="96" />
        <path
           d="m 143.04884,61.642607 c -0.69056,0.7329 -1.79652,0.83873 -2.58762,0.34131 -0.15346,-0.0952 -1.24354,-0.84666 -1.24354,-0.84666 -1.20386,1.70127 -1.82298,2.55587 -2.48709,3.33639 0.67734,0.41275 1.47109,0.65088 2.32305,0.65088 2.39183,0 4.34445,-1.88384 4.45558,-4.24657 -0.0979,0.28311 -0.25665,0.54769 -0.46302,0.76465"
           id="path2"
           style="fill:#01426a;fill-opacity:1;stroke-width:0.264583" />
        <path
           d="m 142.22334,59.129067 c -0.14816,-0.0979 -1.10595,-0.7329 -1.10595,-0.7329 -0.78317,1.15623 -0.90752,1.32556 -1.50548,2.18281 0,0 1.03981,0.67469 1.19062,0.7673 0.53975,0.33337 1.25413,0.23283 1.67217,-0.23284 0.16139,-0.17991 0.27781,-0.40216 0.32014,-0.63764 0.0847,-0.43392 -0.0556,-1.00277 -0.57414,-1.34409"
           id="path3"
           style="fill:#01426a;fill-opacity:1;stroke-width:0.264583" />
        <path
           d="m 139.0113,60.190047 c 0.56621,-0.90223 1.07686,-1.70657 1.88119,-2.921 0,0 1.6854,1.11125 1.83621,1.21973 0.17727,0.127 0.30692,0.254 0.4101,0.3757 -0.69321,-1.56897 -2.25954,-2.66435 -4.08516,-2.66435 -1.45257,0 -2.74373,0.69585 -3.55865,1.77271 0.89694,0.53181 1.97115,1.22237 3.51896,2.21721"
           id="path4"
           style="fill:#01426a;fill-opacity:1;stroke-width:0.264583" />
        <path
           d="m 134.83618,57.448957 c 0,-0.30956 -0.24871,-0.56356 -0.56092,-0.56356 -0.30956,0 -0.56356,0.24871 -0.56356,0.56092 0,0.31221 0.24871,0.56356 0.56092,0.56356 0.3122,0 0.56356,-0.24871 0.56356,-0.56092"
           id="path5"
           style="fill:#01426a;fill-opacity:1;stroke-width:0.264583" />
        <path
           d="m 135.23041,55.808547 0.26458,-0.1905 c 0.1561,-0.11113 0.32015,-0.0926 0.4154,0.0423 v 0 c 0.10848,0.15346 0.0423,0.3175 -0.10584,0.42333 l -0.13229,0.0953 0.15346,0.21696 -0.11906,0.0847 -0.48154,-0.67204 z m 0.50535,0.16933 c 0.09,-0.0635 0.10848,-0.15346 0.0582,-0.2249 v 0 c -0.0556,-0.082 -0.14288,-0.082 -0.23019,-0.0185 l -0.13758,0.0979 0.17198,0.24077 0.13758,-0.0979 z"
           id="path6"
           style="fill:#01426a;fill-opacity:1;stroke-width:0.264583" />
        <path
           d="m 136.32843,55.573067 v 0 c -0.0926,-0.21431 -0.008,-0.46567 0.22489,-0.56886 0.23284,-0.10318 0.47096,0 0.56621,0.21432 v 0 c 0.0952,0.21431 0.008,0.46566 -0.22489,0.56885 -0.23284,0.10319 -0.47096,0 -0.56621,-0.21431 m 0.65087,-0.2884 v 0 c -0.0661,-0.14816 -0.22489,-0.22489 -0.37571,-0.1561 -0.15081,0.0661 -0.20108,0.23283 -0.13758,0.37835 v 0 c 0.0635,0.14817 0.2249,0.2249 0.37571,0.15611 0.15081,-0.0662 0.20108,-0.23284 0.13758,-0.37836"
           id="path7"
           style="fill:#01426a;fill-opacity:1;stroke-width:0.264583" />
        <polygon
           points="20.08,10.87 20.18,11.36 18.04,11.83 17.37,8.77 17.91,8.66 18.47,11.22 "
           id="polygon7"
           style="fill:#01426a;fill-opacity:1"
           transform="matrix(0.26458333,0,0,0.26458333,132.87297,52.371607)" />
        <polygon
           points="22.34,9.92 22.41,11.17 21.86,11.2 21.79,9.97 20.44,8.15 21.09,8.12 22.04,9.44 22.84,8.01 23.47,7.97 "
           id="polygon8"
           style="fill:#01426a;fill-opacity:1"
           transform="matrix(0.26458333,0,0,0.26458333,132.87297,52.371607)" />
        <polygon
           points="25.41,11.25 25.71,8.65 24.73,8.54 24.78,8.03 27.3,8.32 27.24,8.83 26.26,8.72 25.96,11.31 "
           id="polygon9"
           style="fill:#01426a;fill-opacity:1"
           transform="matrix(0.26458333,0,0,0.26458333,132.87297,52.371607)" />
        <polygon
           points="29.54,9.36 29.31,10.14 30.8,10.6 30.66,11.07 29.16,10.61 28.92,11.41 30.63,11.94 30.48,12.4 28.25,11.72 29.16,8.73 31.38,9.41 31.23,9.88 "
           id="polygon10"
           style="fill:#01426a;fill-opacity:1"
           transform="matrix(0.26458333,0,0,0.26458333,132.87297,52.371607)" />
        <path
           d="m 141.46134,55.424897 v 0 c 0.11113,-0.20902 0.35719,-0.29369 0.57944,-0.17727 0.13494,0.0714 0.1905,0.16404 0.2249,0.26723 l -0.13229,0.0503 c -0.0291,-0.0847 -0.0714,-0.1561 -0.15611,-0.20108 -0.14023,-0.0741 -0.30162,-0.0159 -0.37835,0.127 v 0 c -0.0767,0.14287 -0.0397,0.31485 0.10054,0.38893 0.09,0.0476 0.16669,0.0423 0.25929,0.0185 l 0.037,0.127 c -0.11906,0.037 -0.22754,0.0423 -0.36512,-0.0317 -0.21167,-0.11378 -0.28046,-0.36513 -0.16934,-0.57415"
           id="path10"
           style="fill:#01426a;fill-opacity:1;stroke-width:0.264583" />
        <polygon
           points="38.06,14.93 38.89,13.93 39.31,14.29 37.3,16.68 36.88,16.33 37.73,15.32 36.59,14.36 35.74,15.37 35.32,15.02 37.33,12.62 37.75,12.98 36.91,13.97 "
           id="polygon11"
           style="fill:#01426a;fill-opacity:1"
           transform="matrix(0.26458333,0,0,0.26458333,132.87297,52.371607)" />
        <polygon
           points="40.17,20.07 39.89,19.71 40.59,16.99 38.83,18.35 38.5,17.92 40.97,16.01 41.29,16.41 40.6,19.06 42.31,17.74 42.64,18.16 "
           id="polygon12"
           style="fill:#01426a;fill-opacity:1"
           transform="matrix(0.26458333,0,0,0.26458333,132.87297,52.371607)" />
        <rect
           x="98.643127"
           y="119.55699"
           width="0.82549995"
           height="0.14552084"
           transform="rotate(-28.48)"
           id="rect12"
           style="fill:#01426a;fill-opacity:1;stroke-width:0.264583" />
        <path
           d="m 144.25005,59.144937 c -0.0688,-0.0503 -0.12435,-0.12171 -0.1561,-0.21166 -0.082,-0.24077 0.0423,-0.47096 0.26194,-0.54505 v 0 c 0.2196,-0.0767 0.46302,0.0291 0.54504,0.26988 0.082,0.24077 -0.0423,0.47096 -0.26194,0.54504 v 0 c -0.0873,0.0317 -0.18256,0.0317 -0.26723,0.005 l -0.045,0.11642 -0.12964,-0.0556 0.0503,-0.12171 z m 0.0556,-0.13229 0.0688,-0.17198 0.12964,0.0529 -0.0767,0.17727 c 0.0503,0.0132 0.10584,0.008 0.15875,-0.0106 v 0 c 0.15082,-0.0529 0.24077,-0.20638 0.18786,-0.36248 -0.0529,-0.15611 -0.21431,-0.22225 -0.36777,-0.16934 v 0 c -0.15082,0.0529 -0.24077,0.20638 -0.18786,0.36248 0.0185,0.0503 0.0476,0.0926 0.0847,0.12171"
           id="path12"
           style="fill:#01426a;fill-opacity:1;stroke-width:0.264583" />
        <path
           d="m 144.66809,59.650297 0.47361,-0.0556 0.0159,0.14553 -0.46566,0.0556 c -0.15346,0.0185 -0.2249,0.10583 -0.20902,0.23548 0.0159,0.127 0.10054,0.19843 0.254,0.17991 l 0.4736,-0.0556 0.0159,0.14552 -0.46567,0.0556 c -0.24606,0.0291 -0.38365,-0.0953 -0.41011,-0.30956 -0.0238,-0.21431 0.082,-0.36512 0.32015,-0.39158"
           id="path13"
           style="fill:#01426a;fill-opacity:1;stroke-width:0.264583" />
        <polygon
           points="46.17,32.57 45.36,32.51 45.24,34.07 44.75,34.04 44.87,32.47 44.03,32.41 43.89,34.19 43.4,34.16 43.58,31.82 46.7,32.06 46.52,34.37 46.03,34.34 "
           id="polygon13"
           style="fill:#01426a;fill-opacity:1"
           transform="matrix(0.26458333,0,0,0.26458333,132.87297,52.371607)" />
        <rect
           x="24.776236"
           y="148.44316"
           width="0.82814586"
           height="0.14552084"
           transform="rotate(-54.66)"
           id="rect13"
           style="fill:#01426a;fill-opacity:1;stroke-width:0.264583" />
        <polygon
           points="8.07,44.61 8.39,44.94 8.03,47.73 9.61,46.16 9.99,46.54 7.77,48.74 7.41,48.38 7.76,45.67 6.23,47.2 5.85,46.81 "
           id="polygon14"
           style="fill:#01426a;fill-opacity:1"
           transform="matrix(0.26458333,0,0,0.26458333,132.87297,52.371607)" />
        <path
           d="m 134.67478,63.949777 -0.13494,-0.0159 c 0.0132,-0.10319 0.003,-0.1905 -0.0529,-0.27781 -0.0503,-0.0741 -0.11377,-0.10054 -0.16669,-0.0661 v 0 c -0.0503,0.0344 -0.0582,0.0794 -0.003,0.22754 0.0609,0.16934 0.0714,0.28046 -0.0556,0.36513 v 0 c -0.11906,0.0794 -0.26458,0.0344 -0.35454,-0.10319 -0.0661,-0.10054 -0.0873,-0.20108 -0.0794,-0.30691 l 0.13493,0.005 c -0.005,0.0926 0.0106,0.17198 0.0529,0.23283 0.0476,0.0714 0.11112,0.09 0.1561,0.0582 v 0 c 0.0529,-0.037 0.0556,-0.0847 0,-0.23548 -0.0608,-0.16933 -0.0582,-0.28046 0.0556,-0.35454 v 0 c 0.12964,-0.0873 0.27252,-0.0344 0.36777,0.10848 0.0688,0.10583 0.0979,0.23018 0.0794,0.35983"
           id="path14"
           style="fill:#01426a;fill-opacity:1;stroke-width:0.264583" />
        <polygon
           points="4.92,39.59 2.52,40.62 2.91,41.53 2.44,41.73 1.44,39.41 1.91,39.2 2.3,40.11 4.7,39.08 "
           id="polygon15"
           style="fill:#01426a;fill-opacity:1"
           transform="matrix(0.26458333,0,0,0.26458333,132.87297,52.371607)" />
        <rect
           x="112.11301"
           y="94.928253"
           width="0.82549995"
           height="0.14552084"
           transform="rotate(-15.200001)"
           id="rect15"
           style="fill:#01426a;fill-opacity:1;stroke-width:0.264583" />
        <polygon
           points="3.35,34.1 0.76,34.42 0.88,35.41 0.37,35.47 0.06,32.95 0.57,32.89 0.69,33.87 3.28,33.55 "
           id="polygon16"
           style="fill:#01426a;fill-opacity:1"
           transform="matrix(0.26458333,0,0,0.26458333,132.87297,52.371607)" />
        <path
           d="m 133.34922,60.645127 -0.47625,-0.0318 0.0106,-0.14552 0.46832,0.0291 c 0.15345,0.0106 0.24077,-0.0635 0.2487,-0.19314 0.008,-0.12965 -0.0635,-0.21167 -0.21695,-0.22225 l -0.47361,-0.0317 0.008,-0.14552 0.46831,0.0291 c 0.24606,0.0159 0.35983,0.16404 0.34661,0.37836 -0.0132,0.21431 -0.14553,0.34395 -0.3863,0.32808"
           id="path16"
           style="fill:#01426a;fill-opacity:1;stroke-width:0.264583" />
        <polygon
           points="3.74,26.53 1.21,25.87 0.96,26.83 0.46,26.7 1.1,24.25 1.6,24.38 1.35,25.34 3.88,26 "
           id="polygon17"
           style="fill:#01426a;fill-opacity:1"
           transform="matrix(0.26458333,0,0,0.26458333,132.87297,52.371607)" />
        <path
           d="m 137.21214,65.666917 0.32014,0.09 c 0.33073,0.0953 0.44979,0.30427 0.381,0.55033 v 0 c -0.0688,0.24871 -0.28839,0.37571 -0.62441,0.28046 l -0.30957,-0.0873 0.23548,-0.83344 z m 0.1561,0.68263 c 0.127,0.037 0.2249,0.008 0.25929,-0.11377 v 0 c 0.0344,-0.12171 -0.0344,-0.19844 -0.16139,-0.23548 l -0.0476,-0.0132 -0.0979,0.3466 0.0476,0.0132 z"
           id="path17"
           style="fill:#01426a;fill-opacity:1;stroke-width:0.264583" />
        <polygon
           points="22.06,52.3 22.05,52.63 23.64,52.71 23.6,53.5 22.01,53.42 21.99,53.78 23.73,53.86 23.68,54.76 20.87,54.62 21.03,51.35 23.82,51.49 23.78,52.38 "
           id="polygon18"
           style="fill:#01426a;fill-opacity:1"
           transform="matrix(0.26458333,0,0,0.26458333,132.87297,52.371607)" />
        <path
           d="m 140.26807,65.860067 0.37307,-0.11377 c 0.2196,-0.0661 0.39952,-0.0159 0.46037,0.18256 v 0 c 0.0609,0.20108 -0.0582,0.35454 -0.2831,0.42333 l -0.09,0.0265 0.0688,0.2249 -0.27781,0.0847 -0.254,-0.82814 z m 0.47625,0.29898 c 0.0714,-0.0212 0.10848,-0.0688 0.09,-0.127 v 0 c -0.0185,-0.0635 -0.0714,-0.0794 -0.14552,-0.0582 l -0.0767,0.0238 0.0556,0.18521 0.0741,-0.0238 z"
           id="path18"
           style="fill:#01426a;fill-opacity:1;stroke-width:0.264583" />
        <path
           d="m 141.55924,65.357357 0.24871,-0.14288 0.74877,0.57944 -0.27252,0.15611 -0.0979,-0.0794 -0.26458,0.15081 0.0185,0.12436 -0.26987,0.15346 -0.11378,-0.93927 z m 0.46567,0.37042 -0.17198,-0.14288 0.0344,0.22225 z"
           id="path19"
           style="fill:#01426a;fill-opacity:1;stroke-width:0.264583" />
        <path
           d="m 142.40326,64.822897 0.30956,-0.28839 c 0.11113,-0.10319 0.20902,-0.14288 0.29634,-0.14023 0.0741,0 0.13758,0.0317 0.19843,0.0952 v 0 c 0.0873,0.0953 0.0979,0.20373 0.0556,0.3122 l 0.34925,0.0767 -0.24077,0.2249 -0.2884,-0.0688 v 0 c 0,0 -0.0423,0.0423 -0.0423,0.0423 l 0.16933,0.17992 -0.21167,0.19844 -0.59002,-0.63236 z m 0.58473,0.0185 c 0.0503,-0.0476 0.0608,-0.0979 0.0238,-0.13758 v 0 c -0.037,-0.0423 -0.0873,-0.0317 -0.13758,0.0132 l -0.0926,0.0873 0.11641,0.12435 0.0926,-0.0847 z"
           id="path20"
           style="fill:#01426a;fill-opacity:1;stroke-width:0.264583" />
        <rect
           x="33.117325"
           y="153.34821"
           width="0.28839585"
           height="0.86518753"
           transform="rotate(-53.77)"
           id="rect20"
           style="fill:#01426a;fill-opacity:1;stroke-width:0.264583" />
        <g
           id="g2"
           transform="translate(-98.108281,-226.24258)">
          <path
             d="m 242.42977,289.941 -0.0979,-0.2196 c 0.10584,-0.0529 0.17992,-0.13759 0.2249,-0.22754 0.0238,-0.0476 0.0212,-0.0741 0,-0.082 v 0 c -0.0212,-0.0106 -0.0476,0.005 -0.10319,0.082 -0.12171,0.1561 -0.24606,0.28575 -0.4101,0.20637 v 0 c -0.14817,-0.0741 -0.20638,-0.24342 -0.10054,-0.46037 0.0741,-0.15082 0.16404,-0.24342 0.27781,-0.29898 l 0.11377,0.21166 c -0.09,0.0476 -0.1561,0.12436 -0.1905,0.1958 -0.0185,0.0397 -0.0132,0.0635 0.005,0.0714 v 0 c 0.0212,0.0106 0.045,-0.003 0.10054,-0.0767 0.1323,-0.18256 0.25665,-0.28575 0.41275,-0.21166 v 0 c 0.16405,0.0794 0.19844,0.26458 0.0952,0.4736 -0.0767,0.15875 -0.1905,0.27781 -0.32543,0.33602"
             id="path21"
             style="fill:#01426a;fill-opacity:1;stroke-width:0.264583" />
        </g>
        <rect
           x="147.41711"
           y="55.999054"
           width="0.40216666"
           height="2.2912917"
           id="rect21"
           style="fill:#01426a;fill-opacity:1;stroke-width:0.264583" />
        <polygon
           points="68.32,22.37 67.05,22.37 62.27,16.21 62.27,22.37 60.78,22.37 60.78,13.71 62.19,13.71 66.82,19.69 66.82,13.71 68.32,13.71 "
           id="polygon21"
           style="fill:#01426a;fill-opacity:1"
           transform="matrix(0.26458333,0,0,0.26458333,132.87297,52.371607)" />
        <path
           d="m 152.94162,56.959477 c -0.43921,-0.10583 -0.5424,-0.1852 -0.5424,-0.36247 0,-0.15082 0.13758,-0.27517 0.37306,-0.27517 0.20902,0 0.4154,0.082 0.62177,0.23548 l 0.21696,-0.30427 c -0.23283,-0.18786 -0.49742,-0.2884 -0.83079,-0.2884 -0.45508,0 -0.78317,0.27517 -0.78317,0.66675 0,0.42333 0.27517,0.56886 0.762,0.68792 0.42598,0.0979 0.51594,0.1905 0.51594,0.35454 0,0.17462 -0.1561,0.29104 -0.40481,0.29104 -0.28575,0 -0.50271,-0.10848 -0.72231,-0.29898 l -0.24342,0.2884 c 0.27517,0.24606 0.60589,0.36777 0.95514,0.36777 0.48155,0 0.81757,-0.25929 0.81757,-0.68792 0,-0.381 -0.25136,-0.55562 -0.73554,-0.67469"
           id="path22"
           style="fill:#01426a;fill-opacity:1;stroke-width:0.264583" />
        <polygon
           points="84.11,22.37 84.11,15.12 81.36,15.12 81.36,13.71 88.39,13.71 88.39,15.12 85.64,15.12 85.64,22.37 "
           id="polygon22"
           style="fill:#01426a;fill-opacity:1"
           transform="matrix(0.26458333,0,0,0.26458333,132.87297,52.371607)" />
        <rect
           x="157.14584"
           y="55.999054"
           width="0.40216666"
           height="2.2912917"
           id="rect22"
           style="fill:#01426a;fill-opacity:1;stroke-width:0.264583" />
        <polygon
           points="99.35,22.37 99.35,15.12 96.61,15.12 96.61,13.71 103.63,13.71 103.63,15.12 100.89,15.12 100.89,22.37 "
           id="polygon23"
           style="fill:#01426a;fill-opacity:1"
           transform="matrix(0.26458333,0,0,0.26458333,132.87297,52.371607)" />
        <path
           d="m 161.09872,57.316667 v -1.31762 h 0.40217 v 1.30175 c 0,0.42598 0.2196,0.65352 0.57943,0.65352 0.35984,0 0.5768,-0.21696 0.5768,-0.63765 v -1.31762 h 0.40216 v 1.2991 c 0,0.68527 -0.38629,1.02658 -0.98425,1.02658 -0.59796,0 -0.97631,-0.34395 -0.97631,-1.00806"
           id="path23"
           style="fill:#01426a;fill-opacity:1;stroke-width:0.264583" />
        <polygon
           points="119.89,22.37 119.89,15.12 117.14,15.12 117.14,13.71 124.17,13.71 124.17,15.12 121.42,15.12 121.42,22.37 "
           id="polygon24"
           style="fill:#01426a;fill-opacity:1"
           transform="matrix(0.26458333,0,0,0.26458333,132.87297,52.371607)" />
        <path
           d="m 148.32199,59.518007 h -0.90223 v 2.29129 h 0.40217 v -0.73554 h 0.45508 c 0.50536,0 0.91546,-0.27253 0.91546,-0.78582 0,-0.46037 -0.33602,-0.76993 -0.87048,-0.76993 m -0.0318,1.19062 h -0.46831 v -0.8255 h 0.46831 c 0.30163,0 0.49477,0.14288 0.49477,0.41275 0,0.23813 -0.1905,0.41275 -0.49477,0.41275"
           id="path24"
           style="fill:#01426a;fill-opacity:1;stroke-width:0.264583" />
        <path
           d="m 151.12128,59.478317 c -0.70379,0 -1.20121,0.54239 -1.20121,1.18798 0,0.64558 0.48948,1.18268 1.19327,1.18268 0.7038,0 1.20121,-0.54239 1.20121,-1.18797 0,-0.64559 -0.48948,-1.18005 -1.19327,-1.18005 m 0,1.99761 c -0.45508,0 -0.77787,-0.37306 -0.77787,-0.81756 0,-0.4445 0.3175,-0.81228 0.77258,-0.81228 0.45508,0 0.77788,0.37307 0.77788,0.81757 0,0.4445 -0.3175,0.81227 -0.77259,0.81227"
           id="path25"
           style="fill:#01426a;fill-opacity:1;stroke-width:0.264583" />
        <polygon
           points="82.98,34.28 82.98,35.66 76.91,35.66 76.91,27.01 78.43,27.01 78.43,34.28 "
           id="polygon25"
           style="fill:#01426a;fill-opacity:1"
           transform="matrix(0.26458333,0,0,0.26458333,132.87297,52.371607)" />
        <polygon
           points="88.62,32.21 88.62,35.66 87.08,35.66 87.08,32.25 83.64,27.01 85.44,27.01 87.86,30.84 90.31,27.01 92.05,27.01 "
           id="polygon26"
           style="fill:#01426a;fill-opacity:1"
           transform="matrix(0.26458333,0,0,0.26458333,132.87297,52.371607)" />
        <polygon
           points="97.17,35.66 97.17,28.42 94.43,28.42 94.43,27.01 101.45,27.01 101.45,28.42 98.71,28.42 98.71,35.66 "
           id="polygon27"
           style="fill:#01426a;fill-opacity:1"
           transform="matrix(0.26458333,0,0,0.26458333,132.87297,52.371607)" />
        <polygon
           points="106.32,28.37 106.32,30.62 110.66,30.62 110.66,31.98 106.32,31.98 106.32,34.3 111.28,34.3 111.28,35.66 104.79,35.66 104.79,27.01 111.21,27.01 111.21,28.37 "
           id="polygon28"
           style="fill:#01426a;fill-opacity:1"
           transform="matrix(0.26458333,0,0,0.26458333,132.87297,52.371607)" />
        <path
           d="m 165.02778,61.179587 c -0.19579,0.18256 -0.37571,0.29898 -0.65881,0.29898 -0.43921,0 -0.75671,-0.37042 -0.75671,-0.81756 0,-0.44715 0.3175,-0.81228 0.75671,-0.81228 0.26194,0 0.45773,0.11378 0.64029,0.28575 l 0.25929,-0.29897 c -0.2196,-0.20903 -0.4736,-0.35719 -0.89693,-0.35719 -0.69321,0 -1.18269,0.5371 -1.18269,1.18798 0,0.65087 0.49741,1.18004 1.16416,1.18004 0.42863,0 0.69057,-0.15611 0.92869,-0.40481 l -0.25929,-0.26194 z"
           id="path28"
           style="fill:#01426a;fill-opacity:1;stroke-width:0.264583" />
        <polygon
           points="131.49,30.61 131.49,27.01 133.01,27.01 133.01,35.66 131.49,35.66 131.49,32.02 127.35,32.02 127.35,35.66 125.83,35.66 125.83,27.01 127.35,27.01 127.35,30.61 "
           id="polygon29"
           style="fill:#01426a;fill-opacity:1"
           transform="matrix(0.26458333,0,0,0.26458333,132.87297,52.371607)" />
        <polygon
           points="144.9,35.66 143.63,35.66 138.85,29.5 138.85,35.66 137.36,35.66 137.36,27.01 138.77,27.01 143.4,32.99 143.4,27.01 144.9,27.01 "
           id="polygon30"
           style="fill:#01426a;fill-opacity:1"
           transform="matrix(0.26458333,0,0,0.26458333,132.87297,52.371607)" />
        <rect
           x="172.36469"
           y="59.518005"
           width="0.40216666"
           height="2.2912917"
           id="rect30"
           style="fill:#01426a;fill-opacity:1;stroke-width:0.264583" />
        <path
           d="m 175.83866,61.364797 c 0.15081,-0.19844 0.23283,-0.44715 0.23283,-0.70644 0,-0.64558 -0.49212,-1.18004 -1.19327,-1.18004 -0.70115,0 -1.20121,0.54239 -1.20121,1.18798 0,0.64558 0.48948,1.18004 1.19327,1.18004 0.26723,0 0.50271,-0.0794 0.69586,-0.21696 l 0.27516,0.24606 0.25929,-0.28839 z m -0.30957,-0.26723 -0.39687,-0.35984 -0.25929,0.29369 0.39158,0.33338 c -0.10848,0.0688 -0.24342,0.11112 -0.39158,0.11112 -0.45509,0 -0.77788,-0.37306 -0.77788,-0.81756 0,-0.4445 0.3175,-0.81227 0.77259,-0.81227 0.45508,0 0.77787,0.37306 0.77787,0.81756 0,0.1614 -0.0397,0.30956 -0.11906,0.43127"
           id="path30"
           style="fill:#01426a;fill-opacity:1;stroke-width:0.264583" />
        <path
           d="m 176.97901,60.835627 v -1.31762 h 0.40217 v 1.30175 c 0,0.42597 0.2196,0.65352 0.57944,0.65352 0.35983,0 0.57679,-0.21696 0.57679,-0.63765 v -1.31762 h 0.40216 v 1.2991 c 0,0.68527 -0.38629,1.02658 -0.98425,1.02658 -0.59795,0 -0.97631,-0.34396 -0.97631,-1.00806"
           id="path31"
           style="fill:#01426a;fill-opacity:1;stroke-width:0.264583" />
        <polygon
           points="179.38,28.37 179.38,30.62 183.72,30.62 183.72,31.98 179.38,31.98 179.38,34.3 184.34,34.3 184.34,35.66 177.86,35.66 177.86,27.01 184.28,27.01 184.28,28.37 "
           id="polygon31"
           style="fill:#01426a;fill-opacity:1"
           transform="matrix(0.26458333,0,0,0.26458333,132.87297,52.371607)" />
        <path
           d="m 148.30082,63.036957 h -0.8837 v 2.2913 h 0.87047 c 0.8255,0 1.3044,-0.49478 1.3044,-1.15623 0,-0.66146 -0.4736,-1.13507 -1.29381,-1.13507 m 0.0132,1.72773 h -0.25929 v -1.16416 h 0.25929 c 0.37835,0 0.63235,0.21695 0.63235,0.58208 0,0.36512 -0.25135,0.58208 -0.63235,0.58208"
           id="path32"
           style="fill:#01426a;fill-opacity:1;stroke-width:0.264583" />
        <polygon
           points="69.54,42.35 69.54,43.66 73.69,43.66 73.69,45.55 69.54,45.55 69.54,46.92 74.19,46.92 74.19,48.96 67.16,48.96 67.16,40.31 74.12,40.31 74.12,42.35 "
           id="polygon32"
           style="fill:#01426a;fill-opacity:1"
           transform="matrix(0.26458333,0,0,0.26458333,132.87297,52.371607)" />
        <path
           d="m 156.19599,63.036957 h -0.9816 v 2.2913 h 0.635 v -0.65353 h 0.31485 c 0.56885,0 0.98425,-0.28839 0.98425,-0.82814 0,-0.508 -0.37306,-0.80963 -0.9525,-0.80963 m -0.045,1.13771 h -0.30162 v -0.60589 h 0.29898 c 0.23018,0 0.36777,0.10848 0.36777,0.30427 0,0.17991 -0.13759,0.30162 -0.36248,0.30162"
           id="path33"
           style="fill:#01426a;fill-opacity:1;stroke-width:0.264583" />
        <path
           d="m 158.65926,63.018437 h 0.61119 l 0.97631,2.30717 h -0.67998 l -0.16669,-0.4101 h -0.8837 l -0.16405,0.4101 h -0.66675 l 0.97632,-2.30717 z m 0.55563,1.40494 -0.254,-0.65087 -0.2593,0.65087 z"
           id="path34"
           style="fill:#01426a;fill-opacity:1;stroke-width:0.264583" />
        <path
           d="m 162.6677,64.529207 c 0.28575,-0.1217 0.47096,-0.35718 0.47096,-0.70643 0,-0.50536 -0.3519,-0.78582 -0.94986,-0.78582 h -1.08214 v 2.2913 h 0.635 v -0.69321 h 0.27781 l 0.46037,0.69321 h 0.7329 l -0.54769,-0.79905 z m -0.508,-0.39423 h -0.41804 v -0.55033 h 0.41539 c 0.21167,0 0.34396,0.0953 0.34396,0.27517 0,0.16669 -0.12435,0.27516 -0.34131,0.27516"
           id="path35"
           style="fill:#01426a;fill-opacity:1;stroke-width:0.264583" />
        <rect
           x="164.27637"
           y="63.034302"
           width="0.63764584"
           height="2.2912917"
           id="rect35"
           style="fill:#01426a;fill-opacity:1;stroke-width:0.264583" />
        <path
           d="m 167.02539,63.899507 c -0.3175,-0.0714 -0.39688,-0.12171 -0.39688,-0.2249 0,-0.082 0.0741,-0.15081 0.23019,-0.15081 0.20373,0 0.43127,0.0794 0.64294,0.22489 l 0.3175,-0.44714 c -0.24871,-0.19844 -0.55298,-0.30427 -0.94192,-0.30427 -0.55033,0 -0.88635,0.30956 -0.88635,0.73554 0,0.47096 0.3757,0.61119 0.86518,0.72231 0.30957,0.0714 0.38629,0.127 0.38629,0.22225 0,0.0953 -0.0926,0.1614 -0.26193,0.1614 -0.26459,0 -0.51594,-0.0953 -0.74348,-0.27517 l -0.35454,0.42333 c 0.28045,0.25136 0.66675,0.37836 1.0742,0.37836 0.55563,0 0.92605,-0.28046 0.92605,-0.74877 0,-0.42863 -0.32809,-0.60325 -0.85461,-0.71702"
           id="path36"
           style="fill:#01426a;fill-opacity:1;stroke-width:0.264583" />
      </g>
    </g>
  </g>
</svg>
