<?xml version="1.0" encoding="UTF-8" standalone="no"?>
<!-- Created with Inkscape (http://www.inkscape.org/) -->

<svg
   width="254.35277mm"
   height="157.69167mm"
   viewBox="0 0 254.35277 157.69167"
   version="1.1"
   id="svg1"
   xml:space="preserve"
   sodipodi:docname="Latin_fin.svg"
   inkscape:version="1.3.2 (091e20e, 2023-11-25)"
   xmlns:inkscape="http://www.inkscape.org/namespaces/inkscape"
   xmlns:sodipodi="http://sodipodi.sourceforge.net/DTD/sodipodi-0.dtd"
   xmlns="http://www.w3.org/2000/svg"
   xmlns:svg="http://www.w3.org/2000/svg"><sodipodi:namedview
     id="namedview1"
     pagecolor="#ffffff"
     bordercolor="#000000"
     borderopacity="0.25"
     inkscape:showpageshadow="2"
     inkscape:pageopacity="0.0"
     inkscape:pagecheckerboard="0"
     inkscape:deskcolor="#d1d1d1"
     inkscape:document-units="mm"
     inkscape:zoom="1.8834318"
     inkscape:cx="563.06791"
     inkscape:cy="248.48258"
     inkscape:window-width="3008"
     inkscape:window-height="1639"
     inkscape:window-x="0"
     inkscape:window-y="25"
     inkscape:window-maximized="1"
     inkscape:current-layer="g1"><inkscape:page
       x="0"
       y="0"
       width="254.35277"
       height="157.69167"
       id="page2"
       margin="0"
       bleed="0" /></sodipodi:namedview><defs
     id="defs1" /><g
     id="g1"
     inkscape:groupmode="layer"
     inkscape:label="1"
     transform="matrix(0.26458333,0,0,0.26458334,7.9286267e-6,0)"><path
       id="path1"
       d="m 27.8516,33.5195 h 7160.39 v 4412.93 H 27.8516 Z"
       style="fill:#ffffff;fill-opacity:1;fill-rule:nonzero;stroke:none"
       transform="matrix(0.13333333,0,0,-0.13333333,0,596)" /><path
       id="path2"
       d="M 404.301,212.852 6541.02,2935"
       style="fill:#000000;fill-opacity:1;fill-rule:nonzero;stroke:#000000;stroke-width:39.5445;stroke-linecap:butt;stroke-linejoin:miter;stroke-miterlimit:4;stroke-dasharray:none;stroke-opacity:1"
       transform="matrix(0.13333333,0,0,-0.13333333,0,596)" /><path
       id="path3"
       d="m 2319.26,1052.81 c -84.22,1334.57 755.66,2290.47 2481.17,3101.49"
       style="fill:none;stroke:#004c9c;stroke-width:39.5445;stroke-linecap:butt;stroke-linejoin:miter;stroke-miterlimit:4;stroke-dasharray:none;stroke-opacity:1"
       transform="matrix(0.13333333,0,0,-0.13333333,0,596)" /><path
       id="path4"
       d="M 5715.94,2566.17 4190.59,3820.59"
       style="fill:none;stroke:#000000;stroke-width:11.1706;stroke-linecap:butt;stroke-linejoin:miter;stroke-miterlimit:4;stroke-dasharray:44.6821, 22.341;stroke-dashoffset:0;stroke-opacity:1"
       transform="matrix(0.13333333,0,0,-0.13333333,0,596)" /><path
       id="path5"
       d="m 4276.88,3749.61 62.89,6.13 -149.18,64.85 92.42,-133.87 z"
       style="fill:#000000;fill-opacity:1;fill-rule:evenodd;stroke:none"
       transform="matrix(0.13333333,0,0,-0.13333333,0,596)" /><path
       id="path6"
       d="m 4276.88,3749.57 62.89,6.17 -149.18,64.85 92.42,-133.87 z"
       style="fill:none;stroke:#000000;stroke-width:11.9152;stroke-linecap:butt;stroke-linejoin:miter;stroke-miterlimit:4;stroke-dasharray:none;stroke-opacity:1"
       transform="matrix(0.13333333,0,0,-0.13333333,0,596)" /><path
       id="path7"
       d="M 4190.59,3820.59 4008.24,1807.62"
       style="fill:none;stroke:#000000;stroke-width:11.1713;stroke-linecap:butt;stroke-linejoin:miter;stroke-miterlimit:4;stroke-dasharray:none;stroke-opacity:1"
       transform="matrix(0.13333333,0,0,-0.13333333,0,596)" /><path
       id="path8"
       d="m 4018.32,1918.87 -40.47,48.55 30.39,-159.8 58.64,151.72 z"
       style="fill:#000000;fill-opacity:1;fill-rule:evenodd;stroke:#000000;stroke-width:11.9161;stroke-linecap:butt;stroke-linejoin:miter;stroke-miterlimit:4;stroke-dasharray:none;stroke-opacity:1"
       transform="matrix(0.13333333,0,0,-0.13333333,0,596)" /><path
       id="path9"
       d="m 2335.86,1054.14 c 0,-10.08 -7.66,-18.2 -17.11,-18.2 -9.49,0 -17.15,8.12 -17.15,18.2 0,10.04 7.66,18.16 17.15,18.16 9.45,0 17.11,-8.12 17.11,-18.16 z"
       style="fill:#ff9f00;fill-opacity:1;fill-rule:nonzero;stroke:#007cff;stroke-width:1.00715;stroke-linecap:butt;stroke-linejoin:miter;stroke-miterlimit:4;stroke-dasharray:none;stroke-opacity:1"
       transform="matrix(0.13333333,0,0,-0.13333333,0,596)" /><path
       id="path10"
       d="m 3429.92,4102.81 5.28,5.31 -39.34,40.2 -39.57,-40.2 5.31,-5.31 34.26,30.08 z"
       style="fill:#000000;fill-opacity:1;fill-rule:evenodd;stroke:none"
       transform="matrix(0.13333333,0,0,-0.13333333,0,596)" /><path
       id="path11"
       d="m 3425.47,4053.79 -0.78,-0.08 -0.74,-0.04 -0.75,-0.12 -1.48,-0.39 -0.63,-0.23 -0.74,-0.23 -0.62,-0.24 -0.59,-0.27 -0.66,-0.35 -0.59,-0.39 -0.55,-0.36 -0.58,-0.39 -0.55,-0.43 -0.47,-0.43 -0.94,-0.93 -0.42,-0.47 -0.43,-0.55 -0.4,-0.47 -0.31,-0.54 -0.35,-0.59 -0.31,-0.51 -0.28,-0.62 -0.23,-0.51 -0.19,-0.59 -0.16,-0.62 -0.2,-0.59 -0.11,-0.58 -0.04,-0.67 -0.08,-0.58 v -0.59 c 0,-4.14 2.62,-8.55 9.18,-8.55 6.48,0 13.55,5.03 13.55,16.48 0,13.36 -12.69,25.39 -35.11,25.39 -39.03,0 -50,-30.08 -50,-43.05 0,-23.08 21.87,-27.54 30.43,-29.29 15.35,-2.97 30.78,-6.25 30.78,-22.43 0,-7.73 -6.76,-32.5 -42.31,-32.5 -4.14,0 -26.87,0 -33.75,15.67 11.33,-1.49 18.64,7.38 18.64,15.62 0,6.8 -4.69,10.39 -10.94,10.39 -7.7,0 -16.49,-6.21 -16.49,-19.57 0,-16.83 16.84,-28.63 42.23,-28.63 47.89,0 59.45,35.74 59.45,49.02 0,10.63 -5.62,18.05 -9.18,21.61 -7.97,8.24 -16.56,9.72 -29.57,12.42 -10.66,2.3 -22.42,4.41 -22.42,17.73 0,8.6 7.03,26.56 33.13,26.56 7.26,0 22.11,-2.03 26.56,-13.51 z"
       style="fill:#000000;fill-opacity:1;fill-rule:evenodd;stroke:none"
       transform="matrix(0.13333333,0,0,-0.13333333,0,596)" /><path
       id="path12"
       d="m 3473.95,3902.81 -0.08,-0.31 -0.12,-0.23 -0.04,-0.28 -0.08,-0.31 -0.11,-0.27 -0.08,-0.32 -0.12,-0.31 -0.04,-0.27 -0.19,-0.67 -0.16,-0.7 -0.2,-0.66 -0.11,-0.67 -0.12,-0.27 -0.04,-0.31 -0.08,-0.28 -0.04,-0.31 -0.07,-0.31 -0.04,-0.28 -0.08,-0.23 -0.04,-0.23 -0.08,-0.24 v -0.19 l -0.04,-0.16 v -0.2 l -0.08,-0.19 v -0.27 c 0,-4.54 3.68,-6.53 7.07,-6.53 3.68,0 6.92,2.66 8.05,4.49 1.02,1.84 2.7,8.44 3.67,12.82 1.02,3.86 3.28,13.4 4.57,18.63 1.21,4.49 2.5,9.06 3.52,13.83 2.19,8.47 2.66,10.08 8.59,18.63 5.86,8.24 15.59,18.99 31.1,18.99 11.91,0 12.11,-10.59 12.11,-14.5 0,-12.38 -8.79,-35.27 -12.11,-44.02 -2.31,-5.78 -3.17,-7.7 -3.17,-11.21 0,-10.9 9.14,-17.66 19.65,-17.66 20.63,0 29.73,28.4 29.73,31.57 0,2.73 -2.7,2.73 -3.21,2.73 -2.96,0 -3.16,-1.25 -4.06,-3.59 -4.69,-16.49 -13.55,-25 -21.8,-25 -4.41,0 -5.23,2.89 -5.23,7.22 0,4.73 1.02,7.42 4.73,16.8 2.5,6.41 11.05,28.28 11.05,39.84 0,20.12 -15.97,23.56 -26.87,23.56 -17.15,0 -28.75,-10.51 -34.92,-18.75 -1.49,14.18 -13.68,18.75 -22.19,18.75 -8.91,0 -13.6,-6.41 -16.33,-11.17 -4.49,-7.58 -7.42,-19.46 -7.42,-20.43 0,-2.7 2.93,-2.7 3.55,-2.7 2.85,0 3.05,0.66 4.53,6.17 3.09,12.27 7.07,22.39 15.12,22.39 5.39,0 6.76,-4.58 6.76,-10.12 0,-4.03 -1.84,-11.6 -3.32,-17.11 -1.41,-5.7 -3.44,-14.14 -4.57,-18.63 z"
       style="fill:#000000;fill-opacity:1;fill-rule:evenodd;stroke:none"
       transform="matrix(0.13333333,0,0,-0.13333333,0,596)" /><path
       id="path13"
       d="m 3690.39,3936.52 h 63.2 c 2.7,0 7.62,0 7.62,5.04 0,5.08 -4.76,5.08 -7.62,5.08 h -63.2 v 63.48 c 0,2.65 0,7.58 -5,7.58 -5.23,0 -5.23,-4.73 -5.23,-7.58 v -63.48 h -63.4 c -2.66,0 -7.66,0 -7.66,-4.92 0,-5.2 4.69,-5.2 7.66,-5.2 h 63.4 v -63.47 c 0,-2.7 0,-7.62 5,-7.62 5.23,0 5.23,4.77 5.23,7.62 z"
       style="fill:#000000;fill-opacity:1;fill-rule:evenodd;stroke:none"
       transform="matrix(0.13333333,0,0,-0.13333333,0,596)" /><path
       id="path14"
       d="m 3845.39,4021.25 v 1.68 l -0.08,0.19 v 0.75 l -0.04,0.19 v 0.35 l -0.07,0.12 v 0.31 l -0.08,0.12 -0.04,0.16 -0.08,0.23 -0.04,0.24 -0.12,0.19 -0.11,0.16 -0.12,0.19 -0.31,0.32 -0.16,0.11 -0.23,0.04 -0.2,0.12 -0.23,0.08 -0.32,0.04 -0.11,0.07 h -0.16 l -0.12,0.04 h -0.35 l -0.19,0.08 h -0.71 l -0.19,0.04 h -2.19 c -13.24,-13.05 -31.95,-13.2 -40.51,-13.2 v -7.42 c 5.04,0 18.64,0 29.96,5.7 V 3906.8 c 0,-6.88 0,-9.57 -20.66,-9.57 h -7.81 v -7.43 c 3.75,0.2 29.14,0.86 36.83,0.86 6.41,0 32.46,-0.66 36.96,-0.86 v 7.43 h -7.89 c -20.63,0 -20.63,2.69 -20.63,9.57 z"
       style="fill:#000000;fill-opacity:1;fill-rule:evenodd;stroke:none"
       transform="matrix(0.13333333,0,0,-0.13333333,0,596)" /><path
       id="path15"
       d="m 3997.11,4035.66 0.04,0.16 0.08,0.12 0.04,0.11 0.07,0.12 v 0.12 l 0.04,0.12 0.16,0.23 0.04,0.04 v 0.12 l 0.12,0.19 0.07,0.16 0.04,0.19 0.08,0.2 0.04,0.12 0.08,0.15 0.04,0.12 0.07,0.12 0.04,0.11 v 0.12 l 0.08,0.12 v 0.08 l 0.04,0.11 v 0.16 l 0.08,0.08 v 0.43 l 0.04,0.12 v 0.27 c 0,3.28 -2.74,5.23 -5.04,5.23 -3.48,0 -4.49,-2.5 -5.59,-5.23 l -77.11,-192.35 c -1.17,-2.73 -1.17,-3.16 -1.17,-3.98 0,-3.28 2.66,-5.23 4.92,-5.23 3.52,0 4.57,2.5 5.59,5.23 z"
       style="fill:#000000;fill-opacity:1;fill-rule:evenodd;stroke:none"
       transform="matrix(0.13333333,0,0,-0.13333333,0,596)" /><path
       id="path16"
       d="m 4118.95,3927.42 h -7.07 c -0.59,-4.49 -2.66,-16.8 -5.4,-18.79 -1.52,-1.21 -17.5,-1.21 -20.35,-1.21 h -38.12 c 21.72,19.18 28.94,24.92 41.33,34.65 15.31,12.23 29.61,25.04 29.61,44.69 0,25.04 -21.88,40.31 -48.4,40.31 -25.59,0 -43.01,-17.97 -43.01,-36.95 0,-10.63 8.91,-11.6 11.01,-11.6 4.93,0 10.94,3.55 10.94,10.97 0,3.67 -1.48,10.9 -12.22,10.9 6.4,14.65 20.46,19.14 30.19,19.14 20.7,0 31.45,-16.01 31.45,-32.77 0,-17.97 -12.78,-32.23 -19.46,-39.65 l -49.76,-49.22 c -2.15,-1.84 -2.15,-2.3 -2.15,-8.09 h 85.16 z"
       style="fill:#000000;fill-opacity:1;fill-rule:evenodd;stroke:none"
       transform="matrix(0.13333333,0,0,-0.13333333,0,596)" /><path
       id="path17"
       d="m 3887.97,1636.29 -0.74,-0.08 -0.71,-0.04 -0.78,-0.12 -0.7,-0.19 -0.74,-0.16 -0.71,-0.23 -0.66,-0.24 -0.63,-0.23 -0.66,-0.31 -1.17,-0.71 -0.63,-0.35 -0.5,-0.43 -0.55,-0.43 -0.55,-0.39 -0.47,-0.47 -0.47,-0.5 -0.39,-0.47 -0.43,-0.51 -0.35,-0.47 -0.35,-0.55 -0.35,-0.58 -0.31,-0.55 -0.24,-0.58 -0.23,-0.55 -0.24,-0.59 -0.19,-0.58 -0.12,-0.59 -0.23,-1.25 v -0.59 l -0.04,-0.62 c 0,-4.14 2.58,-8.52 9.18,-8.52 6.44,0 13.51,5.04 13.51,16.49 0,13.32 -12.69,25.39 -35.11,25.39 -39.03,0 -49.93,-30.08 -49.93,-43.09 0,-23.04 21.88,-27.5 30.36,-29.29 15.43,-2.97 30.78,-6.21 30.78,-22.43 0,-7.69 -6.76,-32.5 -42.23,-32.5 -4.22,0 -26.91,0 -33.75,15.67 11.25,-1.49 18.63,7.42 18.63,15.66 0,6.76 -4.76,10.39 -10.97,10.39 -7.66,0 -16.49,-6.25 -16.49,-19.61 0,-16.83 16.88,-28.63 42.27,-28.63 47.81,0 59.37,35.78 59.37,49.06 0,10.63 -5.62,18.01 -9.1,21.6 -8.01,8.25 -16.64,9.73 -29.61,12.39 -10.62,2.3 -22.42,4.45 -22.42,17.73 0,8.6 7.07,26.56 33.09,26.56 7.3,0 22.14,-1.99 26.56,-13.51 z"
       style="fill:#000000;fill-opacity:1;fill-rule:evenodd;stroke:none"
       transform="matrix(0.13333333,0,0,-0.13333333,0,596)" /><path
       id="path18"
       d="m 3936.45,1494.57 -0.04,-0.23 -0.12,-0.28 -0.08,-0.23 -0.08,-0.31 -0.11,-0.32 -0.04,-0.35 -0.12,-0.27 -0.08,-0.31 -0.16,-0.67 -0.19,-0.62 -0.16,-0.75 -0.11,-0.58 -0.12,-0.35 -0.08,-0.28 -0.04,-0.31 -0.08,-0.31 -0.04,-0.28 -0.07,-0.23 -0.04,-0.31 -0.08,-0.24 -0.08,-0.19 v -0.24 l -0.04,-0.15 v -0.2 l -0.08,-0.11 v -0.28 c 0,-4.57 3.71,-6.6 7.07,-6.6 3.68,0 6.96,2.66 8.09,4.49 0.98,1.92 2.66,8.52 3.67,12.82 1.02,3.94 3.24,13.47 4.57,18.63 1.17,4.57 2.5,9.1 3.48,13.83 2.23,8.55 2.69,10.07 8.63,18.63 5.86,8.24 15.59,18.98 31.06,18.98 11.91,0 12.11,-10.54 12.11,-14.49 0,-12.38 -8.79,-35.27 -12.11,-43.98 -2.31,-5.82 -3.13,-7.66 -3.13,-11.21 0,-10.94 9.14,-17.7 19.61,-17.7 20.66,0 29.73,28.4 29.73,31.6 0,2.7 -2.66,2.7 -3.21,2.7 -2.96,0 -3.12,-1.21 -4.02,-3.52 -4.69,-16.52 -13.59,-25.04 -21.84,-25.04 -4.37,0 -5.23,2.85 -5.23,7.27 0,4.69 1.02,7.38 4.77,16.72 2.5,6.4 11.01,28.28 11.01,39.84 0,20.12 -15.94,23.56 -26.87,23.56 -17.11,0 -28.75,-10.43 -34.92,-18.75 -1.49,14.25 -13.64,18.75 -22.19,18.75 -8.91,0 -13.6,-6.41 -16.29,-11.1 -4.53,-7.65 -7.42,-19.49 -7.42,-20.51 0,-2.69 2.89,-2.69 3.55,-2.69 2.85,0 3.01,0.66 4.49,6.25 3.09,12.23 7.07,22.3 15.12,22.3 5.43,0 6.8,-4.53 6.8,-10.07 0,-3.99 -1.84,-11.57 -3.32,-17.15 -1.45,-5.63 -3.48,-14.14 -4.57,-18.64 z"
       style="fill:#000000;fill-opacity:1;fill-rule:evenodd;stroke:none"
       transform="matrix(0.13333333,0,0,-0.13333333,0,596)" /><path
       id="path19"
       d="m 4152.89,1528.32 h 63.24 c 2.66,0 7.58,0 7.58,5 0,5.08 -4.73,5.08 -7.58,5.08 h -63.24 v 63.48 c 0,2.73 0,7.61 -4.96,7.61 -5.23,0 -5.23,-4.69 -5.23,-7.61 v -63.48 h -63.4 c -2.7,0 -7.66,0 -7.66,-4.92 0,-5.16 4.69,-5.16 7.66,-5.16 h 63.4 v -63.52 c 0,-2.65 0,-7.57 5,-7.57 5.19,0 5.19,4.72 5.19,7.57 z"
       style="fill:#000000;fill-opacity:1;fill-rule:evenodd;stroke:none"
       transform="matrix(0.13333333,0,0,-0.13333333,0,596)" /><path
       id="path20"
       d="m 4307.89,1613.05 v 1.64 l -0.08,0.19 v 0.78 l -0.04,0.16 v 0.35 l -0.07,0.12 v 0.31 l -0.04,0.16 -0.08,0.12 -0.04,0.27 -0.08,0.23 -0.12,0.16 -0.11,0.19 -0.12,0.16 -0.16,0.2 -0.11,0.11 -0.2,0.12 -0.23,0.12 -0.2,0.04 -0.23,0.07 -0.28,0.12 h -0.31 l -0.12,0.08 h -0.15 l -0.2,0.04 h -0.7 l -0.2,0.08 h -2.34 c -13.24,-13.09 -31.99,-13.25 -40.55,-13.25 v -7.42 c 5.04,0 18.64,0 29.96,5.75 v -105.4 c 0,-6.87 0,-9.53 -20.62,-9.53 h -7.85 v -7.42 c 3.75,0.16 29.14,0.82 36.83,0.82 6.41,0 32.46,-0.66 36.96,-0.82 v 7.42 h -7.89 c -20.63,0 -20.63,2.66 -20.63,9.53 z"
       style="fill:#000000;fill-opacity:1;fill-rule:evenodd;stroke:none"
       transform="matrix(0.13333333,0,0,-0.13333333,0,596)" /><path
       id="path21"
       d="m 5050.66,3525.98 v 2.61 l 0.04,1.18 0.08,1.13 0.04,1.05 0.08,1.02 0.12,0.98 0.23,1.71 0.23,0.75 0.2,0.74 0.27,0.62 0.32,0.59 0.7,1.09 0.43,0.47 0.51,0.43 0.54,0.39 0.59,0.31 0.66,0.36 0.71,0.23 0.78,0.24 0.43,0.11 0.39,0.12 0.43,0.08 0.47,0.04 0.47,0.11 0.54,0.08 0.51,0.04 0.55,0.08 0.54,0.04 0.59,0.08 h 0.59 l 0.58,0.04 h 0.67 l 0.66,0.07 h 0.7 l 0.67,0.04 h 3 c 2.62,0 7.7,0 7.7,5 0,5.28 -4.41,5.28 -9.77,5.28 h -80.39 c -5.27,0 -10,0 -10,-5.28 0,-5 5.55,-5 7.93,-5 16.8,0 18.05,-2.42 18.05,-16.83 v -65.9 h -71.48 v 65.9 c 0,14.72 1.13,16.83 18.28,16.83 2.65,0 7.65,0 7.65,5 0,5.28 -4.45,5.28 -9.72,5.28 h -80.32 c -5.43,0 -10.15,0 -10.15,-5.28 0,-5 5.7,-5 8.01,-5 16.83,0 18,-2.42 18,-16.83 v -148.13 l 10.35,-0.58 v 149.25 c 0,3.48 0,10.9 -2.34,16.29 h 32.19 c -2.35,-5.39 -2.35,-12.81 -2.35,-16.29 v -149.25 c 0,-3.48 0,-10.9 2.35,-16.18 h -32.19 c 2.34,5.28 2.34,12.7 2.34,16.18 l -10.35,0.58 c 0,-13.94 -0.86,-16.76 -16.52,-16.76 -4.45,0 -9.49,0 -9.49,-5.11 0,-5.28 4.72,-5.28 10.15,-5.28 h 80.32 c 5.27,0 9.72,0 9.72,5.28 0,5.11 -5,5.11 -8.24,5.11 -16.87,0 -17.69,2.58 -17.69,16.76 v 68.6 h 71.48 v -68.6 l 10.39,-0.58 v 149.25 c 0,3.48 0,10.9 -2.46,16.29 h 32.27 c -2.43,-5.39 -2.43,-12.81 -2.43,-16.29 v -149.25 c 0,-3.48 0,-10.9 2.43,-16.18 h -32.27 c 2.46,5.28 2.46,12.7 2.46,16.18 l -10.39,0.58 c 0,-13.94 -0.82,-16.76 -16.56,-16.76 -4.46,0 -9.42,0 -9.42,-5.11 0,-5.28 4.73,-5.28 10,-5.28 h 80.39 c 5.36,0 9.77,0 9.77,5.28 0,5.11 -5.08,5.11 -8.28,5.11 -16.92,0 -17.74,2.58 -17.74,16.76 z"
       style="fill:#000000;fill-opacity:1;fill-rule:evenodd;stroke:none"
       transform="matrix(0.13333333,0,0,-0.13333333,0,596)" /><path
       id="path22"
       d="m 5177.42,3504.14 h 63.24 c 2.66,0 7.58,0 7.58,5.04 0,5.12 -4.72,5.12 -7.58,5.12 h -63.24 v 63.47 c 0,2.66 0,7.58 -5,7.58 -5.19,0 -5.19,-4.73 -5.19,-7.58 v -63.47 h -63.36 c -2.74,0 -7.7,0 -7.7,-4.92 0,-5.24 4.73,-5.24 7.7,-5.24 h 63.36 v -63.48 c 0,-2.65 0,-7.57 5.04,-7.57 5.15,0 5.15,4.76 5.15,7.57 z"
       style="fill:#000000;fill-opacity:1;fill-rule:evenodd;stroke:none"
       transform="matrix(0.13333333,0,0,-0.13333333,0,596)" /><path
       id="path23"
       d="m 3875.35,3058.52 v 2.61 l 0.08,1.17 0.08,1.14 0.04,1.09 0.07,0.98 0.12,0.97 0.24,1.72 0.23,0.75 0.16,0.74 0.31,0.62 0.27,0.63 0.39,0.51 0.36,0.54 0.39,0.47 0.54,0.43 0.55,0.39 0.59,0.31 0.66,0.36 0.7,0.23 1.17,0.35 0.43,0.12 0.39,0.08 0.51,0.04 0.47,0.11 0.51,0.08 0.55,0.04 0.54,0.08 0.51,0.04 0.63,0.08 h 0.58 l 0.59,0.03 h 0.66 l 0.63,0.08 h 0.74 l 0.62,0.04 h 3.05 c 2.62,0 7.7,0 7.7,5 0,5.27 -4.46,5.27 -9.77,5.27 h -80.39 c -5.27,0 -10.04,0 -10.04,-5.27 0,-5 5.59,-5 7.97,-5 16.8,0 18.01,-2.42 18.01,-16.83 v -65.9 h -71.45 v 65.9 c 0,14.72 1.14,16.83 18.24,16.83 2.7,0 7.66,0 7.66,5 0,5.27 -4.45,5.27 -9.73,5.27 h -80.31 c -5.39,0 -10.15,0 -10.15,-5.27 0,-5 5.7,-5 8,-5 16.88,0 18.05,-2.42 18.05,-16.83 v -148.13 l 10.31,-0.59 v 149.26 c 0,3.48 0,10.9 -2.3,16.29 h 32.15 c -2.31,-5.39 -2.31,-12.81 -2.31,-16.29 V 2909.8 c 0,-3.47 0,-10.89 2.31,-16.17 h -32.15 c 2.3,5.28 2.3,12.7 2.3,16.17 l -10.31,0.59 c 0,-13.91 -0.9,-16.76 -16.56,-16.76 -4.42,0 -9.49,0 -9.49,-5.11 0,-5.28 4.76,-5.28 10.15,-5.28 h 80.31 c 5.28,0 9.73,0 9.73,5.28 0,5.11 -4.96,5.11 -8.24,5.11 -16.84,0 -17.66,2.58 -17.66,16.76 v 68.59 h 71.45 v -68.59 l 10.39,-0.59 v 149.26 c 0,3.48 0,10.9 -2.42,16.29 h 32.26 c -2.42,-5.39 -2.42,-12.81 -2.42,-16.29 V 2909.8 c 0,-3.47 0,-10.89 2.42,-16.17 h -32.26 c 2.42,5.28 2.42,12.7 2.42,16.17 l -10.39,0.59 c 0,-13.91 -0.82,-16.76 -16.53,-16.76 -4.45,0 -9.45,0 -9.45,-5.11 0,-5.28 4.77,-5.28 10.04,-5.28 h 80.39 c 5.31,0 9.77,0 9.77,5.28 0,5.11 -5.08,5.11 -8.29,5.11 -16.91,0 -17.77,2.58 -17.77,16.76 z"
       style="fill:#000000;fill-opacity:1;fill-rule:evenodd;stroke:none"
       transform="matrix(0.13333333,0,0,-0.13333333,0,596)" /><path
       id="path24"
       d="m 4060.16,3036.68 h 0.62 l 0.67,0.08 h 1.05 l 0.39,0.04 h 0.35 l 0.35,0.08 0.28,0.03 0.35,0.08 0.39,0.04 0.27,0.08 0.35,0.12 0.32,0.11 0.27,0.12 0.31,0.12 0.32,0.19 0.23,0.16 0.23,0.19 0.71,0.71 0.08,0.12 0.11,0.19 0.04,0.12 0.08,0.15 0.12,0.12 0.04,0.2 0.07,0.15 0.04,0.2 0.08,0.15 v 0.2 l 0.04,0.23 v 0.2 l 0.08,0.16 v 0.7 c 0,5.12 -4.69,5.12 -8.24,5.12 h -123.17 c -3.32,0 -8.24,0 -8.24,-4.93 0,-5.23 4.69,-5.23 8.24,-5.23 z"
       style="fill:#000000;fill-opacity:1;fill-rule:evenodd;stroke:none"
       transform="matrix(0.13333333,0,0,-0.13333333,0,596)" /><path
       id="path25"
       d="m 4049.21,-1789.52 -1118.9,-993.61"
       style="fill:none;stroke:#000000;stroke-width:10.1635;stroke-linecap:butt;stroke-linejoin:miter;stroke-miterlimit:4;stroke-dasharray:none;stroke-opacity:1"
       transform="matrix(0.1319844,0,0,0.13468267,0,596)" /><path
       id="path26"
       d="m 2975.9,2743.12 56.8,3.44 -132.04,64.73 78.6,-126.13 z"
       style="fill:#000000;fill-opacity:1;fill-rule:evenodd;stroke:none"
       transform="matrix(0.13333333,0,0,-0.13333333,0,596)" /><path
       id="path27"
       d="m 627.835,-5684.73 57.362,-57.38 -200.856,57.4 200.86,57.38 z"
       style="fill:none;stroke:#000000;stroke-width:15.3047;stroke-linecap:butt;stroke-linejoin:miter;stroke-miterlimit:4;stroke-dasharray:none;stroke-opacity:1"
       transform="matrix(0.06990653,0.0633468,-0.06207813,0.0713352,0,596)" /><path
       id="path28"
       d="M 2930.31,-2783.13 2803.48,-1242"
       style="fill:none;stroke:#000000;stroke-width:12.1408;stroke-linecap:butt;stroke-linejoin:miter;stroke-miterlimit:4;stroke-dasharray:none;stroke-opacity:1"
       transform="matrix(0.1319844,0,0,0.13468267,0,596)" /><path
       id="path29"
       d="m 2785,1376.8 -43.98,52.93 34.1,-175.16 61.72,167.11 z"
       style="fill:#000000;fill-opacity:1;fill-rule:evenodd;stroke:none"
       transform="matrix(0.13333333,0,0,-0.13333333,0,596)" /><path
       id="path30"
       d="m 1714.12,2903.92 52.39,-52.41 -183.35,52.38 183.35,52.39 z"
       style="fill:none;stroke:#000000;stroke-width:13.9686;stroke-linecap:butt;stroke-linejoin:miter;stroke-miterlimit:4;stroke-dasharray:none;stroke-opacity:1"
       transform="matrix(0.01003473,-0.12444227,0.12194987,0.0102398,0,596)" /><path
       id="path31"
       d="m 5747.27,2461.41 c -7.39,-0.47 -13.09,-6.57 -13.09,-12.66 0,-3.91 2.62,-8.28 8.75,-8.28 6.09,0 12.62,4.8 12.62,15.7 0,12.62 -11.76,23.95 -33.13,23.95 -36.6,0 -47.07,-28.32 -47.07,-40.51 0,-21.8 20.51,-25.74 28.79,-27.46 14.38,-3.05 28.75,-6.1 28.75,-21.37 0,-6.95 -6.09,-30.51 -39.65,-30.51 -3.94,0 -25.27,0 -31.83,14.85 10.89,-1.33 17.89,6.95 17.89,14.8 0,6.1 -4.81,9.57 -10.47,9.57 -7.42,0 -15.71,-5.66 -15.71,-18.28 0,-15.7 16.14,-27.03 39.69,-27.03 45.31,0 56.21,33.55 56.21,46.21 0,10 -5.23,16.99 -8.71,20.04 -7.42,7.85 -15.7,9.57 -27.89,11.76 -10.04,2.19 -20.94,4.37 -20.94,16.99 0,7.85 6.53,24.84 30.94,24.84 6.99,0 20.94,-2.18 24.85,-12.61 z"
       style="fill:#000000;fill-opacity:1;fill-rule:nonzero;stroke:none"
       transform="matrix(0.13333333,0,0,-0.13333333,0,596)" /><path
       id="path32"
       d="m 5869.26,2377.46 c 0,21.33 -2.62,37.03 -11.33,50.55 -6.09,8.71 -18.32,16.56 -33.55,16.56 -45.36,0 -45.36,-53.16 -45.36,-67.11 0,-13.94 0,-65.82 45.36,-65.82 44.88,0 44.88,51.88 44.88,65.82 z m -44.88,-60.16 c -9.18,0 -20.94,5.24 -24.85,20.9 -2.62,11.37 -2.62,27.46 -2.62,41.88 0,14.37 0,29.18 2.62,39.65 4.34,15.23 16.56,19.61 24.85,19.61 10.42,0 20.46,-6.53 23.94,-17.89 3.05,-10.43 3.52,-24.38 3.52,-41.37 0,-14.42 0,-28.79 -2.62,-40.98 -3.95,-17.89 -17.03,-21.8 -24.84,-21.8 z"
       style="fill:#000000;fill-opacity:1;fill-rule:nonzero;stroke:none"
       transform="matrix(0.13333333,0,0,-0.13333333,0,596)" /><path
       id="path33"
       d="m 2815.76,-1228.82 -423.7,-406.47"
       style="fill:none;stroke:#000000;stroke-width:14.5019;stroke-linecap:butt;stroke-linejoin:miter;stroke-miterlimit:4;stroke-dasharray:none;stroke-opacity:1"
       transform="matrix(0.13198427,0,0,0.13468267,0,596)" /><path
       id="path34"
       d="m 2471.45,1550.43 81.17,1.72 -184.77,99.69 105.27,-184.26 z"
       style="fill:#000000;fill-opacity:1;fill-rule:evenodd;stroke:none"
       transform="matrix(0.13333333,0,0,-0.13333333,0,596)" /><path
       id="path35"
       d="m 1044.94,-4009.94 82,-81.99 -287.047,82.01 287.067,82.01 z"
       style="fill:none;stroke:#000000;stroke-width:21.8714;stroke-linecap:butt;stroke-linejoin:miter;stroke-miterlimit:4;stroke-dasharray:none;stroke-opacity:1"
       transform="matrix(0.06736067,0.06594467,-0.064624,0.06873733,0,596)" /><path
       id="path36"
       d="m 2392.06,-1635.29 -11.13,541.2"
       style="fill:none;stroke:#000000;stroke-width:14.5019;stroke-linecap:butt;stroke-linejoin:miter;stroke-miterlimit:4;stroke-dasharray:none;stroke-opacity:1"
       transform="matrix(0.13198427,0,0,0.13468267,0,596)" /><path
       id="path37"
       d="m 2359.77,1251.64 -56.22,59.77 53.29,-206.25 61.52,203.86 z"
       style="fill:#000000;fill-opacity:1;fill-rule:evenodd;stroke:none"
       transform="matrix(0.13333333,0,0,-0.13333333,0,596)" /><path
       id="path38"
       d="m 1313.98,2405.86 59.17,-59.17 -207.16,59.18 207.18,59.18 z"
       style="fill:none;stroke:#000000;stroke-width:15.7832;stroke-linecap:butt;stroke-linejoin:miter;stroke-miterlimit:4;stroke-dasharray:none;stroke-opacity:1"
       transform="matrix(0.00265672,-0.13197107,0.12932787,0.00271103,0,596)" /><path
       id="path39"
       d="M 404.301,212.852 C 131.25,1780.51 836.051,3379.53 2652.38,4173.79"
       style="fill:none;stroke:#e73c30;stroke-width:47.9329;stroke-linecap:butt;stroke-linejoin:miter;stroke-miterlimit:4;stroke-dasharray:none;stroke-opacity:1"
       transform="matrix(0.13333333,0,0,-0.13333333,0,596)" /><path
       id="path40"
       d="M 2319.26,1052.81 718.48,2392.19"
       style="fill:none;stroke:#000000;stroke-width:11.1706;stroke-linecap:butt;stroke-linejoin:miter;stroke-miterlimit:4;stroke-dasharray:44.6821, 22.341;stroke-dashoffset:0;stroke-opacity:1"
       transform="matrix(0.13333333,0,0,-0.13333333,0,596)" /><path
       id="path41"
       d="m 804.141,2320.51 62.968,5.58 -148.629,66.1 91.25,-134.61 z"
       style="fill:#000000;fill-opacity:1;fill-rule:evenodd;stroke:#000000;stroke-width:11.9152;stroke-linecap:butt;stroke-linejoin:miter;stroke-miterlimit:4;stroke-dasharray:none;stroke-opacity:1"
       transform="matrix(0.13333333,0,0,-0.13333333,0,596)" /><path
       id="path42"
       d="M 727.539,2376.09 611.559,294.262"
       style="fill:none;stroke:#000000;stroke-width:11.1713;stroke-linecap:butt;stroke-linejoin:miter;stroke-miterlimit:4;stroke-dasharray:none;stroke-opacity:1"
       transform="matrix(0.13333333,0,0,-0.13333333,0,596)" /><path
       id="path43"
       d="m 617.77,405.781 -42.11,47.11 35.899,-158.629 53.32,153.668 z"
       style="fill:#000000;fill-opacity:1;fill-rule:evenodd;stroke:#000000;stroke-width:11.9161;stroke-linecap:butt;stroke-linejoin:miter;stroke-miterlimit:4;stroke-dasharray:none;stroke-opacity:1"
       transform="matrix(0.13333333,0,0,-0.13333333,0,596)" /><path
       id="path44"
       d="M 617.809,-291.314 371.095,-540.976"
       style="fill:none;stroke:#000000;stroke-width:14.5019;stroke-linecap:butt;stroke-linejoin:miter;stroke-miterlimit:4;stroke-dasharray:none;stroke-opacity:1"
       transform="matrix(0.13198427,0,0,0.13468267,0,596)" /><path
       id="path45"
       d="M 468.238,442.27 549.41,441.762 367.34,546.449 467.73,359.41 Z"
       style="fill:#000000;fill-opacity:1;fill-rule:evenodd;stroke:none"
       transform="matrix(0.13333333,0,0,-0.13333333,0,596)" /><path
       id="path46"
       d="m 29.7945,-911.037 82.0225,-81.98 -287.1,81.977 287.077,82.041 z"
       style="fill:none;stroke:#000000;stroke-width:21.8756;stroke-linecap:butt;stroke-linejoin:miter;stroke-miterlimit:4;stroke-dasharray:none;stroke-opacity:1"
       transform="matrix(0.0656012,0.06774013,-0.06638347,0.06694187,0,596)" /><path
       id="path47"
       d="m 371.095,-540.976 37.334,330.256"
       style="fill:none;stroke:#000000;stroke-width:14.5019;stroke-linecap:butt;stroke-linejoin:miter;stroke-miterlimit:4;stroke-dasharray:none;stroke-opacity:1"
       transform="matrix(0.13198427,0,0,0.13468267,0,596)" /><path
       id="path48"
       d="m 388.16,358.398 -63.512,51.641 79.653,-197.187 34.449,210.347 z"
       style="fill:#000000;fill-opacity:1;fill-rule:evenodd;stroke:none"
       transform="matrix(0.13333333,0,0,-0.13333333,0,596)" /><path
       id="path49"
       d="m 341.209,475.049 64.168,-64.164 -224.543,64.175 224.54,64.135 z"
       style="fill:none;stroke:#000000;stroke-width:17.1087;stroke-linecap:butt;stroke-linejoin:miter;stroke-miterlimit:4;stroke-dasharray:none;stroke-opacity:1"
       transform="matrix(-0.01340813,-0.12099987,0.1185764,-0.01368213,0,596)" /><path
       id="path50"
       d="m 2939.1,4335.23 h -201.09 v -12.11 h 9.1 c 29.65,0 30.86,-4.25 30.86,-18.16 v -202.3 c 0,-13.95 -1.21,-18.17 -30.86,-18.17 h -9.1 v -12.11 c 13.32,1.21 43.59,1.21 58.75,1.21 15.74,0 50.9,0 64.8,-1.21 v 12.11 h -12.69 c -36.37,0 -36.37,4.85 -36.37,18.17 v 205.31 c 0,12.73 0.62,15.15 18.79,15.15 h 39.96 c 55.12,0 63.01,-23 69.06,-75.11 h 9.69 z"
       style="fill:#e73c30;fill-opacity:1;fill-rule:nonzero;stroke:#e73c30;stroke-width:0.999998;stroke-linecap:butt;stroke-linejoin:miter;stroke-miterlimit:4;stroke-dasharray:none;stroke-opacity:1"
       transform="matrix(0.13333333,0,0,-0.13333333,0,596)" /><path
       id="path51"
       d="m 5066.45,4307.7 h -201.06 v -12.11 h 9.06 c 29.69,0 30.9,-4.22 30.9,-18.17 v -202.3 c 0,-13.91 -1.21,-18.17 -30.9,-18.17 h -9.06 v -12.11 c 13.32,1.21 43.59,1.21 58.71,1.21 15.78,0 50.9,0 64.85,-1.21 v 12.11 h -12.74 c -36.33,0 -36.33,4.85 -36.33,18.17 v 205.31 c 0,12.73 0.59,15.16 18.75,15.16 h 40 c 55.12,0 62.97,-23.01 69.03,-75.12 h 9.68 z"
       style="fill:#004c9c;fill-opacity:1;fill-rule:nonzero;stroke:none"
       transform="matrix(0.13333333,0,0,-0.13333333,0,596)" /><path
       id="path52"
       d="m 2435.27,883.711 c -7.54,-0.43 -13.28,-6.641 -13.28,-12.813 0,-3.988 2.66,-8.437 8.83,-8.437 6.21,0 12.85,4.879 12.85,15.937 0,12.852 -11.95,24.372 -33.63,24.372 -37.23,0 -47.85,-28.79 -47.85,-41.211 0,-22.11 20.82,-26.129 29.22,-27.887 14.64,-3.082 29.25,-6.211 29.25,-21.684 0,-7.109 -6.21,-31.008 -40.31,-31.008 -3.98,0 -25.7,0 -32.34,15.04 11.09,-1.329 18.16,7.101 18.16,15.07 0,6.211 -4.88,9.73 -10.62,9.73 -7.54,0 -15.94,-5.738 -15.94,-18.59 0,-15.941 16.37,-27.46 40.31,-27.46 46.06,0 57.11,34.101 57.11,46.949 0,10.191 -5.31,17.261 -8.87,20.39 -7.5,7.973 -15.93,9.731 -28.32,11.95 -10.19,2.191 -21.25,4.421 -21.25,17.273 0,7.969 6.64,25.227 31.45,25.227 7.07,0 21.25,-2.18 25.23,-12.848 z"
       style="fill:#000000;fill-opacity:1;fill-rule:nonzero;stroke:none"
       transform="matrix(0.13333333,0,0,-0.13333333,0,596)" /><path
       id="path53"
       d="m 2544.18,925.512 c 4.41,0 5.74,0 5.74,3.976 0,17.742 -9.72,38.992 -39.41,38.992 -25.71,0 -45.63,-20.359 -45.63,-44.73 0,-25.23 22.15,-45.199 48.28,-45.199 26.57,0 36.76,21.289 36.76,25.711 0,0.429 -0.43,2.648 -3.55,2.648 -2.66,0 -3.09,-1.32 -3.52,-3.078 -6.21,-15.941 -21.25,-19.062 -28.36,-19.062 -9.29,0 -18.16,3.98 -23.9,11.519 -7.54,9.301 -7.54,21.25 -7.54,29.223 z m -61.13,4.879 c 2.22,27.89 19.92,32.339 27.46,32.339 24.37,0 25.23,-27.46 25.7,-32.339 z"
       style="fill:#000000;fill-opacity:1;fill-rule:nonzero;stroke:none"
       transform="matrix(0.13333333,0,0,-0.13333333,0,596)" /><path
       id="path54"
       d="m 2624.65,924.648 -1.33,1.762 c 0,0.891 12.85,14.61 14.61,16.36 7.07,8.011 13.75,15.511 29.69,15.511 v 7.11 c -5.78,-0.469 -11.53,-0.903 -16.84,-0.903 -5.78,0 -13.75,0.434 -19.49,0.903 v -7.11 c 3.09,-0.429 3.98,-2.66 3.98,-4.41 0,-0.43 0,-3.562 -3.08,-6.641 l -13.75,-15.511 -16.37,18.59 c -2.23,2.23 -2.23,3.132 -2.23,3.992 0,2.648 2.66,3.98 5.32,3.98 v 7.11 c -7.07,-0.469 -14.61,-0.903 -22.15,-0.903 -5.74,0 -13.28,0.434 -19.06,0.903 v -7.11 c 8.86,0 14.17,0 19.49,-5.742 l 24.37,-28.359 c 0.43,-0.43 1.76,-1.758 1.76,-2.192 0,-0.468 -15.04,-16.828 -16.84,-19.058 -7.5,-7.969 -14.14,-15.039 -29.64,-15.508 v -7.07 c 5.74,0.429 10.19,0.859 16.36,0.859 5.78,0 13.75,-0.43 19.5,-0.859 v 7.07 c -2.19,0.469 -3.99,1.797 -3.99,4.457 0,3.98 2.23,6.641 5.31,9.723 l 14.18,15.507 16.84,-19.918 c 3.98,-3.992 3.98,-4.461 3.98,-5.781 0,-3.519 -4.41,-3.988 -5.31,-3.988 v -7.07 c 1.76,0 15.94,0.859 22.15,0.859 6.21,0 12.85,-0.43 19.02,-0.859 v 7.07 c -13.28,0 -14.61,1.328 -19.45,6.207 z"
       style="fill:#000000;fill-opacity:1;fill-rule:nonzero;stroke:none"
       transform="matrix(0.13333333,0,0,-0.13333333,0,596)" /><path
       id="path55"
       d="m 2764.57,933.48 c 0,10.192 0,17.731 -9.34,25.27 -7.96,6.641 -17.26,9.73 -29.21,9.73 -18.6,0 -31.88,-7.07 -31.88,-19.031 0,-6.679 4.41,-9.758 9.73,-9.758 5.31,0 9.29,3.981 9.29,9.289 0,3.129 -1.75,7.54 -7.07,8.872 7.07,4.878 18.6,4.878 19.5,4.878 11.05,0 23.47,-7.109 23.47,-23.941 v -5.738 c -11.09,-0.43 -23.94,-1.332 -38.55,-6.641 -17.7,-6.211 -23.01,-17.269 -23.01,-26.14 0,-16.829 20.35,-21.719 34.53,-21.719 15.51,0 24.81,8.871 29.22,16.41 0.47,-7.973 5.78,-15.512 15.08,-15.512 0.43,0 19.49,0 19.49,18.602 v 11.09 h -6.64 V 898.52 c 0,-2.231 0,-11.532 -7.54,-11.532 -7.07,0 -7.07,9.301 -7.07,11.532 z m -15.51,-25.242 c 0,-19.019 -16.83,-24.367 -25.7,-24.367 -10.2,0 -19.49,6.68 -19.49,16.399 0,11.062 9.29,26.14 45.19,27.46 z"
       style="fill:#000000;fill-opacity:1;fill-rule:nonzero;stroke:none"
       transform="matrix(0.13333333,0,0,-0.13333333,0,596)" /><path
       id="path56"
       d="m 2865.62,959.18 c -3.55,-1.758 -5.31,-4.879 -5.31,-8.871 0,-5.309 3.52,-9.289 9.3,-9.289 5.31,0 9.3,3.55 9.3,9.761 0,17.699 -27.46,17.699 -32.78,17.699 -29.68,0 -47.85,-22.582 -47.85,-45.628 0,-24.801 20.82,-44.301 46.95,-44.301 29.26,0 36.33,23.051 36.33,25.711 0,2.218 -2.65,2.218 -3.55,2.218 -2.66,0 -2.66,-0.46 -3.52,-3.55 -4.45,-11.95 -15.08,-18.16 -27.03,-18.16 -13.75,0 -31.44,10.191 -31.44,38.55 0,24.801 12.38,38.95 30.54,38.95 2.66,0 11.96,0 19.06,-3.09 z"
       style="fill:#000000;fill-opacity:1;fill-rule:nonzero;stroke:none"
       transform="matrix(0.13333333,0,0,-0.13333333,0,596)" /><path
       id="path57"
       d="m 2929.26,958.281 h 30.54 v 7.11 h -30.54 v 36.329 h -7.07 c 0,-17.74 -8.01,-37.232 -27.03,-37.661 v -5.778 h 18.16 V 905.16 c 0,-22.148 16.84,-26.609 27.89,-26.609 13.28,0 22.15,11.097 22.15,26.609 v 11.051 h -6.64 V 905.59 c 0,-13.711 -6.21,-20.82 -14.18,-20.82 -13.28,0 -13.28,16.402 -13.28,19.921 z"
       style="fill:#000000;fill-opacity:1;fill-rule:nonzero;stroke:none"
       transform="matrix(0.13333333,0,0,-0.13333333,0,596)" /><path
       id="path58"
       d="m 865.199,237.539 c -7.5,-0.469 -13.289,-6.641 -13.289,-12.848 0,-3.992 2.66,-8.402 8.871,-8.402 6.207,0 12.848,4.84 12.848,15.941 0,12.852 -11.949,24.329 -33.668,24.329 -37.191,0 -47.852,-28.789 -47.852,-41.168 0,-22.149 20.821,-26.129 29.262,-27.891 14.609,-3.121 29.219,-6.211 29.219,-21.719 0,-7.07 -6.211,-31.011 -40.32,-31.011 -3.981,0 -25.661,0 -32.301,15.07 11.051,-1.32 18.16,7.07 18.16,15.039 0,6.211 -4.879,9.769 -10.66,9.769 -7.5,0 -15.938,-5.777 -15.938,-18.628 0,-15.938 16.41,-27.43 40.309,-27.43 46.058,0 57.148,34.109 57.148,46.922 0,10.187 -5.308,17.297 -8.867,20.386 -7.531,7.973 -15.93,9.723 -28.351,11.954 -10.2,2.23 -21.25,4.418 -21.25,17.269 0,7.969 6.64,25.27 31.441,25.27 7.07,0 21.25,-2.231 25.238,-12.852 z"
       style="fill:#000000;fill-opacity:1;fill-rule:nonzero;stroke:none"
       transform="matrix(0.13333333,0,0,-0.13333333,0,596)" /><path
       id="path59"
       d="m 974.102,279.34 c 4.449,0 5.777,0 5.777,3.98 0,17.7 -9.758,38.981 -39.41,38.981 -25.699,0 -45.629,-20.391 -45.629,-44.762 0,-25.238 22.148,-45.16 48.281,-45.16 26.57,0 36.758,21.25 36.758,25.672 0,0.469 -0.469,2.648 -3.551,2.648 -2.656,0 -3.09,-1.32 -3.558,-3.078 -6.168,-15.941 -21.25,-19.031 -28.321,-19.031 -9.328,0 -18.16,3.992 -23.937,11.492 -7.5,9.297 -7.5,21.289 -7.5,29.258 z m -61.09,4.84 c 2.187,27.929 19.918,32.34 27.457,32.34 24.332,0 25.23,-27.461 25.66,-32.34 z"
       style="fill:#000000;fill-opacity:1;fill-rule:nonzero;stroke:none"
       transform="matrix(0.13333333,0,0,-0.13333333,0,596)" /><path
       id="path60"
       d="m 1054.57,278.441 -1.33,1.758 c 0,0.891 12.85,14.641 14.65,16.403 7.07,7.968 13.71,15.507 29.65,15.507 v 7.071 c -5.74,-0.43 -11.52,-0.899 -16.84,-0.899 -5.74,0 -13.71,0.469 -19.49,0.899 v -7.071 c 3.13,-0.468 3.99,-2.66 3.99,-4.449 0,-0.43 0,-3.519 -3.09,-6.64 l -13.71,-15.508 -16.41,18.629 c -2.22,2.191 -2.22,3.089 -2.22,3.98 0,2.66 2.65,3.988 5.31,3.988 v 7.071 c -7.07,-0.43 -14.61,-0.899 -22.11,-0.899 -5.78,0 -13.322,0.469 -19.06,0.899 v -7.071 c 8.86,0 14.18,0 19.49,-5.777 l 24.33,-28.32 c 0.47,-0.473 1.8,-1.801 1.8,-2.231 0,-0.429 -15.08,-16.832 -16.83,-19.062 -7.54,-7.969 -14.18,-15.039 -29.688,-15.469 v -7.109 c 5.777,0.468 10.188,0.898 16.398,0.898 5.75,0 13.71,-0.43 19.5,-0.898 v 7.109 c -2.23,0.43 -3.99,1.762 -3.99,4.41 0,3.988 2.19,6.641 5.31,9.731 l 14.18,15.507 16.8,-19.918 c 3.99,-3.988 3.99,-4.421 3.99,-5.75 0,-3.55 -4.42,-3.98 -5.32,-3.98 v -7.109 c 1.8,0 15.98,0.898 22.15,0.898 6.21,0 12.85,-0.43 19.06,-0.898 v 7.109 c -13.28,0 -14.61,1.332 -19.49,6.172 z"
       style="fill:#000000;fill-opacity:1;fill-rule:nonzero;stroke:none"
       transform="matrix(0.13333333,0,0,-0.13333333,0,596)" /><path
       id="path61"
       d="m 1194.49,287.301 c 0,10.199 0,17.699 -9.29,25.238 -7.97,6.641 -17.27,9.762 -29.22,9.762 -18.64,0 -31.92,-7.102 -31.92,-19.059 0,-6.64 4.46,-9.722 9.77,-9.722 5.31,0 9.29,3.98 9.29,9.289 0,3.089 -1.79,7.5 -7.1,8.832 7.1,4.879 18.63,4.879 19.49,4.879 11.09,0 23.47,-7.071 23.47,-23.899 v -5.781 c -11.05,-0.43 -23.9,-1.328 -38.51,-6.641 -17.74,-6.179 -23.05,-17.269 -23.05,-26.14 0,-16.789 20.39,-21.68 34.57,-21.68 15.47,0 24.77,8.871 29.22,16.371 0.43,-7.969 5.74,-15.508 15.04,-15.508 0.47,0 19.49,0 19.49,18.637 v 11.051 h -6.64 v -10.629 c 0,-2.219 0,-11.52 -7.54,-11.52 -7.07,0 -7.07,9.301 -7.07,11.52 z m -15.51,-25.27 c 0,-19.019 -16.83,-24.332 -25.66,-24.332 -10.2,0 -19.49,6.641 -19.49,16.36 0,11.101 9.29,26.14 45.15,27.461 z"
       style="fill:#000000;fill-opacity:1;fill-rule:nonzero;stroke:none"
       transform="matrix(0.13333333,0,0,-0.13333333,0,596)" /><path
       id="path62"
       d="m 1295.55,312.969 c -3.52,-1.758 -5.32,-4.848 -5.32,-8.828 0,-5.309 3.56,-9.301 9.3,-9.301 5.31,0 9.3,3.519 9.3,9.73 0,17.731 -27.46,17.731 -32.78,17.731 -29.64,0 -47.81,-22.61 -47.81,-45.621 0,-24.801 20.82,-44.301 46.96,-44.301 29.21,0 36.28,23.012 36.28,25.672 0,2.219 -2.65,2.219 -3.51,2.219 -2.66,0 -2.66,-0.43 -3.56,-3.551 -4.41,-11.949 -15.03,-18.129 -27.03,-18.129 -13.71,0 -31.44,10.16 -31.44,38.519 0,24.801 12.42,38.981 30.58,38.981 2.66,0 11.96,0 19.03,-3.121 z"
       style="fill:#000000;fill-opacity:1;fill-rule:nonzero;stroke:none"
       transform="matrix(0.13333333,0,0,-0.13333333,0,596)" /><path
       id="path63"
       d="m 1359.18,312.109 h 30.59 v 7.071 h -30.59 v 36.332 h -7.07 c 0,-17.742 -7.97,-37.231 -27.03,-37.66 v -5.743 h 18.16 v -53.16 c 0,-22.148 16.84,-26.57 27.93,-26.57 13.28,0 22.15,11.062 22.15,26.57 v 11.09 h -6.68 v -10.66 c 0,-13.719 -6.17,-20.789 -14.14,-20.789 -13.32,0 -13.32,16.371 -13.32,19.93 z"
       style="fill:#000000;fill-opacity:1;fill-rule:nonzero;stroke:none"
       transform="matrix(0.13333333,0,0,-0.13333333,0,596)" /><path
       id="path64"
       d="m 6741.91,2783.63 c 2.19,-29.14 7.27,-50.27 10.2,-59.02 5.12,-21.13 7.3,-31.33 26.99,-31.33 21.13,0 56.84,21.13 56.84,29.88 0,2.89 -1.45,3.64 -4.38,3.64 -5.82,0 -15.31,-5.12 -16.76,-5.82 -3.63,-2.19 -4.37,-2.19 -5.11,-2.19 -13.13,0 -16.02,12.38 -21.88,40.08 -2.89,16.01 -7.26,34.25 -10.9,97.65 -2.93,48.13 -5.11,95.51 -5.11,142.86 0,10.93 0.74,23.35 0.74,34.25 0,7.31 0,9.49 -5.12,9.49 -6.56,0 -25.51,-8 -34.26,-20.39 l -2.93,-5.11 c -37.14,-78.71 -71.4,-134.85 -95.46,-172.74 -27.7,-42.3 -75.82,-118.08 -101.33,-118.08 -16.76,0 -31.33,10.93 -35.71,27.69 0,0.74 -1.44,3.63 -2.93,3.63 -7.26,0 -17.46,-21.87 -17.46,-34.96 0,-18.98 20.39,-39.37 42.27,-39.37 32.07,0 85.27,83.83 95.47,99.84 z m -9.49,201.92 v -26.96 c 0,-26.99 0.74,-53.94 2.19,-80.93 0.74,-9.46 2.19,-43.71 4.37,-68.52 h -84.53 c -8,0 -14.57,0 -26.99,-7.26 32.81,50.27 59.77,98.39 62.7,103.47 23.32,41.56 35.7,68.52 41.56,80.2 z"
       style="fill:#000000;fill-opacity:1;fill-rule:nonzero;stroke:none"
       transform="matrix(0.13333333,0,0,-0.13333333,0,596)" /><path
       id="path65"
       d="m 7021.88,2853.16 c 0,0.75 0.74,5.12 0.74,5.12 0,2.19 -0.74,5.08 -5.12,5.08 -6.56,0 -33.52,-2.89 -41.52,-3.63 -2.19,0 -7.31,-0.75 -7.31,-7.31 0,-4.33 5.12,-4.33 8.75,-4.33 15.31,0 15.31,-2.93 15.31,-5.12 0,-2.19 0,-4.38 -0.74,-7.31 l -18.94,-74.33 c -6.57,10.94 -17.5,19.69 -33.52,19.69 -41.56,0 -83.83,-45.94 -83.83,-92.58 0,-32.07 21.14,-53.95 49.57,-53.95 17.5,0 32.78,9.49 45.9,22.62 5.86,-19.69 24.81,-22.62 33.56,-22.62 11.64,0 19.65,6.56 25.5,16.8 7.27,13.09 11.65,31.33 11.65,32.77 0,4.38 -4.38,4.38 -5.08,4.38 -5.12,0 -5.12,-1.45 -7.31,-10.2 -4.37,-16.05 -10.19,-35 -24.06,-35 -8.01,0 -10.94,7.31 -10.94,16.06 0,5.82 0.74,8.75 2.19,13.12 z m -69.22,-174.92 c -2.19,-9.49 -9.5,-16.05 -16.8,-21.87 -2.89,-2.89 -16.02,-13.13 -29.88,-13.13 -12.39,0 -24.03,8.75 -24.03,31.37 0,17.46 9.46,53.2 17.5,66.33 14.57,26.21 31.33,30.58 40.08,30.58 22.58,0 29.14,-24.76 29.14,-28.4 0,-0.74 -0.74,-3.67 -0.74,-4.37 z"
       style="fill:#000000;fill-opacity:1;fill-rule:nonzero;stroke:none"
       transform="matrix(0.13333333,0,0,-0.13333333,0,596)" /><text
       id="text65"
       xml:space="preserve"
       transform="matrix(1.3333333,0,0,1.3333333,326.95333,501.44373)"><tspan
         style="font-variant:normal;font-weight:normal;font-size:15.4111px;font-family:'Times New Roman';writing-mode:lr-tb;fill:#000000;fill-opacity:1;fill-rule:nonzero;stroke:none"
         x="0 5.1318965 9.4161825 14.548079"
         y="0"
         sodipodi:role="line"
         id="tspan65">(j) </tspan><tspan
         style="font-variant:normal;font-weight:normal;font-size:11.409px;font-family:'Times New Roman';writing-mode:lr-tb;fill:#000000;fill-opacity:1;fill-rule:nonzero;stroke:none"
         x="-158.20599 -154.4068 -148.7023"
         y="59.962898"
         sodipodi:role="line"
         id="tspan66">(k)</tspan></text><text
       id="text66"
       xml:space="preserve"
       transform="matrix(1.3333333,0,0,1.3333333,387.964,65.162667)"><tspan
         style="font-variant:normal;font-weight:normal;font-size:24.6085px;font-family:'Times New Roman';writing-mode:lr-tb;fill:#e73c30;fill-opacity:1;fill-rule:nonzero;stroke:none"
         x="0 8.1946306 20.49888"
         y="0"
         sodipodi:role="line"
         id="tspan67">(k)</tspan></text><text
       id="text67"
       xml:space="preserve"
       transform="matrix(1.3333333,0,0,1.3333333,672.69067,67.225333)"><tspan
         style="font-variant:normal;font-weight:normal;font-size:23.628px;font-family:'Times New Roman';writing-mode:lr-tb;fill:#004c9c;fill-opacity:1;fill-rule:nonzero;stroke:none"
         x="0 7.868124 14.436708 22.304832"
         y="0"
         sodipodi:role="line"
         id="tspan68">(j) </tspan></text><g
       id="g3"
       transform="translate(745.75154,384.139)"><g
         id="Calque_1">
</g><g
         id="_x32_.2">
	<rect
   class="st0"
   width="200.05"
   height="200.05"
   id="rect1"
   x="0"
   y="0" />
	<g
   id="g2">
		<path
   class="st1"
   d="m 59.33,113.55 c 11.94,0 22.08,-6.55 23.93,-7.75 1.28,2.24 6.36,7.75 17.35,7.75 8.7,0 18.35,-4.33 21.57,-6.41 1.97,2.64 6.01,6.42 18.33,6.42 8.14,0 13.3,-2.82 16.54,-6.71 0.06,2.05 0.14,4.04 0.23,5.57 l 4.93,0.76 c -0.16,-5.14 -0.03,-22.94 -0.03,-23.21 0,-22.36 -17,-23.94 -20.56,-23.94 -5.53,0 -10.86,1.15 -16.47,3.36 l -0.4,5.89 c 2.18,-1.02 9.18,-4.03 16.16,-4.03 5.49,0 9.72,1.84 12.59,5.48 -18.9,9.94 -30.18,17.94 -31.88,24.57 -4.84,3.27 -13.36,7.05 -20.95,7.05 -8.08,0 -11.56,-3.49 -13.07,-5.52 20.74,-13.95 31.49,-22 30.17,-28.36 -1.18,-5.73 -9.7,-8.42 -17.34,-8.42 -7.81,0 -13.18,3.37 -15.72,5.99 -4.08,4.21 -6.03,10.45 -5.78,18.55 0.11,3.54 0.81,7.23 1.98,10.46 -3.18,2.07 -11.85,7.31 -21.8,7.31 -11.82,0 -16.68,-9.23 -16.68,-18.55 0,-9.03 4.54,-18.56 16.68,-18.56 6.83,0 13.68,2.88 16.02,3.96 l -0.39,-5.88 c -4.41,-1.72 -10.21,-3.28 -15.23,-3.28 -20.1,0 -21.76,16.87 -21.66,23.74 -0.09,6.89 1.75,23.76 21.48,23.76 z m 96.54,-32.4 c 0.64,1.61 1.18,3.69 1.51,5.65 0.02,0.1 1.38,10.56 -4.19,16.95 -2.88,3.31 -7.22,4.76 -12.73,4.8 -12.57,0.11 -13.79,-4.66 -13.79,-4.66 -1.31,-2.92 2.93,-8.82 29.2,-22.74 z M 87.92,75.86 c 2.88,-3.31 7.15,-4.98 12.66,-4.98 5.94,0 10.93,2.07 11.44,4.45 0.38,1.78 -1.3,4.06 -8.98,10.22 -0.08,0.07 -7.84,6.65 -17.86,12.6 -0.63,-1.6 -1.12,-3.4 -1.45,-5.34 -0.02,-0.11 -1.38,-10.56 4.19,-16.95 z"
   id="path1-7" />
		<rect
   x="42.73"
   y="129.14999"
   class="st1"
   width="114.58"
   height="4.8800001"
   id="rect2" />
	</g>
</g></g></g><style
     type="text/css"
     id="style1">
	.st0{fill:#E60019;}
	.st1{fill:#FFFFFF;}
</style></svg>
