<?xml version="1.0" encoding="UTF-8" standalone="no"?>
<!-- Created with Inkscape (http://www.inkscape.org/) -->

<svg
   width="39.053555mm"
   height="56.01194mm"
   viewBox="0 0 39.053555 56.01194"
   version="1.1"
   id="svg1"
   xml:space="preserve"
   sodipodi:docname="E4H.svg"
   inkscape:version="1.3.2 (091e20e, 2023-11-25)"
   xmlns:inkscape="http://www.inkscape.org/namespaces/inkscape"
   xmlns:sodipodi="http://sodipodi.sourceforge.net/DTD/sodipodi-0.dtd"
   xmlns="http://www.w3.org/2000/svg"
   xmlns:svg="http://www.w3.org/2000/svg"><sodipodi:namedview
     id="namedview1"
     pagecolor="#ffffff"
     bordercolor="#000000"
     borderopacity="0.25"
     inkscape:showpageshadow="2"
     inkscape:pageopacity="0.0"
     inkscape:pagecheckerboard="0"
     inkscape:deskcolor="#d1d1d1"
     inkscape:document-units="mm"
     inkscape:zoom="3.0285839"
     inkscape:cx="300.30536"
     inkscape:cy="162.12197"
     inkscape:window-width="3008"
     inkscape:window-height="1639"
     inkscape:window-x="0"
     inkscape:window-y="25"
     inkscape:window-maximized="1"
     inkscape:current-layer="g1"><inkscape:page
       x="-7.1039681e-06"
       y="3.7943306e-07"
       width="39.053555"
       height="56.01194"
       id="page3"
       margin="0"
       bleed="0" /></sodipodi:namedview><defs
     id="defs1" /><g
     id="g1"
     inkscape:groupmode="layer"
     inkscape:label="1"
     transform="matrix(0.26458333,0,0,0.26458334,157.82936,-16.586198)"><g
       id="g2"
       transform="translate(-51.349335,25.999999)"
       style="fill:#01426a;fill-opacity:1"
       inkscape:export-filename="E4H.svg"
       inkscape:export-xdpi="96"
       inkscape:export-ydpi="96"><path
         id="path1"
         d="m -476.06708,111.38533 c -20,-13.697332 -30.70267,-21.098666 -40.80133,-28.598665 -4.90134,7.999999 -7.69867,17.499995 -7.69867,27.598665 0,18.30267 9.19867,34.40133 23.29733,44 5.80134,-11.59867 13.70267,-24.40133 25.20267,-43 z"
         style="fill:#01426a;fill-opacity:1;fill-rule:nonzero;stroke:none;stroke-width:1.33333" /><path
         id="path2"
         d="m -423.67108,122.08266 c -8.19734,8.704 -21.396,10 -30.896,4.10534 -1.80133,-1.204 -14.80133,-10.10534 -14.80133,-10.10534 -14.40134,20.30267 -21.80267,30.50134 -29.69867,39.80267 8.09867,4.90133 17.59867,7.80267 27.69867,7.80267 28.59866,0 51.89999,-22.5 53.19733,-50.704 -1.09867,3.30266 -3,6.5 -5.5,9.09866 z"
         style="fill:#01426a;fill-opacity:1;fill-rule:nonzero;stroke:none;stroke-width:1.33333" /><path
         id="path3"
         d="m -433.46842,91.983998 c -1.80133,-1.197334 -13.20266,-8.796 -13.20266,-8.796 -9.29733,13.796 -10.79733,15.796 -18,26.098662 0,0 12.40133,8.09867 14.20266,9.19734 6.40134,4 15,2.80266 20,-2.796 1.90134,-2.104 3.29734,-4.80267 3.79734,-7.60534 1,-5.19733 -0.59867,-11.999996 -6.79734,-16.098662 z"
         style="fill:#01426a;fill-opacity:1;fill-rule:nonzero;stroke:none;stroke-width:1.33333" /><path
         id="path4"
         d="m -471.76975,104.688 c 6.80134,-10.802669 12.90134,-20.401335 22.5,-34.901335 0,0 20.09867,13.296 21.90133,14.598666 2.09867,1.5 3.59867,3 4.9,4.5 -8.30133,-18.697333 -27,-31.802666 -48.80133,-31.802666 -17.40133,0 -32.79733,8.302667 -42.5,21.204 10.70267,6.297333 23.5,14.499999 42,26.401335 z"
         style="fill:#01426a;fill-opacity:1;fill-rule:nonzero;stroke:none;stroke-width:1.33333" /><path
         id="path5"
         d="m -521.67108,71.983998 c 0,3.704 -3,6.704 -6.69733,6.704 -3.69867,0 -6.69867,-3 -6.69867,-6.704 0,-3.697333 3,-6.697333 6.69867,-6.697333 3.69733,0 6.69733,3 6.69733,6.697333 z"
         style="fill:#01426a;fill-opacity:1;fill-rule:nonzero;stroke:none;stroke-width:1.33333" /><path
         id="path6"
         d="m -516.96841,52.385332 3.19866,-2.302667 c 1.90134,-1.296 3.80134,-1.098666 5,0.501334 1.30134,1.801333 0.5,3.801333 -1.19866,5 l -1.59867,1.104 1.79733,2.598666 -1.40133,1 z m 6,2 c 1.1,-0.801333 1.29733,-1.801333 0.69866,-2.697333 -0.69866,-0.901334 -1.69866,-1 -2.79733,-0.204 l -1.604,1.204 2.104,2.896 z"
         style="fill:#01426a;fill-opacity:1;fill-rule:nonzero;stroke:none;stroke-width:1.33333" /><path
         id="path7"
         d="m -503.86841,49.583999 c -1.1,-2.6 -0.1,-5.6 2.69733,-6.797333 2.80267,-1.202667 5.604,0 6.80267,2.598666 1.09866,2.5 0.0987,5.5 -2.69867,6.802667 -2.80133,1.197333 -5.70267,-0.105334 -6.80133,-2.604 z m 7.80133,-3.396 c -0.80133,-1.802667 -2.70267,-2.704 -4.5,-1.901333 -1.80133,0.796 -2.40133,2.795999 -1.604,4.499999 0.80267,1.797334 2.70267,2.697334 4.5,1.901334 1.70267,-0.802667 2.40133,-2.802667 1.604,-4.5 z"
         style="fill:#01426a;fill-opacity:1;fill-rule:nonzero;stroke:none;stroke-width:1.33333" /><path
         id="path8"
         d="m -490.26975,39.082666 1.70267,-0.394667 1.79733,8.098666 5.09867,-1.098666 0.30267,1.5 -6.80267,1.5 z"
         style="fill:#01426a;fill-opacity:1;fill-rule:nonzero;stroke:none;stroke-width:1.33333" /><path
         id="path9"
         d="m -476.26975,42.885332 -4.29733,-5.697333 2,-0.105333 3,4.204 2.5,-4.5 2,-0.09867 -3.604,6.197333 0.20267,3.901333 -1.80134,0.09867 z"
         style="fill:#01426a;fill-opacity:1;fill-rule:nonzero;stroke:none;stroke-width:1.33333" /><path
         id="path10"
         d="m -463.86841,38.687999 -3.1,-0.401333 0.19866,-1.598667 7.90134,0.896 -0.19867,1.604 -3.104,-0.401333 -0.896,8.197333 -1.80133,-0.09867 z"
         style="fill:#01426a;fill-opacity:1;fill-rule:nonzero;stroke:none;stroke-width:1.33333" /><path
         id="path11"
         d="m -452.96842,38.885332 7,2.197334 -0.5,1.501333 -5.30133,-1.6 -0.79733,2.5 4.69866,1.5 -0.40133,1.5 -4.69867,-1.5 -0.80133,2.5 5.40133,1.704 -0.40133,1.5 -7.09866,-2.204 z"
         style="fill:#01426a;fill-opacity:1;fill-rule:nonzero;stroke:none;stroke-width:1.33333" /><path
         id="path12"
         d="m -442.56708,47.786665 c 1.29733,-2.499999 4.29733,-3.499999 6.896,-2.098666 1.604,0.896 2.30266,1.896 2.70266,3.197333 l -1.59866,0.598667 c -0.40134,-1 -0.90134,-1.9 -1.90134,-2.401334 -1.70266,-0.894666 -3.59866,-0.197333 -4.5,1.501334 -0.9,1.702666 -0.5,3.702666 1.19867,4.604 1.09867,0.598666 2,0.5 3.09867,0.197333 l 0.40133,1.5 c -1.40133,0.5 -2.69867,0.5 -4.40133,-0.401333 -2.396,-1.197334 -3.29734,-4.197334 -1.896,-6.697334 z"
         style="fill:#01426a;fill-opacity:1;fill-rule:nonzero;stroke:none;stroke-width:1.33333" /><path
         id="path13"
         d="m -427.17108,51.187999 1.30266,1.098666 -2.6,3.197334 3.6,3 2.59867,-3.197334 1.30133,1.098667 -6.30133,7.598666 -1.29733,-1.098666 2.69866,-3.197333 -3.6,-3 -2.70266,3.197333 -1.29734,-1.098667 z"
         style="fill:#01426a;fill-opacity:1;fill-rule:nonzero;stroke:none;stroke-width:1.33333" /><path
         id="path14"
         d="m -415.67108,61.885332 1,1.302666 -2.19734,8.396 5.4,-4.198666 1,1.302666 -7.80133,6 -0.90133,-1.204 2.20266,-8.598666 -5.59866,4.302666 -1,-1.401333 z"
         style="fill:#01426a;fill-opacity:1;fill-rule:nonzero;stroke:none;stroke-width:1.33333" /><path
         id="path15"
         d="m -406.96842,74.483998 0.79734,1.5 -8.69734,4.704 -0.80266,-1.5 z"
         style="fill:#01426a;fill-opacity:1;fill-rule:nonzero;stroke:none;stroke-width:1.33333" /><path
         id="path16"
         d="m -409.26975,92.187998 c -0.79733,-0.604 -1.5,-1.401334 -1.90133,-2.5 -1,-2.901334 0.5,-5.605333 3.104,-6.5 2.59866,-0.901333 5.5,0.396 6.5,3.197333 1,2.901333 -0.5,5.598667 -3.104,6.5 -1.09867,0.401333 -2.19734,0.401333 -3.19734,0 l -0.5,1.401333 -1.5,-0.702666 z m 0.70267,-1.5 0.79733,-2.104 1.59867,0.604 -0.896,2.098666 c 0.59866,0.197334 1.29733,0.09867 1.896,-0.09867 1.80266,-0.604 2.90133,-2.5 2.20266,-4.302667 -0.59866,-1.802666 -2.59866,-2.598666 -4.4,-2 -1.80266,0.598667 -2.90133,2.5 -2.19866,4.302667 0.19866,0.598666 0.5,1.098666 1,1.5 z"
         style="fill:#01426a;fill-opacity:1;fill-rule:nonzero;stroke:none;stroke-width:1.33333" /><path
         id="path17"
         d="m -404.26975,98.286664 5.59867,-0.702666 0.20266,1.702666 -5.59866,0.697334 c -1.80134,0.204002 -2.70267,1.302662 -2.5,2.802662 0.19866,1.5 1.19866,2.40134 3,2.09867 l 5.59866,-0.69733 0.19867,1.69733 -5.59867,0.69867 c -2.90133,0.30133 -4.6,-1.1 -4.90133,-3.69867 -0.0987,-2.5 1.20267,-4.301332 4,-4.598666 z"
         style="fill:#01426a;fill-opacity:1;fill-rule:nonzero;stroke:none;stroke-width:1.33333" /><path
         id="path18"
         d="m -397.56708,112.584 -0.604,7.30133 -1.59867,-0.0987 0.40133,-5.59866 -2.6,-0.204 -0.4,4.90133 -1.6,-0.0987 0.40134,-4.90133 -2.604,-0.19733 -0.396,5.59866 -1.604,-0.0987 0.604,-7.40134 z"
         style="fill:#01426a;fill-opacity:1;fill-rule:nonzero;stroke:none;stroke-width:1.33333" /><path
         id="path19"
         d="m -513.26975,170.88533 -1.40133,-1 5.70267,-8.09867 1.40133,1 z"
         style="fill:#01426a;fill-opacity:1;fill-rule:nonzero;stroke:none;stroke-width:1.33333" /><path
         id="path20"
         d="m -520.56708,165.28666 -1.104,-1.09866 1.104,-8.604 -4.80133,4.80133 -1.19867,-1.19733 7,-6.90134 1,1 -1.20267,8.796 5,-4.89466 1.20267,1.19733 z"
         style="fill:#01426a;fill-opacity:1;fill-rule:nonzero;stroke:none;stroke-width:1.33333" /><path
         id="path21"
         d="m -523.67108,149.584 -1.59867,-0.19867 c 0.20267,-1.19733 0,-2.30267 -0.59866,-3.30267 -0.6,-0.89466 -1.40134,-1.19733 -2,-0.796 -0.6,0.40134 -0.69867,0.90134 0,2.69734 0.69733,2 0.9,3.40133 -0.69867,4.40133 -1.40133,0.90133 -3.20267,0.40133 -4.20267,-1.19733 -0.79733,-1.204 -1,-2.40134 -0.90133,-3.704 l 1.604,0.1 c -0.104,1.104 0.0987,2 0.59867,2.80133 0.6,0.90133 1.29733,1.09867 1.90133,0.69733 0.59867,-0.39466 0.69867,-1 0,-2.796 -0.70267,-2 -0.70267,-3.30266 0.69867,-4.204 1.5,-1 3.30133,-0.39466 4.4,1.30267 0.69866,1.09867 1.1,2.59867 0.79733,4.19867 z"
         style="fill:#01426a;fill-opacity:1;fill-rule:nonzero;stroke:none;stroke-width:1.33333" /><path
         id="path22"
         d="m -537.17108,139.688 1.20267,2.896 -1.5,0.604 -3.20267,-7.40134 1.5,-0.59866 1.20267,2.89466 7.6,-3.296 0.69733,1.59867 z"
         style="fill:#01426a;fill-opacity:1;fill-rule:nonzero;stroke:none;stroke-width:1.33333" /><path
         id="path23"
         d="m -542.17108,130.484 -0.5,-1.69734 9.5,-2.59866 0.5,1.69733 z"
         style="fill:#01426a;fill-opacity:1;fill-rule:nonzero;stroke:none;stroke-width:1.33333" /><path
         id="path24"
         d="m -542.76975,120.08266 0.40134,3.10534 -1.6,0.19733 -1,-7.90133 1.6,-0.19734 0.4,3.09867 8.19866,-1 0.20267,1.69733 z"
         style="fill:#01426a;fill-opacity:1;fill-rule:nonzero;stroke:none;stroke-width:1.33333" /><path
         id="path25"
         d="m -539.46841,110.08266 -5.70267,-0.39466 0.104,-1.704 5.59867,0.40133 c 1.79733,0.0987 2.90133,-0.80133 3,-2.30267 0.1,-1.49866 -0.80134,-2.49866 -2.59867,-2.69733 l -5.70267,-0.40133 0.0987,-1.69734 5.604,0.40134 c 2.896,0.19733 4.29733,1.896 4.19867,4.5 -0.1,2.59866 -1.69867,4.09866 -4.6,3.89466 z"
         style="fill:#01426a;fill-opacity:1;fill-rule:nonzero;stroke:none;stroke-width:1.33333" /><path
         id="path26"
         d="m -541.26975,93.082664 -0.79733,3 -1.604,-0.394666 2,-7.802667 1.604,0.401333 -0.80133,3 8,2.098667 -0.40134,1.697333 z"
         style="fill:#01426a;fill-opacity:1;fill-rule:nonzero;stroke:none;stroke-width:1.33333" /><path
         id="path27"
         d="m -493.26975,170.08266 3.80134,1.10534 c 3.90133,1.09866 5.40133,3.59866 4.5,6.59866 -0.80134,2.90134 -3.4,4.5 -7.5,3.296 l -3.70267,-1.09866 z m 1.80134,8.204 c 1.5,0.40134 2.69866,0.0987 3.1,-1.40133 0.4,-1.40133 -0.40134,-2.30133 -1.90134,-2.80267 l -0.59866,-0.19733 -1.19867,4.09867 z"
         style="fill:#01426a;fill-opacity:1;fill-rule:nonzero;stroke:none;stroke-width:1.33333" /><path
         id="path28"
         d="m -478.67108,173.584 8.80267,0.4 -0.1,2.80266 -5.4,-0.30266 -0.1,1.1 5.1,0.20266 -0.1,2.5 -5.09867,-0.204 -0.104,1.10534 5.5,0.296 -0.0987,2.80266 -8.90133,-0.40133 z"
         style="fill:#01426a;fill-opacity:1;fill-rule:nonzero;stroke:none;stroke-width:1.33333" /><path
         id="path29"
         d="m -456.76975,172.38533 4.40133,-1.40133 c 2.59867,-0.796 4.80134,-0.19734 5.5,2.204 0.69734,2.396 -0.69866,4.19733 -3.40133,5 l -1.09867,0.296 0.80134,2.704 -3.30134,1 z m 5.59867,3.59867 c 0.80266,-0.296 1.30266,-0.796 1.104,-1.5 -0.20267,-0.69734 -0.90134,-0.9 -1.70267,-0.69734 l -0.90133,0.296 0.70266,2.204 z"
         style="fill:#01426a;fill-opacity:1;fill-rule:nonzero;stroke:none;stroke-width:1.33333" /><path
         id="path30"
         d="m -441.36842,166.38533 3,-1.69733 8.9,6.896 -3.30133,1.9 -1.19867,-0.9 -3.09866,1.80133 0.19866,1.5 -3.19866,1.80267 z m 5.5,4.40133 -2.1,-1.704 0.40134,2.60534 z"
         style="fill:#01426a;fill-opacity:1;fill-rule:nonzero;stroke:none;stroke-width:1.33333" /><path
         id="path31"
         d="m -431.36842,159.984 3.69734,-3.4 c 1.30266,-1.19867 2.5,-1.69867 3.5,-1.69867 0.90133,0 1.604,0.40133 2.40133,1.09867 1,1.09866 1.20267,2.40133 0.70267,3.704 l 4.19866,0.896 -2.90133,2.70266 -3.40133,-0.80266 -0.5,0.5 2,2.204 -2.5,2.396 z m 7,0.204 c 0.59867,-0.604 0.69734,-1.204 0.30134,-1.604 -0.40134,-0.50134 -1.104,-0.396 -1.604,0.20266 l -1.09867,1 1.40133,1.5 z"
         style="fill:#01426a;fill-opacity:1;fill-rule:nonzero;stroke:none;stroke-width:1.33333" /><path
         id="path32"
         d="m -420.96842,149.28666 2,-2.80266 8.29734,6.1 -2,2.80133 z"
         style="fill:#01426a;fill-opacity:1;fill-rule:nonzero;stroke:none;stroke-width:1.33333" /><path
         id="path33"
         d="m -408.46842,146.584 -1.20266,-2.6 c 1.30266,-0.59867 2.104,-1.59867 2.70266,-2.69734 0.29734,-0.59866 0.19867,-0.90133 0,-1 -0.30133,-0.0987 -0.59866,0.0987 -1.20266,1 -1.396,1.90134 -2.896,3.40134 -4.896,2.5 -1.80134,-0.90133 -2.5,-2.90133 -1.20267,-5.5 0.90133,-1.80266 1.90133,-2.90133 3.30133,-3.59866 l 1.40134,2.5 c -1.104,0.59866 -1.90134,1.5 -2.30134,2.296 -0.19866,0.5 -0.19866,0.80266 0.0987,0.90133 0.20267,0.0987 0.5,-0.0987 1.20267,-0.90133 1.59866,-2.19734 3.09866,-3.40134 4.896,-2.5 1.90133,0.90133 2.40133,3.09866 1.104,5.6 -0.90134,1.9 -2.20267,3.30133 -3.90134,4 z"
         style="fill:#01426a;fill-opacity:1;fill-rule:nonzero;stroke:none;stroke-width:1.33333" /></g><g
       id="g3"
       style="fill:#01426a;fill-opacity:1;stroke:#01426a;stroke-opacity:1"><path
         id="path34"
         d="m -584.31975,273.78799 v -45.40133 h 29.20267 v 7.09867 h -20.9 v 12 h 19.69733 v 7.09866 h -19.69733 v 12 h 20.9 v 7.204 z"
         style="fill:#01426a;fill-opacity:1;fill-rule:nonzero;stroke:#01426a;stroke-width:1;stroke-linecap:butt;stroke-linejoin:miter;stroke-miterlimit:10;stroke-dasharray:none;stroke-opacity:1" /><path
         id="path35"
         d="m -522.91841,227.88666 h 8 v 28.80267 h 7.90133 v 7.09866 h -7.90133 v 10.09867 h -8.19867 v -10.09867 h -23 v -6.204 z m 0.20266,12.30267 -13.604,17.39466 h 13.604 z"
         style="fill:#01426a;fill-opacity:1;fill-rule:nonzero;stroke:#01426a;stroke-width:1;stroke-linecap:butt;stroke-linejoin:miter;stroke-miterlimit:10;stroke-dasharray:none;stroke-opacity:1" /><path
         id="path36"
         d="m -497.51708,228.38666 h 8.30133 v 19 h 19.79734 v -19 h 8.30133 v 45.40133 h -8.30133 v -19.204 h -19.79734 v 19.204 h -8.30133 z"
         style="fill:#01426a;fill-opacity:1;fill-rule:nonzero;stroke:#01426a;stroke-width:1;stroke-linecap:butt;stroke-linejoin:miter;stroke-miterlimit:10;stroke-dasharray:none;stroke-opacity:1" /></g></g></svg>
